G04 EAGLE Gerber X2 export*
G75*
%MOMM*%
%FSLAX34Y34*%
%LPD*%
%AMOC8*
5,1,8,0,0,1.08239X$1,22.5*%
G01*
%ADD10C,6.553200*%
%ADD11C,0.360959*%
%ADD12R,5.603200X5.603200*%
%ADD13R,0.943200X0.423200*%
%ADD14R,1.503200X1.703200*%
%ADD15P,2.152008X8X292.500000*%
%ADD16C,2.583200*%
%ADD17P,2.152008X8X112.500000*%
%ADD18R,1.403200X0.753200*%
%ADD19R,2.203200X2.703200*%
%ADD20R,1.703200X1.503200*%
%ADD21R,1.701800X2.209800*%
%ADD22R,4.013200X2.209800*%
%ADD23R,1.503200X1.803200*%
%ADD24C,1.103200*%
%ADD25R,1.903200X1.103200*%
%ADD26R,2.743200X1.473200*%
%ADD27R,3.203200X1.403200*%
%ADD28R,1.403200X3.203200*%
%ADD29C,1.727200*%
%ADD30P,1.852186X8X22.500000*%
%ADD31P,1.852186X8X44.500000*%
%ADD32P,1.852186X8X360.500000*%
%ADD33R,2.108200X1.219200*%
%ADD34C,1.473200*%
%ADD35C,0.959600*%
%ADD36C,1.703200*%


D10*
X750495Y1470167D03*
D11*
X448584Y1230909D02*
X442629Y1236864D01*
X448584Y1230909D02*
X442629Y1224954D01*
X436674Y1230909D01*
X442629Y1236864D01*
X446238Y1228563D02*
X439020Y1228563D01*
X437937Y1232172D02*
X447321Y1232172D01*
X443712Y1235781D02*
X441546Y1235781D01*
X455031Y1249266D02*
X460986Y1243311D01*
X455031Y1237356D01*
X449076Y1243311D01*
X455031Y1249266D01*
X458640Y1240965D02*
X451422Y1240965D01*
X450339Y1244574D02*
X459723Y1244574D01*
X456114Y1248183D02*
X453948Y1248183D01*
X442629Y1201939D02*
X448584Y1195984D01*
X442629Y1190029D01*
X436674Y1195984D01*
X442629Y1201939D01*
X446238Y1193638D02*
X439020Y1193638D01*
X437937Y1197247D02*
X447321Y1197247D01*
X443712Y1200856D02*
X441546Y1200856D01*
X455031Y1214341D02*
X460986Y1208386D01*
X455031Y1202431D01*
X449076Y1208386D01*
X455031Y1214341D01*
X458640Y1206040D02*
X451422Y1206040D01*
X450339Y1209649D02*
X459723Y1209649D01*
X456114Y1213258D02*
X453948Y1213258D01*
X442629Y852689D02*
X448584Y846734D01*
X442629Y840779D01*
X436674Y846734D01*
X442629Y852689D01*
X446238Y844388D02*
X439020Y844388D01*
X437937Y847997D02*
X447321Y847997D01*
X443712Y851606D02*
X441546Y851606D01*
X455031Y865091D02*
X460986Y859136D01*
X455031Y853181D01*
X449076Y859136D01*
X455031Y865091D01*
X458640Y856790D02*
X451422Y856790D01*
X450339Y860399D02*
X459723Y860399D01*
X456114Y864008D02*
X453948Y864008D01*
X477554Y852689D02*
X483509Y846734D01*
X477554Y840779D01*
X471599Y846734D01*
X477554Y852689D01*
X481163Y844388D02*
X473945Y844388D01*
X472862Y847997D02*
X482246Y847997D01*
X478637Y851606D02*
X476471Y851606D01*
X489956Y865091D02*
X495911Y859136D01*
X489956Y853181D01*
X484001Y859136D01*
X489956Y865091D01*
X493565Y856790D02*
X486347Y856790D01*
X485264Y860399D02*
X494648Y860399D01*
X491039Y864008D02*
X488873Y864008D01*
X512479Y852689D02*
X518434Y846734D01*
X512479Y840779D01*
X506524Y846734D01*
X512479Y852689D01*
X516088Y844388D02*
X508870Y844388D01*
X507787Y847997D02*
X517171Y847997D01*
X513562Y851606D02*
X511396Y851606D01*
X524881Y865091D02*
X530836Y859136D01*
X524881Y853181D01*
X518926Y859136D01*
X524881Y865091D01*
X528490Y856790D02*
X521272Y856790D01*
X520189Y860399D02*
X529573Y860399D01*
X525964Y864008D02*
X523798Y864008D01*
X547404Y852689D02*
X553359Y846734D01*
X547404Y840779D01*
X541449Y846734D01*
X547404Y852689D01*
X551013Y844388D02*
X543795Y844388D01*
X542712Y847997D02*
X552096Y847997D01*
X548487Y851606D02*
X546321Y851606D01*
X559806Y865091D02*
X565761Y859136D01*
X559806Y853181D01*
X553851Y859136D01*
X559806Y865091D01*
X563415Y856790D02*
X556197Y856790D01*
X555114Y860399D02*
X564498Y860399D01*
X560889Y864008D02*
X558723Y864008D01*
X582329Y852689D02*
X588284Y846734D01*
X582329Y840779D01*
X576374Y846734D01*
X582329Y852689D01*
X585938Y844388D02*
X578720Y844388D01*
X577637Y847997D02*
X587021Y847997D01*
X583412Y851606D02*
X581246Y851606D01*
X594731Y865091D02*
X600686Y859136D01*
X594731Y853181D01*
X588776Y859136D01*
X594731Y865091D01*
X598340Y856790D02*
X591122Y856790D01*
X590039Y860399D02*
X599423Y860399D01*
X595814Y864008D02*
X593648Y864008D01*
X617254Y852689D02*
X623209Y846734D01*
X617254Y840779D01*
X611299Y846734D01*
X617254Y852689D01*
X620863Y844388D02*
X613645Y844388D01*
X612562Y847997D02*
X621946Y847997D01*
X618337Y851606D02*
X616171Y851606D01*
X629656Y865091D02*
X635611Y859136D01*
X629656Y853181D01*
X623701Y859136D01*
X629656Y865091D01*
X633265Y856790D02*
X626047Y856790D01*
X624964Y860399D02*
X634348Y860399D01*
X630739Y864008D02*
X628573Y864008D01*
X652179Y852689D02*
X658134Y846734D01*
X652179Y840779D01*
X646224Y846734D01*
X652179Y852689D01*
X655788Y844388D02*
X648570Y844388D01*
X647487Y847997D02*
X656871Y847997D01*
X653262Y851606D02*
X651096Y851606D01*
X664581Y865091D02*
X670536Y859136D01*
X664581Y853181D01*
X658626Y859136D01*
X664581Y865091D01*
X668190Y856790D02*
X660972Y856790D01*
X659889Y860399D02*
X669273Y860399D01*
X665664Y864008D02*
X663498Y864008D01*
X687104Y852689D02*
X693059Y846734D01*
X687104Y840779D01*
X681149Y846734D01*
X687104Y852689D01*
X690713Y844388D02*
X683495Y844388D01*
X682412Y847997D02*
X691796Y847997D01*
X688187Y851606D02*
X686021Y851606D01*
X699506Y865091D02*
X705461Y859136D01*
X699506Y853181D01*
X693551Y859136D01*
X699506Y865091D01*
X703115Y856790D02*
X695897Y856790D01*
X694814Y860399D02*
X704198Y860399D01*
X700589Y864008D02*
X698423Y864008D01*
X722029Y852689D02*
X727984Y846734D01*
X722029Y840779D01*
X716074Y846734D01*
X722029Y852689D01*
X725638Y844388D02*
X718420Y844388D01*
X717337Y847997D02*
X726721Y847997D01*
X723112Y851606D02*
X720946Y851606D01*
X734431Y865091D02*
X740386Y859136D01*
X734431Y853181D01*
X728476Y859136D01*
X734431Y865091D01*
X738040Y856790D02*
X730822Y856790D01*
X729739Y860399D02*
X739123Y860399D01*
X735514Y864008D02*
X733348Y864008D01*
X448584Y811809D02*
X442629Y817764D01*
X448584Y811809D02*
X442629Y805854D01*
X436674Y811809D01*
X442629Y817764D01*
X446238Y809463D02*
X439020Y809463D01*
X437937Y813072D02*
X447321Y813072D01*
X443712Y816681D02*
X441546Y816681D01*
X455031Y830166D02*
X460986Y824211D01*
X455031Y818256D01*
X449076Y824211D01*
X455031Y830166D01*
X458640Y821865D02*
X451422Y821865D01*
X450339Y825474D02*
X459723Y825474D01*
X456114Y829083D02*
X453948Y829083D01*
X483509Y1195984D02*
X477554Y1201939D01*
X483509Y1195984D02*
X477554Y1190029D01*
X471599Y1195984D01*
X477554Y1201939D01*
X481163Y1193638D02*
X473945Y1193638D01*
X472862Y1197247D02*
X482246Y1197247D01*
X478637Y1200856D02*
X476471Y1200856D01*
X489956Y1214341D02*
X495911Y1208386D01*
X489956Y1202431D01*
X484001Y1208386D01*
X489956Y1214341D01*
X493565Y1206040D02*
X486347Y1206040D01*
X485264Y1209649D02*
X494648Y1209649D01*
X491039Y1213258D02*
X488873Y1213258D01*
X477554Y817764D02*
X483509Y811809D01*
X477554Y805854D01*
X471599Y811809D01*
X477554Y817764D01*
X481163Y809463D02*
X473945Y809463D01*
X472862Y813072D02*
X482246Y813072D01*
X478637Y816681D02*
X476471Y816681D01*
X489956Y830166D02*
X495911Y824211D01*
X489956Y818256D01*
X484001Y824211D01*
X489956Y830166D01*
X493565Y821865D02*
X486347Y821865D01*
X485264Y825474D02*
X494648Y825474D01*
X491039Y829083D02*
X488873Y829083D01*
X512479Y817764D02*
X518434Y811809D01*
X512479Y805854D01*
X506524Y811809D01*
X512479Y817764D01*
X516088Y809463D02*
X508870Y809463D01*
X507787Y813072D02*
X517171Y813072D01*
X513562Y816681D02*
X511396Y816681D01*
X524881Y830166D02*
X530836Y824211D01*
X524881Y818256D01*
X518926Y824211D01*
X524881Y830166D01*
X528490Y821865D02*
X521272Y821865D01*
X520189Y825474D02*
X529573Y825474D01*
X525964Y829083D02*
X523798Y829083D01*
X547404Y817764D02*
X553359Y811809D01*
X547404Y805854D01*
X541449Y811809D01*
X547404Y817764D01*
X551013Y809463D02*
X543795Y809463D01*
X542712Y813072D02*
X552096Y813072D01*
X548487Y816681D02*
X546321Y816681D01*
X559806Y830166D02*
X565761Y824211D01*
X559806Y818256D01*
X553851Y824211D01*
X559806Y830166D01*
X563415Y821865D02*
X556197Y821865D01*
X555114Y825474D02*
X564498Y825474D01*
X560889Y829083D02*
X558723Y829083D01*
X582329Y817764D02*
X588284Y811809D01*
X582329Y805854D01*
X576374Y811809D01*
X582329Y817764D01*
X585938Y809463D02*
X578720Y809463D01*
X577637Y813072D02*
X587021Y813072D01*
X583412Y816681D02*
X581246Y816681D01*
X594731Y830166D02*
X600686Y824211D01*
X594731Y818256D01*
X588776Y824211D01*
X594731Y830166D01*
X598340Y821865D02*
X591122Y821865D01*
X590039Y825474D02*
X599423Y825474D01*
X595814Y829083D02*
X593648Y829083D01*
X617254Y817764D02*
X623209Y811809D01*
X617254Y805854D01*
X611299Y811809D01*
X617254Y817764D01*
X620863Y809463D02*
X613645Y809463D01*
X612562Y813072D02*
X621946Y813072D01*
X618337Y816681D02*
X616171Y816681D01*
X629656Y830166D02*
X635611Y824211D01*
X629656Y818256D01*
X623701Y824211D01*
X629656Y830166D01*
X633265Y821865D02*
X626047Y821865D01*
X624964Y825474D02*
X634348Y825474D01*
X630739Y829083D02*
X628573Y829083D01*
X652179Y817764D02*
X658134Y811809D01*
X652179Y805854D01*
X646224Y811809D01*
X652179Y817764D01*
X655788Y809463D02*
X648570Y809463D01*
X647487Y813072D02*
X656871Y813072D01*
X653262Y816681D02*
X651096Y816681D01*
X664581Y830166D02*
X670536Y824211D01*
X664581Y818256D01*
X658626Y824211D01*
X664581Y830166D01*
X668190Y821865D02*
X660972Y821865D01*
X659889Y825474D02*
X669273Y825474D01*
X665664Y829083D02*
X663498Y829083D01*
X687104Y817764D02*
X693059Y811809D01*
X687104Y805854D01*
X681149Y811809D01*
X687104Y817764D01*
X690713Y809463D02*
X683495Y809463D01*
X682412Y813072D02*
X691796Y813072D01*
X688187Y816681D02*
X686021Y816681D01*
X699506Y830166D02*
X705461Y824211D01*
X699506Y818256D01*
X693551Y824211D01*
X699506Y830166D01*
X703115Y821865D02*
X695897Y821865D01*
X694814Y825474D02*
X704198Y825474D01*
X700589Y829083D02*
X698423Y829083D01*
X722029Y817764D02*
X727984Y811809D01*
X722029Y805854D01*
X716074Y811809D01*
X722029Y817764D01*
X725638Y809463D02*
X718420Y809463D01*
X717337Y813072D02*
X726721Y813072D01*
X723112Y816681D02*
X720946Y816681D01*
X734431Y830166D02*
X740386Y824211D01*
X734431Y818256D01*
X728476Y824211D01*
X734431Y830166D01*
X738040Y821865D02*
X730822Y821865D01*
X729739Y825474D02*
X739123Y825474D01*
X735514Y829083D02*
X733348Y829083D01*
X448584Y776884D02*
X442629Y782839D01*
X448584Y776884D02*
X442629Y770929D01*
X436674Y776884D01*
X442629Y782839D01*
X446238Y774538D02*
X439020Y774538D01*
X437937Y778147D02*
X447321Y778147D01*
X443712Y781756D02*
X441546Y781756D01*
X455031Y795241D02*
X460986Y789286D01*
X455031Y783331D01*
X449076Y789286D01*
X455031Y795241D01*
X458640Y786940D02*
X451422Y786940D01*
X450339Y790549D02*
X459723Y790549D01*
X456114Y794158D02*
X453948Y794158D01*
X477554Y782839D02*
X483509Y776884D01*
X477554Y770929D01*
X471599Y776884D01*
X477554Y782839D01*
X481163Y774538D02*
X473945Y774538D01*
X472862Y778147D02*
X482246Y778147D01*
X478637Y781756D02*
X476471Y781756D01*
X489956Y795241D02*
X495911Y789286D01*
X489956Y783331D01*
X484001Y789286D01*
X489956Y795241D01*
X493565Y786940D02*
X486347Y786940D01*
X485264Y790549D02*
X494648Y790549D01*
X491039Y794158D02*
X488873Y794158D01*
X518434Y1195984D02*
X512479Y1201939D01*
X518434Y1195984D02*
X512479Y1190029D01*
X506524Y1195984D01*
X512479Y1201939D01*
X516088Y1193638D02*
X508870Y1193638D01*
X507787Y1197247D02*
X517171Y1197247D01*
X513562Y1200856D02*
X511396Y1200856D01*
X524881Y1214341D02*
X530836Y1208386D01*
X524881Y1202431D01*
X518926Y1208386D01*
X524881Y1214341D01*
X528490Y1206040D02*
X521272Y1206040D01*
X520189Y1209649D02*
X529573Y1209649D01*
X525964Y1213258D02*
X523798Y1213258D01*
X512479Y782839D02*
X518434Y776884D01*
X512479Y770929D01*
X506524Y776884D01*
X512479Y782839D01*
X516088Y774538D02*
X508870Y774538D01*
X507787Y778147D02*
X517171Y778147D01*
X513562Y781756D02*
X511396Y781756D01*
X524881Y795241D02*
X530836Y789286D01*
X524881Y783331D01*
X518926Y789286D01*
X524881Y795241D01*
X528490Y786940D02*
X521272Y786940D01*
X520189Y790549D02*
X529573Y790549D01*
X525964Y794158D02*
X523798Y794158D01*
X547404Y782839D02*
X553359Y776884D01*
X547404Y770929D01*
X541449Y776884D01*
X547404Y782839D01*
X551013Y774538D02*
X543795Y774538D01*
X542712Y778147D02*
X552096Y778147D01*
X548487Y781756D02*
X546321Y781756D01*
X559806Y795241D02*
X565761Y789286D01*
X559806Y783331D01*
X553851Y789286D01*
X559806Y795241D01*
X563415Y786940D02*
X556197Y786940D01*
X555114Y790549D02*
X564498Y790549D01*
X560889Y794158D02*
X558723Y794158D01*
X582329Y782839D02*
X588284Y776884D01*
X582329Y770929D01*
X576374Y776884D01*
X582329Y782839D01*
X585938Y774538D02*
X578720Y774538D01*
X577637Y778147D02*
X587021Y778147D01*
X583412Y781756D02*
X581246Y781756D01*
X594731Y795241D02*
X600686Y789286D01*
X594731Y783331D01*
X588776Y789286D01*
X594731Y795241D01*
X598340Y786940D02*
X591122Y786940D01*
X590039Y790549D02*
X599423Y790549D01*
X595814Y794158D02*
X593648Y794158D01*
X617254Y782839D02*
X623209Y776884D01*
X617254Y770929D01*
X611299Y776884D01*
X617254Y782839D01*
X620863Y774538D02*
X613645Y774538D01*
X612562Y778147D02*
X621946Y778147D01*
X618337Y781756D02*
X616171Y781756D01*
X629656Y795241D02*
X635611Y789286D01*
X629656Y783331D01*
X623701Y789286D01*
X629656Y795241D01*
X633265Y786940D02*
X626047Y786940D01*
X624964Y790549D02*
X634348Y790549D01*
X630739Y794158D02*
X628573Y794158D01*
X652179Y782839D02*
X658134Y776884D01*
X652179Y770929D01*
X646224Y776884D01*
X652179Y782839D01*
X655788Y774538D02*
X648570Y774538D01*
X647487Y778147D02*
X656871Y778147D01*
X653262Y781756D02*
X651096Y781756D01*
X664581Y795241D02*
X670536Y789286D01*
X664581Y783331D01*
X658626Y789286D01*
X664581Y795241D01*
X668190Y786940D02*
X660972Y786940D01*
X659889Y790549D02*
X669273Y790549D01*
X665664Y794158D02*
X663498Y794158D01*
X687104Y782839D02*
X693059Y776884D01*
X687104Y770929D01*
X681149Y776884D01*
X687104Y782839D01*
X690713Y774538D02*
X683495Y774538D01*
X682412Y778147D02*
X691796Y778147D01*
X688187Y781756D02*
X686021Y781756D01*
X699506Y795241D02*
X705461Y789286D01*
X699506Y783331D01*
X693551Y789286D01*
X699506Y795241D01*
X703115Y786940D02*
X695897Y786940D01*
X694814Y790549D02*
X704198Y790549D01*
X700589Y794158D02*
X698423Y794158D01*
X722029Y782839D02*
X727984Y776884D01*
X722029Y770929D01*
X716074Y776884D01*
X722029Y782839D01*
X725638Y774538D02*
X718420Y774538D01*
X717337Y778147D02*
X726721Y778147D01*
X723112Y781756D02*
X720946Y781756D01*
X734431Y795241D02*
X740386Y789286D01*
X734431Y783331D01*
X728476Y789286D01*
X734431Y795241D01*
X738040Y786940D02*
X730822Y786940D01*
X729739Y790549D02*
X739123Y790549D01*
X735514Y794158D02*
X733348Y794158D01*
X448584Y741959D02*
X442629Y747914D01*
X448584Y741959D02*
X442629Y736004D01*
X436674Y741959D01*
X442629Y747914D01*
X446238Y739613D02*
X439020Y739613D01*
X437937Y743222D02*
X447321Y743222D01*
X443712Y746831D02*
X441546Y746831D01*
X455031Y760316D02*
X460986Y754361D01*
X455031Y748406D01*
X449076Y754361D01*
X455031Y760316D01*
X458640Y752015D02*
X451422Y752015D01*
X450339Y755624D02*
X459723Y755624D01*
X456114Y759233D02*
X453948Y759233D01*
X477554Y747914D02*
X483509Y741959D01*
X477554Y736004D01*
X471599Y741959D01*
X477554Y747914D01*
X481163Y739613D02*
X473945Y739613D01*
X472862Y743222D02*
X482246Y743222D01*
X478637Y746831D02*
X476471Y746831D01*
X489956Y760316D02*
X495911Y754361D01*
X489956Y748406D01*
X484001Y754361D01*
X489956Y760316D01*
X493565Y752015D02*
X486347Y752015D01*
X485264Y755624D02*
X494648Y755624D01*
X491039Y759233D02*
X488873Y759233D01*
X512479Y747914D02*
X518434Y741959D01*
X512479Y736004D01*
X506524Y741959D01*
X512479Y747914D01*
X516088Y739613D02*
X508870Y739613D01*
X507787Y743222D02*
X517171Y743222D01*
X513562Y746831D02*
X511396Y746831D01*
X524881Y760316D02*
X530836Y754361D01*
X524881Y748406D01*
X518926Y754361D01*
X524881Y760316D01*
X528490Y752015D02*
X521272Y752015D01*
X520189Y755624D02*
X529573Y755624D01*
X525964Y759233D02*
X523798Y759233D01*
X553359Y1195984D02*
X547404Y1201939D01*
X553359Y1195984D02*
X547404Y1190029D01*
X541449Y1195984D01*
X547404Y1201939D01*
X551013Y1193638D02*
X543795Y1193638D01*
X542712Y1197247D02*
X552096Y1197247D01*
X548487Y1200856D02*
X546321Y1200856D01*
X559806Y1214341D02*
X565761Y1208386D01*
X559806Y1202431D01*
X553851Y1208386D01*
X559806Y1214341D01*
X563415Y1206040D02*
X556197Y1206040D01*
X555114Y1209649D02*
X564498Y1209649D01*
X560889Y1213258D02*
X558723Y1213258D01*
X547404Y747914D02*
X553359Y741959D01*
X547404Y736004D01*
X541449Y741959D01*
X547404Y747914D01*
X551013Y739613D02*
X543795Y739613D01*
X542712Y743222D02*
X552096Y743222D01*
X548487Y746831D02*
X546321Y746831D01*
X559806Y760316D02*
X565761Y754361D01*
X559806Y748406D01*
X553851Y754361D01*
X559806Y760316D01*
X563415Y752015D02*
X556197Y752015D01*
X555114Y755624D02*
X564498Y755624D01*
X560889Y759233D02*
X558723Y759233D01*
X582329Y747914D02*
X588284Y741959D01*
X582329Y736004D01*
X576374Y741959D01*
X582329Y747914D01*
X585938Y739613D02*
X578720Y739613D01*
X577637Y743222D02*
X587021Y743222D01*
X583412Y746831D02*
X581246Y746831D01*
X594731Y760316D02*
X600686Y754361D01*
X594731Y748406D01*
X588776Y754361D01*
X594731Y760316D01*
X598340Y752015D02*
X591122Y752015D01*
X590039Y755624D02*
X599423Y755624D01*
X595814Y759233D02*
X593648Y759233D01*
X617254Y747914D02*
X623209Y741959D01*
X617254Y736004D01*
X611299Y741959D01*
X617254Y747914D01*
X620863Y739613D02*
X613645Y739613D01*
X612562Y743222D02*
X621946Y743222D01*
X618337Y746831D02*
X616171Y746831D01*
X629656Y760316D02*
X635611Y754361D01*
X629656Y748406D01*
X623701Y754361D01*
X629656Y760316D01*
X633265Y752015D02*
X626047Y752015D01*
X624964Y755624D02*
X634348Y755624D01*
X630739Y759233D02*
X628573Y759233D01*
X652179Y747914D02*
X658134Y741959D01*
X652179Y736004D01*
X646224Y741959D01*
X652179Y747914D01*
X655788Y739613D02*
X648570Y739613D01*
X647487Y743222D02*
X656871Y743222D01*
X653262Y746831D02*
X651096Y746831D01*
X664581Y760316D02*
X670536Y754361D01*
X664581Y748406D01*
X658626Y754361D01*
X664581Y760316D01*
X668190Y752015D02*
X660972Y752015D01*
X659889Y755624D02*
X669273Y755624D01*
X665664Y759233D02*
X663498Y759233D01*
X687104Y747914D02*
X693059Y741959D01*
X687104Y736004D01*
X681149Y741959D01*
X687104Y747914D01*
X690713Y739613D02*
X683495Y739613D01*
X682412Y743222D02*
X691796Y743222D01*
X688187Y746831D02*
X686021Y746831D01*
X699506Y760316D02*
X705461Y754361D01*
X699506Y748406D01*
X693551Y754361D01*
X699506Y760316D01*
X703115Y752015D02*
X695897Y752015D01*
X694814Y755624D02*
X704198Y755624D01*
X700589Y759233D02*
X698423Y759233D01*
X722029Y747914D02*
X727984Y741959D01*
X722029Y736004D01*
X716074Y741959D01*
X722029Y747914D01*
X725638Y739613D02*
X718420Y739613D01*
X717337Y743222D02*
X726721Y743222D01*
X723112Y746831D02*
X720946Y746831D01*
X734431Y760316D02*
X740386Y754361D01*
X734431Y748406D01*
X728476Y754361D01*
X734431Y760316D01*
X738040Y752015D02*
X730822Y752015D01*
X729739Y755624D02*
X739123Y755624D01*
X735514Y759233D02*
X733348Y759233D01*
X448584Y707034D02*
X442629Y712989D01*
X448584Y707034D02*
X442629Y701079D01*
X436674Y707034D01*
X442629Y712989D01*
X446238Y704688D02*
X439020Y704688D01*
X437937Y708297D02*
X447321Y708297D01*
X443712Y711906D02*
X441546Y711906D01*
X455031Y725391D02*
X460986Y719436D01*
X455031Y713481D01*
X449076Y719436D01*
X455031Y725391D01*
X458640Y717090D02*
X451422Y717090D01*
X450339Y720699D02*
X459723Y720699D01*
X456114Y724308D02*
X453948Y724308D01*
X477554Y712989D02*
X483509Y707034D01*
X477554Y701079D01*
X471599Y707034D01*
X477554Y712989D01*
X481163Y704688D02*
X473945Y704688D01*
X472862Y708297D02*
X482246Y708297D01*
X478637Y711906D02*
X476471Y711906D01*
X489956Y725391D02*
X495911Y719436D01*
X489956Y713481D01*
X484001Y719436D01*
X489956Y725391D01*
X493565Y717090D02*
X486347Y717090D01*
X485264Y720699D02*
X494648Y720699D01*
X491039Y724308D02*
X488873Y724308D01*
X512479Y712989D02*
X518434Y707034D01*
X512479Y701079D01*
X506524Y707034D01*
X512479Y712989D01*
X516088Y704688D02*
X508870Y704688D01*
X507787Y708297D02*
X517171Y708297D01*
X513562Y711906D02*
X511396Y711906D01*
X524881Y725391D02*
X530836Y719436D01*
X524881Y713481D01*
X518926Y719436D01*
X524881Y725391D01*
X528490Y717090D02*
X521272Y717090D01*
X520189Y720699D02*
X529573Y720699D01*
X525964Y724308D02*
X523798Y724308D01*
X547404Y712989D02*
X553359Y707034D01*
X547404Y701079D01*
X541449Y707034D01*
X547404Y712989D01*
X551013Y704688D02*
X543795Y704688D01*
X542712Y708297D02*
X552096Y708297D01*
X548487Y711906D02*
X546321Y711906D01*
X559806Y725391D02*
X565761Y719436D01*
X559806Y713481D01*
X553851Y719436D01*
X559806Y725391D01*
X563415Y717090D02*
X556197Y717090D01*
X555114Y720699D02*
X564498Y720699D01*
X560889Y724308D02*
X558723Y724308D01*
X588284Y1195984D02*
X582329Y1201939D01*
X588284Y1195984D02*
X582329Y1190029D01*
X576374Y1195984D01*
X582329Y1201939D01*
X585938Y1193638D02*
X578720Y1193638D01*
X577637Y1197247D02*
X587021Y1197247D01*
X583412Y1200856D02*
X581246Y1200856D01*
X594731Y1214341D02*
X600686Y1208386D01*
X594731Y1202431D01*
X588776Y1208386D01*
X594731Y1214341D01*
X598340Y1206040D02*
X591122Y1206040D01*
X590039Y1209649D02*
X599423Y1209649D01*
X595814Y1213258D02*
X593648Y1213258D01*
X582329Y712989D02*
X588284Y707034D01*
X582329Y701079D01*
X576374Y707034D01*
X582329Y712989D01*
X585938Y704688D02*
X578720Y704688D01*
X577637Y708297D02*
X587021Y708297D01*
X583412Y711906D02*
X581246Y711906D01*
X594731Y725391D02*
X600686Y719436D01*
X594731Y713481D01*
X588776Y719436D01*
X594731Y725391D01*
X598340Y717090D02*
X591122Y717090D01*
X590039Y720699D02*
X599423Y720699D01*
X595814Y724308D02*
X593648Y724308D01*
X617254Y712989D02*
X623209Y707034D01*
X617254Y701079D01*
X611299Y707034D01*
X617254Y712989D01*
X620863Y704688D02*
X613645Y704688D01*
X612562Y708297D02*
X621946Y708297D01*
X618337Y711906D02*
X616171Y711906D01*
X629656Y725391D02*
X635611Y719436D01*
X629656Y713481D01*
X623701Y719436D01*
X629656Y725391D01*
X633265Y717090D02*
X626047Y717090D01*
X624964Y720699D02*
X634348Y720699D01*
X630739Y724308D02*
X628573Y724308D01*
X652179Y712989D02*
X658134Y707034D01*
X652179Y701079D01*
X646224Y707034D01*
X652179Y712989D01*
X655788Y704688D02*
X648570Y704688D01*
X647487Y708297D02*
X656871Y708297D01*
X653262Y711906D02*
X651096Y711906D01*
X664581Y725391D02*
X670536Y719436D01*
X664581Y713481D01*
X658626Y719436D01*
X664581Y725391D01*
X668190Y717090D02*
X660972Y717090D01*
X659889Y720699D02*
X669273Y720699D01*
X665664Y724308D02*
X663498Y724308D01*
X687104Y712989D02*
X693059Y707034D01*
X687104Y701079D01*
X681149Y707034D01*
X687104Y712989D01*
X690713Y704688D02*
X683495Y704688D01*
X682412Y708297D02*
X691796Y708297D01*
X688187Y711906D02*
X686021Y711906D01*
X699506Y725391D02*
X705461Y719436D01*
X699506Y713481D01*
X693551Y719436D01*
X699506Y725391D01*
X703115Y717090D02*
X695897Y717090D01*
X694814Y720699D02*
X704198Y720699D01*
X700589Y724308D02*
X698423Y724308D01*
X722029Y712989D02*
X727984Y707034D01*
X722029Y701079D01*
X716074Y707034D01*
X722029Y712989D01*
X725638Y704688D02*
X718420Y704688D01*
X717337Y708297D02*
X726721Y708297D01*
X723112Y711906D02*
X720946Y711906D01*
X734431Y725391D02*
X740386Y719436D01*
X734431Y713481D01*
X728476Y719436D01*
X734431Y725391D01*
X738040Y717090D02*
X730822Y717090D01*
X729739Y720699D02*
X739123Y720699D01*
X735514Y724308D02*
X733348Y724308D01*
X448584Y672109D02*
X442629Y678064D01*
X448584Y672109D02*
X442629Y666154D01*
X436674Y672109D01*
X442629Y678064D01*
X446238Y669763D02*
X439020Y669763D01*
X437937Y673372D02*
X447321Y673372D01*
X443712Y676981D02*
X441546Y676981D01*
X455031Y690466D02*
X460986Y684511D01*
X455031Y678556D01*
X449076Y684511D01*
X455031Y690466D01*
X458640Y682165D02*
X451422Y682165D01*
X450339Y685774D02*
X459723Y685774D01*
X456114Y689383D02*
X453948Y689383D01*
X477554Y678064D02*
X483509Y672109D01*
X477554Y666154D01*
X471599Y672109D01*
X477554Y678064D01*
X481163Y669763D02*
X473945Y669763D01*
X472862Y673372D02*
X482246Y673372D01*
X478637Y676981D02*
X476471Y676981D01*
X489956Y690466D02*
X495911Y684511D01*
X489956Y678556D01*
X484001Y684511D01*
X489956Y690466D01*
X493565Y682165D02*
X486347Y682165D01*
X485264Y685774D02*
X494648Y685774D01*
X491039Y689383D02*
X488873Y689383D01*
X512479Y678064D02*
X518434Y672109D01*
X512479Y666154D01*
X506524Y672109D01*
X512479Y678064D01*
X516088Y669763D02*
X508870Y669763D01*
X507787Y673372D02*
X517171Y673372D01*
X513562Y676981D02*
X511396Y676981D01*
X524881Y690466D02*
X530836Y684511D01*
X524881Y678556D01*
X518926Y684511D01*
X524881Y690466D01*
X528490Y682165D02*
X521272Y682165D01*
X520189Y685774D02*
X529573Y685774D01*
X525964Y689383D02*
X523798Y689383D01*
X547404Y678064D02*
X553359Y672109D01*
X547404Y666154D01*
X541449Y672109D01*
X547404Y678064D01*
X551013Y669763D02*
X543795Y669763D01*
X542712Y673372D02*
X552096Y673372D01*
X548487Y676981D02*
X546321Y676981D01*
X559806Y690466D02*
X565761Y684511D01*
X559806Y678556D01*
X553851Y684511D01*
X559806Y690466D01*
X563415Y682165D02*
X556197Y682165D01*
X555114Y685774D02*
X564498Y685774D01*
X560889Y689383D02*
X558723Y689383D01*
X582329Y678064D02*
X588284Y672109D01*
X582329Y666154D01*
X576374Y672109D01*
X582329Y678064D01*
X585938Y669763D02*
X578720Y669763D01*
X577637Y673372D02*
X587021Y673372D01*
X583412Y676981D02*
X581246Y676981D01*
X594731Y690466D02*
X600686Y684511D01*
X594731Y678556D01*
X588776Y684511D01*
X594731Y690466D01*
X598340Y682165D02*
X591122Y682165D01*
X590039Y685774D02*
X599423Y685774D01*
X595814Y689383D02*
X593648Y689383D01*
X623209Y1195984D02*
X617254Y1201939D01*
X623209Y1195984D02*
X617254Y1190029D01*
X611299Y1195984D01*
X617254Y1201939D01*
X620863Y1193638D02*
X613645Y1193638D01*
X612562Y1197247D02*
X621946Y1197247D01*
X618337Y1200856D02*
X616171Y1200856D01*
X629656Y1214341D02*
X635611Y1208386D01*
X629656Y1202431D01*
X623701Y1208386D01*
X629656Y1214341D01*
X633265Y1206040D02*
X626047Y1206040D01*
X624964Y1209649D02*
X634348Y1209649D01*
X630739Y1213258D02*
X628573Y1213258D01*
X617254Y678064D02*
X623209Y672109D01*
X617254Y666154D01*
X611299Y672109D01*
X617254Y678064D01*
X620863Y669763D02*
X613645Y669763D01*
X612562Y673372D02*
X621946Y673372D01*
X618337Y676981D02*
X616171Y676981D01*
X629656Y690466D02*
X635611Y684511D01*
X629656Y678556D01*
X623701Y684511D01*
X629656Y690466D01*
X633265Y682165D02*
X626047Y682165D01*
X624964Y685774D02*
X634348Y685774D01*
X630739Y689383D02*
X628573Y689383D01*
X652179Y678064D02*
X658134Y672109D01*
X652179Y666154D01*
X646224Y672109D01*
X652179Y678064D01*
X655788Y669763D02*
X648570Y669763D01*
X647487Y673372D02*
X656871Y673372D01*
X653262Y676981D02*
X651096Y676981D01*
X664581Y690466D02*
X670536Y684511D01*
X664581Y678556D01*
X658626Y684511D01*
X664581Y690466D01*
X668190Y682165D02*
X660972Y682165D01*
X659889Y685774D02*
X669273Y685774D01*
X665664Y689383D02*
X663498Y689383D01*
X687104Y678064D02*
X693059Y672109D01*
X687104Y666154D01*
X681149Y672109D01*
X687104Y678064D01*
X690713Y669763D02*
X683495Y669763D01*
X682412Y673372D02*
X691796Y673372D01*
X688187Y676981D02*
X686021Y676981D01*
X699506Y690466D02*
X705461Y684511D01*
X699506Y678556D01*
X693551Y684511D01*
X699506Y690466D01*
X703115Y682165D02*
X695897Y682165D01*
X694814Y685774D02*
X704198Y685774D01*
X700589Y689383D02*
X698423Y689383D01*
X722029Y678064D02*
X727984Y672109D01*
X722029Y666154D01*
X716074Y672109D01*
X722029Y678064D01*
X725638Y669763D02*
X718420Y669763D01*
X717337Y673372D02*
X726721Y673372D01*
X723112Y676981D02*
X720946Y676981D01*
X734431Y690466D02*
X740386Y684511D01*
X734431Y678556D01*
X728476Y684511D01*
X734431Y690466D01*
X738040Y682165D02*
X730822Y682165D01*
X729739Y685774D02*
X739123Y685774D01*
X735514Y689383D02*
X733348Y689383D01*
X448584Y637184D02*
X442629Y643139D01*
X448584Y637184D02*
X442629Y631229D01*
X436674Y637184D01*
X442629Y643139D01*
X446238Y634838D02*
X439020Y634838D01*
X437937Y638447D02*
X447321Y638447D01*
X443712Y642056D02*
X441546Y642056D01*
X455031Y655541D02*
X460986Y649586D01*
X455031Y643631D01*
X449076Y649586D01*
X455031Y655541D01*
X458640Y647240D02*
X451422Y647240D01*
X450339Y650849D02*
X459723Y650849D01*
X456114Y654458D02*
X453948Y654458D01*
X477554Y643139D02*
X483509Y637184D01*
X477554Y631229D01*
X471599Y637184D01*
X477554Y643139D01*
X481163Y634838D02*
X473945Y634838D01*
X472862Y638447D02*
X482246Y638447D01*
X478637Y642056D02*
X476471Y642056D01*
X489956Y655541D02*
X495911Y649586D01*
X489956Y643631D01*
X484001Y649586D01*
X489956Y655541D01*
X493565Y647240D02*
X486347Y647240D01*
X485264Y650849D02*
X494648Y650849D01*
X491039Y654458D02*
X488873Y654458D01*
X512479Y643139D02*
X518434Y637184D01*
X512479Y631229D01*
X506524Y637184D01*
X512479Y643139D01*
X516088Y634838D02*
X508870Y634838D01*
X507787Y638447D02*
X517171Y638447D01*
X513562Y642056D02*
X511396Y642056D01*
X524881Y655541D02*
X530836Y649586D01*
X524881Y643631D01*
X518926Y649586D01*
X524881Y655541D01*
X528490Y647240D02*
X521272Y647240D01*
X520189Y650849D02*
X529573Y650849D01*
X525964Y654458D02*
X523798Y654458D01*
X547404Y643139D02*
X553359Y637184D01*
X547404Y631229D01*
X541449Y637184D01*
X547404Y643139D01*
X551013Y634838D02*
X543795Y634838D01*
X542712Y638447D02*
X552096Y638447D01*
X548487Y642056D02*
X546321Y642056D01*
X559806Y655541D02*
X565761Y649586D01*
X559806Y643631D01*
X553851Y649586D01*
X559806Y655541D01*
X563415Y647240D02*
X556197Y647240D01*
X555114Y650849D02*
X564498Y650849D01*
X560889Y654458D02*
X558723Y654458D01*
X582329Y643139D02*
X588284Y637184D01*
X582329Y631229D01*
X576374Y637184D01*
X582329Y643139D01*
X585938Y634838D02*
X578720Y634838D01*
X577637Y638447D02*
X587021Y638447D01*
X583412Y642056D02*
X581246Y642056D01*
X594731Y655541D02*
X600686Y649586D01*
X594731Y643631D01*
X588776Y649586D01*
X594731Y655541D01*
X598340Y647240D02*
X591122Y647240D01*
X590039Y650849D02*
X599423Y650849D01*
X595814Y654458D02*
X593648Y654458D01*
X617254Y643139D02*
X623209Y637184D01*
X617254Y631229D01*
X611299Y637184D01*
X617254Y643139D01*
X620863Y634838D02*
X613645Y634838D01*
X612562Y638447D02*
X621946Y638447D01*
X618337Y642056D02*
X616171Y642056D01*
X629656Y655541D02*
X635611Y649586D01*
X629656Y643631D01*
X623701Y649586D01*
X629656Y655541D01*
X633265Y647240D02*
X626047Y647240D01*
X624964Y650849D02*
X634348Y650849D01*
X630739Y654458D02*
X628573Y654458D01*
X658134Y1195984D02*
X652179Y1201939D01*
X658134Y1195984D02*
X652179Y1190029D01*
X646224Y1195984D01*
X652179Y1201939D01*
X655788Y1193638D02*
X648570Y1193638D01*
X647487Y1197247D02*
X656871Y1197247D01*
X653262Y1200856D02*
X651096Y1200856D01*
X664581Y1214341D02*
X670536Y1208386D01*
X664581Y1202431D01*
X658626Y1208386D01*
X664581Y1214341D01*
X668190Y1206040D02*
X660972Y1206040D01*
X659889Y1209649D02*
X669273Y1209649D01*
X665664Y1213258D02*
X663498Y1213258D01*
X652179Y643139D02*
X658134Y637184D01*
X652179Y631229D01*
X646224Y637184D01*
X652179Y643139D01*
X655788Y634838D02*
X648570Y634838D01*
X647487Y638447D02*
X656871Y638447D01*
X653262Y642056D02*
X651096Y642056D01*
X664581Y655541D02*
X670536Y649586D01*
X664581Y643631D01*
X658626Y649586D01*
X664581Y655541D01*
X668190Y647240D02*
X660972Y647240D01*
X659889Y650849D02*
X669273Y650849D01*
X665664Y654458D02*
X663498Y654458D01*
X687104Y643139D02*
X693059Y637184D01*
X687104Y631229D01*
X681149Y637184D01*
X687104Y643139D01*
X690713Y634838D02*
X683495Y634838D01*
X682412Y638447D02*
X691796Y638447D01*
X688187Y642056D02*
X686021Y642056D01*
X699506Y655541D02*
X705461Y649586D01*
X699506Y643631D01*
X693551Y649586D01*
X699506Y655541D01*
X703115Y647240D02*
X695897Y647240D01*
X694814Y650849D02*
X704198Y650849D01*
X700589Y654458D02*
X698423Y654458D01*
X722029Y643139D02*
X727984Y637184D01*
X722029Y631229D01*
X716074Y637184D01*
X722029Y643139D01*
X725638Y634838D02*
X718420Y634838D01*
X717337Y638447D02*
X726721Y638447D01*
X723112Y642056D02*
X720946Y642056D01*
X734431Y655541D02*
X740386Y649586D01*
X734431Y643631D01*
X728476Y649586D01*
X734431Y655541D01*
X738040Y647240D02*
X730822Y647240D01*
X729739Y650849D02*
X739123Y650849D01*
X735514Y654458D02*
X733348Y654458D01*
X693059Y1195984D02*
X687104Y1201939D01*
X693059Y1195984D02*
X687104Y1190029D01*
X681149Y1195984D01*
X687104Y1201939D01*
X690713Y1193638D02*
X683495Y1193638D01*
X682412Y1197247D02*
X691796Y1197247D01*
X688187Y1200856D02*
X686021Y1200856D01*
X699506Y1214341D02*
X705461Y1208386D01*
X699506Y1202431D01*
X693551Y1208386D01*
X699506Y1214341D01*
X703115Y1206040D02*
X695897Y1206040D01*
X694814Y1209649D02*
X704198Y1209649D01*
X700589Y1213258D02*
X698423Y1213258D01*
X722029Y1201939D02*
X727984Y1195984D01*
X722029Y1190029D01*
X716074Y1195984D01*
X722029Y1201939D01*
X725638Y1193638D02*
X718420Y1193638D01*
X717337Y1197247D02*
X726721Y1197247D01*
X723112Y1200856D02*
X720946Y1200856D01*
X734431Y1214341D02*
X740386Y1208386D01*
X734431Y1202431D01*
X728476Y1208386D01*
X734431Y1214341D01*
X738040Y1206040D02*
X730822Y1206040D01*
X729739Y1209649D02*
X739123Y1209649D01*
X735514Y1213258D02*
X733348Y1213258D01*
X448584Y1161059D02*
X442629Y1167014D01*
X448584Y1161059D02*
X442629Y1155104D01*
X436674Y1161059D01*
X442629Y1167014D01*
X446238Y1158713D02*
X439020Y1158713D01*
X437937Y1162322D02*
X447321Y1162322D01*
X443712Y1165931D02*
X441546Y1165931D01*
X455031Y1179416D02*
X460986Y1173461D01*
X455031Y1167506D01*
X449076Y1173461D01*
X455031Y1179416D01*
X458640Y1171115D02*
X451422Y1171115D01*
X450339Y1174724D02*
X459723Y1174724D01*
X456114Y1178333D02*
X453948Y1178333D01*
X483509Y1230909D02*
X477554Y1236864D01*
X483509Y1230909D02*
X477554Y1224954D01*
X471599Y1230909D01*
X477554Y1236864D01*
X481163Y1228563D02*
X473945Y1228563D01*
X472862Y1232172D02*
X482246Y1232172D01*
X478637Y1235781D02*
X476471Y1235781D01*
X489956Y1249266D02*
X495911Y1243311D01*
X489956Y1237356D01*
X484001Y1243311D01*
X489956Y1249266D01*
X493565Y1240965D02*
X486347Y1240965D01*
X485264Y1244574D02*
X494648Y1244574D01*
X491039Y1248183D02*
X488873Y1248183D01*
X477554Y1167014D02*
X483509Y1161059D01*
X477554Y1155104D01*
X471599Y1161059D01*
X477554Y1167014D01*
X481163Y1158713D02*
X473945Y1158713D01*
X472862Y1162322D02*
X482246Y1162322D01*
X478637Y1165931D02*
X476471Y1165931D01*
X489956Y1179416D02*
X495911Y1173461D01*
X489956Y1167506D01*
X484001Y1173461D01*
X489956Y1179416D01*
X493565Y1171115D02*
X486347Y1171115D01*
X485264Y1174724D02*
X494648Y1174724D01*
X491039Y1178333D02*
X488873Y1178333D01*
X512479Y1167014D02*
X518434Y1161059D01*
X512479Y1155104D01*
X506524Y1161059D01*
X512479Y1167014D01*
X516088Y1158713D02*
X508870Y1158713D01*
X507787Y1162322D02*
X517171Y1162322D01*
X513562Y1165931D02*
X511396Y1165931D01*
X524881Y1179416D02*
X530836Y1173461D01*
X524881Y1167506D01*
X518926Y1173461D01*
X524881Y1179416D01*
X528490Y1171115D02*
X521272Y1171115D01*
X520189Y1174724D02*
X529573Y1174724D01*
X525964Y1178333D02*
X523798Y1178333D01*
X547404Y1167014D02*
X553359Y1161059D01*
X547404Y1155104D01*
X541449Y1161059D01*
X547404Y1167014D01*
X551013Y1158713D02*
X543795Y1158713D01*
X542712Y1162322D02*
X552096Y1162322D01*
X548487Y1165931D02*
X546321Y1165931D01*
X559806Y1179416D02*
X565761Y1173461D01*
X559806Y1167506D01*
X553851Y1173461D01*
X559806Y1179416D01*
X563415Y1171115D02*
X556197Y1171115D01*
X555114Y1174724D02*
X564498Y1174724D01*
X560889Y1178333D02*
X558723Y1178333D01*
X582329Y1167014D02*
X588284Y1161059D01*
X582329Y1155104D01*
X576374Y1161059D01*
X582329Y1167014D01*
X585938Y1158713D02*
X578720Y1158713D01*
X577637Y1162322D02*
X587021Y1162322D01*
X583412Y1165931D02*
X581246Y1165931D01*
X594731Y1179416D02*
X600686Y1173461D01*
X594731Y1167506D01*
X588776Y1173461D01*
X594731Y1179416D01*
X598340Y1171115D02*
X591122Y1171115D01*
X590039Y1174724D02*
X599423Y1174724D01*
X595814Y1178333D02*
X593648Y1178333D01*
X617254Y1167014D02*
X623209Y1161059D01*
X617254Y1155104D01*
X611299Y1161059D01*
X617254Y1167014D01*
X620863Y1158713D02*
X613645Y1158713D01*
X612562Y1162322D02*
X621946Y1162322D01*
X618337Y1165931D02*
X616171Y1165931D01*
X629656Y1179416D02*
X635611Y1173461D01*
X629656Y1167506D01*
X623701Y1173461D01*
X629656Y1179416D01*
X633265Y1171115D02*
X626047Y1171115D01*
X624964Y1174724D02*
X634348Y1174724D01*
X630739Y1178333D02*
X628573Y1178333D01*
X652179Y1167014D02*
X658134Y1161059D01*
X652179Y1155104D01*
X646224Y1161059D01*
X652179Y1167014D01*
X655788Y1158713D02*
X648570Y1158713D01*
X647487Y1162322D02*
X656871Y1162322D01*
X653262Y1165931D02*
X651096Y1165931D01*
X664581Y1179416D02*
X670536Y1173461D01*
X664581Y1167506D01*
X658626Y1173461D01*
X664581Y1179416D01*
X668190Y1171115D02*
X660972Y1171115D01*
X659889Y1174724D02*
X669273Y1174724D01*
X665664Y1178333D02*
X663498Y1178333D01*
X687104Y1167014D02*
X693059Y1161059D01*
X687104Y1155104D01*
X681149Y1161059D01*
X687104Y1167014D01*
X690713Y1158713D02*
X683495Y1158713D01*
X682412Y1162322D02*
X691796Y1162322D01*
X688187Y1165931D02*
X686021Y1165931D01*
X699506Y1179416D02*
X705461Y1173461D01*
X699506Y1167506D01*
X693551Y1173461D01*
X699506Y1179416D01*
X703115Y1171115D02*
X695897Y1171115D01*
X694814Y1174724D02*
X704198Y1174724D01*
X700589Y1178333D02*
X698423Y1178333D01*
X722029Y1167014D02*
X727984Y1161059D01*
X722029Y1155104D01*
X716074Y1161059D01*
X722029Y1167014D01*
X725638Y1158713D02*
X718420Y1158713D01*
X717337Y1162322D02*
X726721Y1162322D01*
X723112Y1165931D02*
X720946Y1165931D01*
X734431Y1179416D02*
X740386Y1173461D01*
X734431Y1167506D01*
X728476Y1173461D01*
X734431Y1179416D01*
X738040Y1171115D02*
X730822Y1171115D01*
X729739Y1174724D02*
X739123Y1174724D01*
X735514Y1178333D02*
X733348Y1178333D01*
X448584Y1126134D02*
X442629Y1132089D01*
X448584Y1126134D02*
X442629Y1120179D01*
X436674Y1126134D01*
X442629Y1132089D01*
X446238Y1123788D02*
X439020Y1123788D01*
X437937Y1127397D02*
X447321Y1127397D01*
X443712Y1131006D02*
X441546Y1131006D01*
X455031Y1144491D02*
X460986Y1138536D01*
X455031Y1132581D01*
X449076Y1138536D01*
X455031Y1144491D01*
X458640Y1136190D02*
X451422Y1136190D01*
X450339Y1139799D02*
X459723Y1139799D01*
X456114Y1143408D02*
X453948Y1143408D01*
X477554Y1132089D02*
X483509Y1126134D01*
X477554Y1120179D01*
X471599Y1126134D01*
X477554Y1132089D01*
X481163Y1123788D02*
X473945Y1123788D01*
X472862Y1127397D02*
X482246Y1127397D01*
X478637Y1131006D02*
X476471Y1131006D01*
X489956Y1144491D02*
X495911Y1138536D01*
X489956Y1132581D01*
X484001Y1138536D01*
X489956Y1144491D01*
X493565Y1136190D02*
X486347Y1136190D01*
X485264Y1139799D02*
X494648Y1139799D01*
X491039Y1143408D02*
X488873Y1143408D01*
X518434Y1230909D02*
X512479Y1236864D01*
X518434Y1230909D02*
X512479Y1224954D01*
X506524Y1230909D01*
X512479Y1236864D01*
X516088Y1228563D02*
X508870Y1228563D01*
X507787Y1232172D02*
X517171Y1232172D01*
X513562Y1235781D02*
X511396Y1235781D01*
X524881Y1249266D02*
X530836Y1243311D01*
X524881Y1237356D01*
X518926Y1243311D01*
X524881Y1249266D01*
X528490Y1240965D02*
X521272Y1240965D01*
X520189Y1244574D02*
X529573Y1244574D01*
X525964Y1248183D02*
X523798Y1248183D01*
X512479Y1132089D02*
X518434Y1126134D01*
X512479Y1120179D01*
X506524Y1126134D01*
X512479Y1132089D01*
X516088Y1123788D02*
X508870Y1123788D01*
X507787Y1127397D02*
X517171Y1127397D01*
X513562Y1131006D02*
X511396Y1131006D01*
X524881Y1144491D02*
X530836Y1138536D01*
X524881Y1132581D01*
X518926Y1138536D01*
X524881Y1144491D01*
X528490Y1136190D02*
X521272Y1136190D01*
X520189Y1139799D02*
X529573Y1139799D01*
X525964Y1143408D02*
X523798Y1143408D01*
X547404Y1132089D02*
X553359Y1126134D01*
X547404Y1120179D01*
X541449Y1126134D01*
X547404Y1132089D01*
X551013Y1123788D02*
X543795Y1123788D01*
X542712Y1127397D02*
X552096Y1127397D01*
X548487Y1131006D02*
X546321Y1131006D01*
X559806Y1144491D02*
X565761Y1138536D01*
X559806Y1132581D01*
X553851Y1138536D01*
X559806Y1144491D01*
X563415Y1136190D02*
X556197Y1136190D01*
X555114Y1139799D02*
X564498Y1139799D01*
X560889Y1143408D02*
X558723Y1143408D01*
X582329Y1132089D02*
X588284Y1126134D01*
X582329Y1120179D01*
X576374Y1126134D01*
X582329Y1132089D01*
X585938Y1123788D02*
X578720Y1123788D01*
X577637Y1127397D02*
X587021Y1127397D01*
X583412Y1131006D02*
X581246Y1131006D01*
X594731Y1144491D02*
X600686Y1138536D01*
X594731Y1132581D01*
X588776Y1138536D01*
X594731Y1144491D01*
X598340Y1136190D02*
X591122Y1136190D01*
X590039Y1139799D02*
X599423Y1139799D01*
X595814Y1143408D02*
X593648Y1143408D01*
X617254Y1132089D02*
X623209Y1126134D01*
X617254Y1120179D01*
X611299Y1126134D01*
X617254Y1132089D01*
X620863Y1123788D02*
X613645Y1123788D01*
X612562Y1127397D02*
X621946Y1127397D01*
X618337Y1131006D02*
X616171Y1131006D01*
X629656Y1144491D02*
X635611Y1138536D01*
X629656Y1132581D01*
X623701Y1138536D01*
X629656Y1144491D01*
X633265Y1136190D02*
X626047Y1136190D01*
X624964Y1139799D02*
X634348Y1139799D01*
X630739Y1143408D02*
X628573Y1143408D01*
X652179Y1132089D02*
X658134Y1126134D01*
X652179Y1120179D01*
X646224Y1126134D01*
X652179Y1132089D01*
X655788Y1123788D02*
X648570Y1123788D01*
X647487Y1127397D02*
X656871Y1127397D01*
X653262Y1131006D02*
X651096Y1131006D01*
X664581Y1144491D02*
X670536Y1138536D01*
X664581Y1132581D01*
X658626Y1138536D01*
X664581Y1144491D01*
X668190Y1136190D02*
X660972Y1136190D01*
X659889Y1139799D02*
X669273Y1139799D01*
X665664Y1143408D02*
X663498Y1143408D01*
X687104Y1132089D02*
X693059Y1126134D01*
X687104Y1120179D01*
X681149Y1126134D01*
X687104Y1132089D01*
X690713Y1123788D02*
X683495Y1123788D01*
X682412Y1127397D02*
X691796Y1127397D01*
X688187Y1131006D02*
X686021Y1131006D01*
X699506Y1144491D02*
X705461Y1138536D01*
X699506Y1132581D01*
X693551Y1138536D01*
X699506Y1144491D01*
X703115Y1136190D02*
X695897Y1136190D01*
X694814Y1139799D02*
X704198Y1139799D01*
X700589Y1143408D02*
X698423Y1143408D01*
X722029Y1132089D02*
X727984Y1126134D01*
X722029Y1120179D01*
X716074Y1126134D01*
X722029Y1132089D01*
X725638Y1123788D02*
X718420Y1123788D01*
X717337Y1127397D02*
X726721Y1127397D01*
X723112Y1131006D02*
X720946Y1131006D01*
X734431Y1144491D02*
X740386Y1138536D01*
X734431Y1132581D01*
X728476Y1138536D01*
X734431Y1144491D01*
X738040Y1136190D02*
X730822Y1136190D01*
X729739Y1139799D02*
X739123Y1139799D01*
X735514Y1143408D02*
X733348Y1143408D01*
X448584Y1091209D02*
X442629Y1097164D01*
X448584Y1091209D02*
X442629Y1085254D01*
X436674Y1091209D01*
X442629Y1097164D01*
X446238Y1088863D02*
X439020Y1088863D01*
X437937Y1092472D02*
X447321Y1092472D01*
X443712Y1096081D02*
X441546Y1096081D01*
X455031Y1109566D02*
X460986Y1103611D01*
X455031Y1097656D01*
X449076Y1103611D01*
X455031Y1109566D01*
X458640Y1101265D02*
X451422Y1101265D01*
X450339Y1104874D02*
X459723Y1104874D01*
X456114Y1108483D02*
X453948Y1108483D01*
X477554Y1097164D02*
X483509Y1091209D01*
X477554Y1085254D01*
X471599Y1091209D01*
X477554Y1097164D01*
X481163Y1088863D02*
X473945Y1088863D01*
X472862Y1092472D02*
X482246Y1092472D01*
X478637Y1096081D02*
X476471Y1096081D01*
X489956Y1109566D02*
X495911Y1103611D01*
X489956Y1097656D01*
X484001Y1103611D01*
X489956Y1109566D01*
X493565Y1101265D02*
X486347Y1101265D01*
X485264Y1104874D02*
X494648Y1104874D01*
X491039Y1108483D02*
X488873Y1108483D01*
X512479Y1097164D02*
X518434Y1091209D01*
X512479Y1085254D01*
X506524Y1091209D01*
X512479Y1097164D01*
X516088Y1088863D02*
X508870Y1088863D01*
X507787Y1092472D02*
X517171Y1092472D01*
X513562Y1096081D02*
X511396Y1096081D01*
X524881Y1109566D02*
X530836Y1103611D01*
X524881Y1097656D01*
X518926Y1103611D01*
X524881Y1109566D01*
X528490Y1101265D02*
X521272Y1101265D01*
X520189Y1104874D02*
X529573Y1104874D01*
X525964Y1108483D02*
X523798Y1108483D01*
X553359Y1230909D02*
X547404Y1236864D01*
X553359Y1230909D02*
X547404Y1224954D01*
X541449Y1230909D01*
X547404Y1236864D01*
X551013Y1228563D02*
X543795Y1228563D01*
X542712Y1232172D02*
X552096Y1232172D01*
X548487Y1235781D02*
X546321Y1235781D01*
X559806Y1249266D02*
X565761Y1243311D01*
X559806Y1237356D01*
X553851Y1243311D01*
X559806Y1249266D01*
X563415Y1240965D02*
X556197Y1240965D01*
X555114Y1244574D02*
X564498Y1244574D01*
X560889Y1248183D02*
X558723Y1248183D01*
X547404Y1097164D02*
X553359Y1091209D01*
X547404Y1085254D01*
X541449Y1091209D01*
X547404Y1097164D01*
X551013Y1088863D02*
X543795Y1088863D01*
X542712Y1092472D02*
X552096Y1092472D01*
X548487Y1096081D02*
X546321Y1096081D01*
X559806Y1109566D02*
X565761Y1103611D01*
X559806Y1097656D01*
X553851Y1103611D01*
X559806Y1109566D01*
X563415Y1101265D02*
X556197Y1101265D01*
X555114Y1104874D02*
X564498Y1104874D01*
X560889Y1108483D02*
X558723Y1108483D01*
X582329Y1097164D02*
X588284Y1091209D01*
X582329Y1085254D01*
X576374Y1091209D01*
X582329Y1097164D01*
X585938Y1088863D02*
X578720Y1088863D01*
X577637Y1092472D02*
X587021Y1092472D01*
X583412Y1096081D02*
X581246Y1096081D01*
X594731Y1109566D02*
X600686Y1103611D01*
X594731Y1097656D01*
X588776Y1103611D01*
X594731Y1109566D01*
X598340Y1101265D02*
X591122Y1101265D01*
X590039Y1104874D02*
X599423Y1104874D01*
X595814Y1108483D02*
X593648Y1108483D01*
X617254Y1097164D02*
X623209Y1091209D01*
X617254Y1085254D01*
X611299Y1091209D01*
X617254Y1097164D01*
X620863Y1088863D02*
X613645Y1088863D01*
X612562Y1092472D02*
X621946Y1092472D01*
X618337Y1096081D02*
X616171Y1096081D01*
X629656Y1109566D02*
X635611Y1103611D01*
X629656Y1097656D01*
X623701Y1103611D01*
X629656Y1109566D01*
X633265Y1101265D02*
X626047Y1101265D01*
X624964Y1104874D02*
X634348Y1104874D01*
X630739Y1108483D02*
X628573Y1108483D01*
X652179Y1097164D02*
X658134Y1091209D01*
X652179Y1085254D01*
X646224Y1091209D01*
X652179Y1097164D01*
X655788Y1088863D02*
X648570Y1088863D01*
X647487Y1092472D02*
X656871Y1092472D01*
X653262Y1096081D02*
X651096Y1096081D01*
X664581Y1109566D02*
X670536Y1103611D01*
X664581Y1097656D01*
X658626Y1103611D01*
X664581Y1109566D01*
X668190Y1101265D02*
X660972Y1101265D01*
X659889Y1104874D02*
X669273Y1104874D01*
X665664Y1108483D02*
X663498Y1108483D01*
X687104Y1097164D02*
X693059Y1091209D01*
X687104Y1085254D01*
X681149Y1091209D01*
X687104Y1097164D01*
X690713Y1088863D02*
X683495Y1088863D01*
X682412Y1092472D02*
X691796Y1092472D01*
X688187Y1096081D02*
X686021Y1096081D01*
X699506Y1109566D02*
X705461Y1103611D01*
X699506Y1097656D01*
X693551Y1103611D01*
X699506Y1109566D01*
X703115Y1101265D02*
X695897Y1101265D01*
X694814Y1104874D02*
X704198Y1104874D01*
X700589Y1108483D02*
X698423Y1108483D01*
X722029Y1097164D02*
X727984Y1091209D01*
X722029Y1085254D01*
X716074Y1091209D01*
X722029Y1097164D01*
X725638Y1088863D02*
X718420Y1088863D01*
X717337Y1092472D02*
X726721Y1092472D01*
X723112Y1096081D02*
X720946Y1096081D01*
X734431Y1109566D02*
X740386Y1103611D01*
X734431Y1097656D01*
X728476Y1103611D01*
X734431Y1109566D01*
X738040Y1101265D02*
X730822Y1101265D01*
X729739Y1104874D02*
X739123Y1104874D01*
X735514Y1108483D02*
X733348Y1108483D01*
X448584Y1056284D02*
X442629Y1062239D01*
X448584Y1056284D02*
X442629Y1050329D01*
X436674Y1056284D01*
X442629Y1062239D01*
X446238Y1053938D02*
X439020Y1053938D01*
X437937Y1057547D02*
X447321Y1057547D01*
X443712Y1061156D02*
X441546Y1061156D01*
X455031Y1074641D02*
X460986Y1068686D01*
X455031Y1062731D01*
X449076Y1068686D01*
X455031Y1074641D01*
X458640Y1066340D02*
X451422Y1066340D01*
X450339Y1069949D02*
X459723Y1069949D01*
X456114Y1073558D02*
X453948Y1073558D01*
X477554Y1062239D02*
X483509Y1056284D01*
X477554Y1050329D01*
X471599Y1056284D01*
X477554Y1062239D01*
X481163Y1053938D02*
X473945Y1053938D01*
X472862Y1057547D02*
X482246Y1057547D01*
X478637Y1061156D02*
X476471Y1061156D01*
X489956Y1074641D02*
X495911Y1068686D01*
X489956Y1062731D01*
X484001Y1068686D01*
X489956Y1074641D01*
X493565Y1066340D02*
X486347Y1066340D01*
X485264Y1069949D02*
X494648Y1069949D01*
X491039Y1073558D02*
X488873Y1073558D01*
X512479Y1062239D02*
X518434Y1056284D01*
X512479Y1050329D01*
X506524Y1056284D01*
X512479Y1062239D01*
X516088Y1053938D02*
X508870Y1053938D01*
X507787Y1057547D02*
X517171Y1057547D01*
X513562Y1061156D02*
X511396Y1061156D01*
X524881Y1074641D02*
X530836Y1068686D01*
X524881Y1062731D01*
X518926Y1068686D01*
X524881Y1074641D01*
X528490Y1066340D02*
X521272Y1066340D01*
X520189Y1069949D02*
X529573Y1069949D01*
X525964Y1073558D02*
X523798Y1073558D01*
X547404Y1062239D02*
X553359Y1056284D01*
X547404Y1050329D01*
X541449Y1056284D01*
X547404Y1062239D01*
X551013Y1053938D02*
X543795Y1053938D01*
X542712Y1057547D02*
X552096Y1057547D01*
X548487Y1061156D02*
X546321Y1061156D01*
X559806Y1074641D02*
X565761Y1068686D01*
X559806Y1062731D01*
X553851Y1068686D01*
X559806Y1074641D01*
X563415Y1066340D02*
X556197Y1066340D01*
X555114Y1069949D02*
X564498Y1069949D01*
X560889Y1073558D02*
X558723Y1073558D01*
X588284Y1230909D02*
X582329Y1236864D01*
X588284Y1230909D02*
X582329Y1224954D01*
X576374Y1230909D01*
X582329Y1236864D01*
X585938Y1228563D02*
X578720Y1228563D01*
X577637Y1232172D02*
X587021Y1232172D01*
X583412Y1235781D02*
X581246Y1235781D01*
X594731Y1249266D02*
X600686Y1243311D01*
X594731Y1237356D01*
X588776Y1243311D01*
X594731Y1249266D01*
X598340Y1240965D02*
X591122Y1240965D01*
X590039Y1244574D02*
X599423Y1244574D01*
X595814Y1248183D02*
X593648Y1248183D01*
X582329Y1062239D02*
X588284Y1056284D01*
X582329Y1050329D01*
X576374Y1056284D01*
X582329Y1062239D01*
X585938Y1053938D02*
X578720Y1053938D01*
X577637Y1057547D02*
X587021Y1057547D01*
X583412Y1061156D02*
X581246Y1061156D01*
X594731Y1074641D02*
X600686Y1068686D01*
X594731Y1062731D01*
X588776Y1068686D01*
X594731Y1074641D01*
X598340Y1066340D02*
X591122Y1066340D01*
X590039Y1069949D02*
X599423Y1069949D01*
X595814Y1073558D02*
X593648Y1073558D01*
X617254Y1062239D02*
X623209Y1056284D01*
X617254Y1050329D01*
X611299Y1056284D01*
X617254Y1062239D01*
X620863Y1053938D02*
X613645Y1053938D01*
X612562Y1057547D02*
X621946Y1057547D01*
X618337Y1061156D02*
X616171Y1061156D01*
X629656Y1074641D02*
X635611Y1068686D01*
X629656Y1062731D01*
X623701Y1068686D01*
X629656Y1074641D01*
X633265Y1066340D02*
X626047Y1066340D01*
X624964Y1069949D02*
X634348Y1069949D01*
X630739Y1073558D02*
X628573Y1073558D01*
X652179Y1062239D02*
X658134Y1056284D01*
X652179Y1050329D01*
X646224Y1056284D01*
X652179Y1062239D01*
X655788Y1053938D02*
X648570Y1053938D01*
X647487Y1057547D02*
X656871Y1057547D01*
X653262Y1061156D02*
X651096Y1061156D01*
X664581Y1074641D02*
X670536Y1068686D01*
X664581Y1062731D01*
X658626Y1068686D01*
X664581Y1074641D01*
X668190Y1066340D02*
X660972Y1066340D01*
X659889Y1069949D02*
X669273Y1069949D01*
X665664Y1073558D02*
X663498Y1073558D01*
X687104Y1062239D02*
X693059Y1056284D01*
X687104Y1050329D01*
X681149Y1056284D01*
X687104Y1062239D01*
X690713Y1053938D02*
X683495Y1053938D01*
X682412Y1057547D02*
X691796Y1057547D01*
X688187Y1061156D02*
X686021Y1061156D01*
X699506Y1074641D02*
X705461Y1068686D01*
X699506Y1062731D01*
X693551Y1068686D01*
X699506Y1074641D01*
X703115Y1066340D02*
X695897Y1066340D01*
X694814Y1069949D02*
X704198Y1069949D01*
X700589Y1073558D02*
X698423Y1073558D01*
X722029Y1062239D02*
X727984Y1056284D01*
X722029Y1050329D01*
X716074Y1056284D01*
X722029Y1062239D01*
X725638Y1053938D02*
X718420Y1053938D01*
X717337Y1057547D02*
X726721Y1057547D01*
X723112Y1061156D02*
X720946Y1061156D01*
X734431Y1074641D02*
X740386Y1068686D01*
X734431Y1062731D01*
X728476Y1068686D01*
X734431Y1074641D01*
X738040Y1066340D02*
X730822Y1066340D01*
X729739Y1069949D02*
X739123Y1069949D01*
X735514Y1073558D02*
X733348Y1073558D01*
X448584Y1021359D02*
X442629Y1027314D01*
X448584Y1021359D02*
X442629Y1015404D01*
X436674Y1021359D01*
X442629Y1027314D01*
X446238Y1019013D02*
X439020Y1019013D01*
X437937Y1022622D02*
X447321Y1022622D01*
X443712Y1026231D02*
X441546Y1026231D01*
X455031Y1039716D02*
X460986Y1033761D01*
X455031Y1027806D01*
X449076Y1033761D01*
X455031Y1039716D01*
X458640Y1031415D02*
X451422Y1031415D01*
X450339Y1035024D02*
X459723Y1035024D01*
X456114Y1038633D02*
X453948Y1038633D01*
X477554Y1027314D02*
X483509Y1021359D01*
X477554Y1015404D01*
X471599Y1021359D01*
X477554Y1027314D01*
X481163Y1019013D02*
X473945Y1019013D01*
X472862Y1022622D02*
X482246Y1022622D01*
X478637Y1026231D02*
X476471Y1026231D01*
X489956Y1039716D02*
X495911Y1033761D01*
X489956Y1027806D01*
X484001Y1033761D01*
X489956Y1039716D01*
X493565Y1031415D02*
X486347Y1031415D01*
X485264Y1035024D02*
X494648Y1035024D01*
X491039Y1038633D02*
X488873Y1038633D01*
X512479Y1027314D02*
X518434Y1021359D01*
X512479Y1015404D01*
X506524Y1021359D01*
X512479Y1027314D01*
X516088Y1019013D02*
X508870Y1019013D01*
X507787Y1022622D02*
X517171Y1022622D01*
X513562Y1026231D02*
X511396Y1026231D01*
X524881Y1039716D02*
X530836Y1033761D01*
X524881Y1027806D01*
X518926Y1033761D01*
X524881Y1039716D01*
X528490Y1031415D02*
X521272Y1031415D01*
X520189Y1035024D02*
X529573Y1035024D01*
X525964Y1038633D02*
X523798Y1038633D01*
X547404Y1027314D02*
X553359Y1021359D01*
X547404Y1015404D01*
X541449Y1021359D01*
X547404Y1027314D01*
X551013Y1019013D02*
X543795Y1019013D01*
X542712Y1022622D02*
X552096Y1022622D01*
X548487Y1026231D02*
X546321Y1026231D01*
X559806Y1039716D02*
X565761Y1033761D01*
X559806Y1027806D01*
X553851Y1033761D01*
X559806Y1039716D01*
X563415Y1031415D02*
X556197Y1031415D01*
X555114Y1035024D02*
X564498Y1035024D01*
X560889Y1038633D02*
X558723Y1038633D01*
X582329Y1027314D02*
X588284Y1021359D01*
X582329Y1015404D01*
X576374Y1021359D01*
X582329Y1027314D01*
X585938Y1019013D02*
X578720Y1019013D01*
X577637Y1022622D02*
X587021Y1022622D01*
X583412Y1026231D02*
X581246Y1026231D01*
X594731Y1039716D02*
X600686Y1033761D01*
X594731Y1027806D01*
X588776Y1033761D01*
X594731Y1039716D01*
X598340Y1031415D02*
X591122Y1031415D01*
X590039Y1035024D02*
X599423Y1035024D01*
X595814Y1038633D02*
X593648Y1038633D01*
X623209Y1230909D02*
X617254Y1236864D01*
X623209Y1230909D02*
X617254Y1224954D01*
X611299Y1230909D01*
X617254Y1236864D01*
X620863Y1228563D02*
X613645Y1228563D01*
X612562Y1232172D02*
X621946Y1232172D01*
X618337Y1235781D02*
X616171Y1235781D01*
X629656Y1249266D02*
X635611Y1243311D01*
X629656Y1237356D01*
X623701Y1243311D01*
X629656Y1249266D01*
X633265Y1240965D02*
X626047Y1240965D01*
X624964Y1244574D02*
X634348Y1244574D01*
X630739Y1248183D02*
X628573Y1248183D01*
X617254Y1027314D02*
X623209Y1021359D01*
X617254Y1015404D01*
X611299Y1021359D01*
X617254Y1027314D01*
X620863Y1019013D02*
X613645Y1019013D01*
X612562Y1022622D02*
X621946Y1022622D01*
X618337Y1026231D02*
X616171Y1026231D01*
X629656Y1039716D02*
X635611Y1033761D01*
X629656Y1027806D01*
X623701Y1033761D01*
X629656Y1039716D01*
X633265Y1031415D02*
X626047Y1031415D01*
X624964Y1035024D02*
X634348Y1035024D01*
X630739Y1038633D02*
X628573Y1038633D01*
X652179Y1027314D02*
X658134Y1021359D01*
X652179Y1015404D01*
X646224Y1021359D01*
X652179Y1027314D01*
X655788Y1019013D02*
X648570Y1019013D01*
X647487Y1022622D02*
X656871Y1022622D01*
X653262Y1026231D02*
X651096Y1026231D01*
X664581Y1039716D02*
X670536Y1033761D01*
X664581Y1027806D01*
X658626Y1033761D01*
X664581Y1039716D01*
X668190Y1031415D02*
X660972Y1031415D01*
X659889Y1035024D02*
X669273Y1035024D01*
X665664Y1038633D02*
X663498Y1038633D01*
X687104Y1027314D02*
X693059Y1021359D01*
X687104Y1015404D01*
X681149Y1021359D01*
X687104Y1027314D01*
X690713Y1019013D02*
X683495Y1019013D01*
X682412Y1022622D02*
X691796Y1022622D01*
X688187Y1026231D02*
X686021Y1026231D01*
X699506Y1039716D02*
X705461Y1033761D01*
X699506Y1027806D01*
X693551Y1033761D01*
X699506Y1039716D01*
X703115Y1031415D02*
X695897Y1031415D01*
X694814Y1035024D02*
X704198Y1035024D01*
X700589Y1038633D02*
X698423Y1038633D01*
X722029Y1027314D02*
X727984Y1021359D01*
X722029Y1015404D01*
X716074Y1021359D01*
X722029Y1027314D01*
X725638Y1019013D02*
X718420Y1019013D01*
X717337Y1022622D02*
X726721Y1022622D01*
X723112Y1026231D02*
X720946Y1026231D01*
X734431Y1039716D02*
X740386Y1033761D01*
X734431Y1027806D01*
X728476Y1033761D01*
X734431Y1039716D01*
X738040Y1031415D02*
X730822Y1031415D01*
X729739Y1035024D02*
X739123Y1035024D01*
X735514Y1038633D02*
X733348Y1038633D01*
X448584Y986434D02*
X442629Y992389D01*
X448584Y986434D02*
X442629Y980479D01*
X436674Y986434D01*
X442629Y992389D01*
X446238Y984088D02*
X439020Y984088D01*
X437937Y987697D02*
X447321Y987697D01*
X443712Y991306D02*
X441546Y991306D01*
X455031Y1004791D02*
X460986Y998836D01*
X455031Y992881D01*
X449076Y998836D01*
X455031Y1004791D01*
X458640Y996490D02*
X451422Y996490D01*
X450339Y1000099D02*
X459723Y1000099D01*
X456114Y1003708D02*
X453948Y1003708D01*
X477554Y992389D02*
X483509Y986434D01*
X477554Y980479D01*
X471599Y986434D01*
X477554Y992389D01*
X481163Y984088D02*
X473945Y984088D01*
X472862Y987697D02*
X482246Y987697D01*
X478637Y991306D02*
X476471Y991306D01*
X489956Y1004791D02*
X495911Y998836D01*
X489956Y992881D01*
X484001Y998836D01*
X489956Y1004791D01*
X493565Y996490D02*
X486347Y996490D01*
X485264Y1000099D02*
X494648Y1000099D01*
X491039Y1003708D02*
X488873Y1003708D01*
X512479Y992389D02*
X518434Y986434D01*
X512479Y980479D01*
X506524Y986434D01*
X512479Y992389D01*
X516088Y984088D02*
X508870Y984088D01*
X507787Y987697D02*
X517171Y987697D01*
X513562Y991306D02*
X511396Y991306D01*
X524881Y1004791D02*
X530836Y998836D01*
X524881Y992881D01*
X518926Y998836D01*
X524881Y1004791D01*
X528490Y996490D02*
X521272Y996490D01*
X520189Y1000099D02*
X529573Y1000099D01*
X525964Y1003708D02*
X523798Y1003708D01*
X547404Y992389D02*
X553359Y986434D01*
X547404Y980479D01*
X541449Y986434D01*
X547404Y992389D01*
X551013Y984088D02*
X543795Y984088D01*
X542712Y987697D02*
X552096Y987697D01*
X548487Y991306D02*
X546321Y991306D01*
X559806Y1004791D02*
X565761Y998836D01*
X559806Y992881D01*
X553851Y998836D01*
X559806Y1004791D01*
X563415Y996490D02*
X556197Y996490D01*
X555114Y1000099D02*
X564498Y1000099D01*
X560889Y1003708D02*
X558723Y1003708D01*
X582329Y992389D02*
X588284Y986434D01*
X582329Y980479D01*
X576374Y986434D01*
X582329Y992389D01*
X585938Y984088D02*
X578720Y984088D01*
X577637Y987697D02*
X587021Y987697D01*
X583412Y991306D02*
X581246Y991306D01*
X594731Y1004791D02*
X600686Y998836D01*
X594731Y992881D01*
X588776Y998836D01*
X594731Y1004791D01*
X598340Y996490D02*
X591122Y996490D01*
X590039Y1000099D02*
X599423Y1000099D01*
X595814Y1003708D02*
X593648Y1003708D01*
X617254Y992389D02*
X623209Y986434D01*
X617254Y980479D01*
X611299Y986434D01*
X617254Y992389D01*
X620863Y984088D02*
X613645Y984088D01*
X612562Y987697D02*
X621946Y987697D01*
X618337Y991306D02*
X616171Y991306D01*
X629656Y1004791D02*
X635611Y998836D01*
X629656Y992881D01*
X623701Y998836D01*
X629656Y1004791D01*
X633265Y996490D02*
X626047Y996490D01*
X624964Y1000099D02*
X634348Y1000099D01*
X630739Y1003708D02*
X628573Y1003708D01*
X658134Y1230909D02*
X652179Y1236864D01*
X658134Y1230909D02*
X652179Y1224954D01*
X646224Y1230909D01*
X652179Y1236864D01*
X655788Y1228563D02*
X648570Y1228563D01*
X647487Y1232172D02*
X656871Y1232172D01*
X653262Y1235781D02*
X651096Y1235781D01*
X664581Y1249266D02*
X670536Y1243311D01*
X664581Y1237356D01*
X658626Y1243311D01*
X664581Y1249266D01*
X668190Y1240965D02*
X660972Y1240965D01*
X659889Y1244574D02*
X669273Y1244574D01*
X665664Y1248183D02*
X663498Y1248183D01*
X652179Y992389D02*
X658134Y986434D01*
X652179Y980479D01*
X646224Y986434D01*
X652179Y992389D01*
X655788Y984088D02*
X648570Y984088D01*
X647487Y987697D02*
X656871Y987697D01*
X653262Y991306D02*
X651096Y991306D01*
X664581Y1004791D02*
X670536Y998836D01*
X664581Y992881D01*
X658626Y998836D01*
X664581Y1004791D01*
X668190Y996490D02*
X660972Y996490D01*
X659889Y1000099D02*
X669273Y1000099D01*
X665664Y1003708D02*
X663498Y1003708D01*
X687104Y992389D02*
X693059Y986434D01*
X687104Y980479D01*
X681149Y986434D01*
X687104Y992389D01*
X690713Y984088D02*
X683495Y984088D01*
X682412Y987697D02*
X691796Y987697D01*
X688187Y991306D02*
X686021Y991306D01*
X699506Y1004791D02*
X705461Y998836D01*
X699506Y992881D01*
X693551Y998836D01*
X699506Y1004791D01*
X703115Y996490D02*
X695897Y996490D01*
X694814Y1000099D02*
X704198Y1000099D01*
X700589Y1003708D02*
X698423Y1003708D01*
X722029Y992389D02*
X727984Y986434D01*
X722029Y980479D01*
X716074Y986434D01*
X722029Y992389D01*
X725638Y984088D02*
X718420Y984088D01*
X717337Y987697D02*
X726721Y987697D01*
X723112Y991306D02*
X720946Y991306D01*
X734431Y1004791D02*
X740386Y998836D01*
X734431Y992881D01*
X728476Y998836D01*
X734431Y1004791D01*
X738040Y996490D02*
X730822Y996490D01*
X729739Y1000099D02*
X739123Y1000099D01*
X735514Y1003708D02*
X733348Y1003708D01*
X448584Y951509D02*
X442629Y957464D01*
X448584Y951509D02*
X442629Y945554D01*
X436674Y951509D01*
X442629Y957464D01*
X446238Y949163D02*
X439020Y949163D01*
X437937Y952772D02*
X447321Y952772D01*
X443712Y956381D02*
X441546Y956381D01*
X455031Y969866D02*
X460986Y963911D01*
X455031Y957956D01*
X449076Y963911D01*
X455031Y969866D01*
X458640Y961565D02*
X451422Y961565D01*
X450339Y965174D02*
X459723Y965174D01*
X456114Y968783D02*
X453948Y968783D01*
X477554Y957464D02*
X483509Y951509D01*
X477554Y945554D01*
X471599Y951509D01*
X477554Y957464D01*
X481163Y949163D02*
X473945Y949163D01*
X472862Y952772D02*
X482246Y952772D01*
X478637Y956381D02*
X476471Y956381D01*
X489956Y969866D02*
X495911Y963911D01*
X489956Y957956D01*
X484001Y963911D01*
X489956Y969866D01*
X493565Y961565D02*
X486347Y961565D01*
X485264Y965174D02*
X494648Y965174D01*
X491039Y968783D02*
X488873Y968783D01*
X512479Y957464D02*
X518434Y951509D01*
X512479Y945554D01*
X506524Y951509D01*
X512479Y957464D01*
X516088Y949163D02*
X508870Y949163D01*
X507787Y952772D02*
X517171Y952772D01*
X513562Y956381D02*
X511396Y956381D01*
X524881Y969866D02*
X530836Y963911D01*
X524881Y957956D01*
X518926Y963911D01*
X524881Y969866D01*
X528490Y961565D02*
X521272Y961565D01*
X520189Y965174D02*
X529573Y965174D01*
X525964Y968783D02*
X523798Y968783D01*
X547404Y957464D02*
X553359Y951509D01*
X547404Y945554D01*
X541449Y951509D01*
X547404Y957464D01*
X551013Y949163D02*
X543795Y949163D01*
X542712Y952772D02*
X552096Y952772D01*
X548487Y956381D02*
X546321Y956381D01*
X559806Y969866D02*
X565761Y963911D01*
X559806Y957956D01*
X553851Y963911D01*
X559806Y969866D01*
X563415Y961565D02*
X556197Y961565D01*
X555114Y965174D02*
X564498Y965174D01*
X560889Y968783D02*
X558723Y968783D01*
X582329Y957464D02*
X588284Y951509D01*
X582329Y945554D01*
X576374Y951509D01*
X582329Y957464D01*
X585938Y949163D02*
X578720Y949163D01*
X577637Y952772D02*
X587021Y952772D01*
X583412Y956381D02*
X581246Y956381D01*
X594731Y969866D02*
X600686Y963911D01*
X594731Y957956D01*
X588776Y963911D01*
X594731Y969866D01*
X598340Y961565D02*
X591122Y961565D01*
X590039Y965174D02*
X599423Y965174D01*
X595814Y968783D02*
X593648Y968783D01*
X617254Y957464D02*
X623209Y951509D01*
X617254Y945554D01*
X611299Y951509D01*
X617254Y957464D01*
X620863Y949163D02*
X613645Y949163D01*
X612562Y952772D02*
X621946Y952772D01*
X618337Y956381D02*
X616171Y956381D01*
X629656Y969866D02*
X635611Y963911D01*
X629656Y957956D01*
X623701Y963911D01*
X629656Y969866D01*
X633265Y961565D02*
X626047Y961565D01*
X624964Y965174D02*
X634348Y965174D01*
X630739Y968783D02*
X628573Y968783D01*
X652179Y957464D02*
X658134Y951509D01*
X652179Y945554D01*
X646224Y951509D01*
X652179Y957464D01*
X655788Y949163D02*
X648570Y949163D01*
X647487Y952772D02*
X656871Y952772D01*
X653262Y956381D02*
X651096Y956381D01*
X664581Y969866D02*
X670536Y963911D01*
X664581Y957956D01*
X658626Y963911D01*
X664581Y969866D01*
X668190Y961565D02*
X660972Y961565D01*
X659889Y965174D02*
X669273Y965174D01*
X665664Y968783D02*
X663498Y968783D01*
X693059Y1230909D02*
X687104Y1236864D01*
X693059Y1230909D02*
X687104Y1224954D01*
X681149Y1230909D01*
X687104Y1236864D01*
X690713Y1228563D02*
X683495Y1228563D01*
X682412Y1232172D02*
X691796Y1232172D01*
X688187Y1235781D02*
X686021Y1235781D01*
X699506Y1249266D02*
X705461Y1243311D01*
X699506Y1237356D01*
X693551Y1243311D01*
X699506Y1249266D01*
X703115Y1240965D02*
X695897Y1240965D01*
X694814Y1244574D02*
X704198Y1244574D01*
X700589Y1248183D02*
X698423Y1248183D01*
X687104Y957464D02*
X693059Y951509D01*
X687104Y945554D01*
X681149Y951509D01*
X687104Y957464D01*
X690713Y949163D02*
X683495Y949163D01*
X682412Y952772D02*
X691796Y952772D01*
X688187Y956381D02*
X686021Y956381D01*
X699506Y969866D02*
X705461Y963911D01*
X699506Y957956D01*
X693551Y963911D01*
X699506Y969866D01*
X703115Y961565D02*
X695897Y961565D01*
X694814Y965174D02*
X704198Y965174D01*
X700589Y968783D02*
X698423Y968783D01*
X722029Y957464D02*
X727984Y951509D01*
X722029Y945554D01*
X716074Y951509D01*
X722029Y957464D01*
X725638Y949163D02*
X718420Y949163D01*
X717337Y952772D02*
X726721Y952772D01*
X723112Y956381D02*
X720946Y956381D01*
X734431Y969866D02*
X740386Y963911D01*
X734431Y957956D01*
X728476Y963911D01*
X734431Y969866D01*
X738040Y961565D02*
X730822Y961565D01*
X729739Y965174D02*
X739123Y965174D01*
X735514Y968783D02*
X733348Y968783D01*
X448584Y916584D02*
X442629Y922539D01*
X448584Y916584D02*
X442629Y910629D01*
X436674Y916584D01*
X442629Y922539D01*
X446238Y914238D02*
X439020Y914238D01*
X437937Y917847D02*
X447321Y917847D01*
X443712Y921456D02*
X441546Y921456D01*
X455031Y934941D02*
X460986Y928986D01*
X455031Y923031D01*
X449076Y928986D01*
X455031Y934941D01*
X458640Y926640D02*
X451422Y926640D01*
X450339Y930249D02*
X459723Y930249D01*
X456114Y933858D02*
X453948Y933858D01*
X477554Y922539D02*
X483509Y916584D01*
X477554Y910629D01*
X471599Y916584D01*
X477554Y922539D01*
X481163Y914238D02*
X473945Y914238D01*
X472862Y917847D02*
X482246Y917847D01*
X478637Y921456D02*
X476471Y921456D01*
X489956Y934941D02*
X495911Y928986D01*
X489956Y923031D01*
X484001Y928986D01*
X489956Y934941D01*
X493565Y926640D02*
X486347Y926640D01*
X485264Y930249D02*
X494648Y930249D01*
X491039Y933858D02*
X488873Y933858D01*
X512479Y922539D02*
X518434Y916584D01*
X512479Y910629D01*
X506524Y916584D01*
X512479Y922539D01*
X516088Y914238D02*
X508870Y914238D01*
X507787Y917847D02*
X517171Y917847D01*
X513562Y921456D02*
X511396Y921456D01*
X524881Y934941D02*
X530836Y928986D01*
X524881Y923031D01*
X518926Y928986D01*
X524881Y934941D01*
X528490Y926640D02*
X521272Y926640D01*
X520189Y930249D02*
X529573Y930249D01*
X525964Y933858D02*
X523798Y933858D01*
X547404Y922539D02*
X553359Y916584D01*
X547404Y910629D01*
X541449Y916584D01*
X547404Y922539D01*
X551013Y914238D02*
X543795Y914238D01*
X542712Y917847D02*
X552096Y917847D01*
X548487Y921456D02*
X546321Y921456D01*
X559806Y934941D02*
X565761Y928986D01*
X559806Y923031D01*
X553851Y928986D01*
X559806Y934941D01*
X563415Y926640D02*
X556197Y926640D01*
X555114Y930249D02*
X564498Y930249D01*
X560889Y933858D02*
X558723Y933858D01*
X582329Y922539D02*
X588284Y916584D01*
X582329Y910629D01*
X576374Y916584D01*
X582329Y922539D01*
X585938Y914238D02*
X578720Y914238D01*
X577637Y917847D02*
X587021Y917847D01*
X583412Y921456D02*
X581246Y921456D01*
X594731Y934941D02*
X600686Y928986D01*
X594731Y923031D01*
X588776Y928986D01*
X594731Y934941D01*
X598340Y926640D02*
X591122Y926640D01*
X590039Y930249D02*
X599423Y930249D01*
X595814Y933858D02*
X593648Y933858D01*
X617254Y922539D02*
X623209Y916584D01*
X617254Y910629D01*
X611299Y916584D01*
X617254Y922539D01*
X620863Y914238D02*
X613645Y914238D01*
X612562Y917847D02*
X621946Y917847D01*
X618337Y921456D02*
X616171Y921456D01*
X629656Y934941D02*
X635611Y928986D01*
X629656Y923031D01*
X623701Y928986D01*
X629656Y934941D01*
X633265Y926640D02*
X626047Y926640D01*
X624964Y930249D02*
X634348Y930249D01*
X630739Y933858D02*
X628573Y933858D01*
X652179Y922539D02*
X658134Y916584D01*
X652179Y910629D01*
X646224Y916584D01*
X652179Y922539D01*
X655788Y914238D02*
X648570Y914238D01*
X647487Y917847D02*
X656871Y917847D01*
X653262Y921456D02*
X651096Y921456D01*
X664581Y934941D02*
X670536Y928986D01*
X664581Y923031D01*
X658626Y928986D01*
X664581Y934941D01*
X668190Y926640D02*
X660972Y926640D01*
X659889Y930249D02*
X669273Y930249D01*
X665664Y933858D02*
X663498Y933858D01*
X687104Y922539D02*
X693059Y916584D01*
X687104Y910629D01*
X681149Y916584D01*
X687104Y922539D01*
X690713Y914238D02*
X683495Y914238D01*
X682412Y917847D02*
X691796Y917847D01*
X688187Y921456D02*
X686021Y921456D01*
X699506Y934941D02*
X705461Y928986D01*
X699506Y923031D01*
X693551Y928986D01*
X699506Y934941D01*
X703115Y926640D02*
X695897Y926640D01*
X694814Y930249D02*
X704198Y930249D01*
X700589Y933858D02*
X698423Y933858D01*
X727984Y1230909D02*
X722029Y1236864D01*
X727984Y1230909D02*
X722029Y1224954D01*
X716074Y1230909D01*
X722029Y1236864D01*
X725638Y1228563D02*
X718420Y1228563D01*
X717337Y1232172D02*
X726721Y1232172D01*
X723112Y1235781D02*
X720946Y1235781D01*
X734431Y1249266D02*
X740386Y1243311D01*
X734431Y1237356D01*
X728476Y1243311D01*
X734431Y1249266D01*
X738040Y1240965D02*
X730822Y1240965D01*
X729739Y1244574D02*
X739123Y1244574D01*
X735514Y1248183D02*
X733348Y1248183D01*
X722029Y922539D02*
X727984Y916584D01*
X722029Y910629D01*
X716074Y916584D01*
X722029Y922539D01*
X725638Y914238D02*
X718420Y914238D01*
X717337Y917847D02*
X726721Y917847D01*
X723112Y921456D02*
X720946Y921456D01*
X734431Y934941D02*
X740386Y928986D01*
X734431Y923031D01*
X728476Y928986D01*
X734431Y934941D01*
X738040Y926640D02*
X730822Y926640D01*
X729739Y930249D02*
X739123Y930249D01*
X735514Y933858D02*
X733348Y933858D01*
X448584Y881659D02*
X442629Y887614D01*
X448584Y881659D02*
X442629Y875704D01*
X436674Y881659D01*
X442629Y887614D01*
X446238Y879313D02*
X439020Y879313D01*
X437937Y882922D02*
X447321Y882922D01*
X443712Y886531D02*
X441546Y886531D01*
X455031Y900016D02*
X460986Y894061D01*
X455031Y888106D01*
X449076Y894061D01*
X455031Y900016D01*
X458640Y891715D02*
X451422Y891715D01*
X450339Y895324D02*
X459723Y895324D01*
X456114Y898933D02*
X453948Y898933D01*
X477554Y887614D02*
X483509Y881659D01*
X477554Y875704D01*
X471599Y881659D01*
X477554Y887614D01*
X481163Y879313D02*
X473945Y879313D01*
X472862Y882922D02*
X482246Y882922D01*
X478637Y886531D02*
X476471Y886531D01*
X489956Y900016D02*
X495911Y894061D01*
X489956Y888106D01*
X484001Y894061D01*
X489956Y900016D01*
X493565Y891715D02*
X486347Y891715D01*
X485264Y895324D02*
X494648Y895324D01*
X491039Y898933D02*
X488873Y898933D01*
X512479Y887614D02*
X518434Y881659D01*
X512479Y875704D01*
X506524Y881659D01*
X512479Y887614D01*
X516088Y879313D02*
X508870Y879313D01*
X507787Y882922D02*
X517171Y882922D01*
X513562Y886531D02*
X511396Y886531D01*
X524881Y900016D02*
X530836Y894061D01*
X524881Y888106D01*
X518926Y894061D01*
X524881Y900016D01*
X528490Y891715D02*
X521272Y891715D01*
X520189Y895324D02*
X529573Y895324D01*
X525964Y898933D02*
X523798Y898933D01*
X547404Y887614D02*
X553359Y881659D01*
X547404Y875704D01*
X541449Y881659D01*
X547404Y887614D01*
X551013Y879313D02*
X543795Y879313D01*
X542712Y882922D02*
X552096Y882922D01*
X548487Y886531D02*
X546321Y886531D01*
X559806Y900016D02*
X565761Y894061D01*
X559806Y888106D01*
X553851Y894061D01*
X559806Y900016D01*
X563415Y891715D02*
X556197Y891715D01*
X555114Y895324D02*
X564498Y895324D01*
X560889Y898933D02*
X558723Y898933D01*
X582329Y887614D02*
X588284Y881659D01*
X582329Y875704D01*
X576374Y881659D01*
X582329Y887614D01*
X585938Y879313D02*
X578720Y879313D01*
X577637Y882922D02*
X587021Y882922D01*
X583412Y886531D02*
X581246Y886531D01*
X594731Y900016D02*
X600686Y894061D01*
X594731Y888106D01*
X588776Y894061D01*
X594731Y900016D01*
X598340Y891715D02*
X591122Y891715D01*
X590039Y895324D02*
X599423Y895324D01*
X595814Y898933D02*
X593648Y898933D01*
X617254Y887614D02*
X623209Y881659D01*
X617254Y875704D01*
X611299Y881659D01*
X617254Y887614D01*
X620863Y879313D02*
X613645Y879313D01*
X612562Y882922D02*
X621946Y882922D01*
X618337Y886531D02*
X616171Y886531D01*
X629656Y900016D02*
X635611Y894061D01*
X629656Y888106D01*
X623701Y894061D01*
X629656Y900016D01*
X633265Y891715D02*
X626047Y891715D01*
X624964Y895324D02*
X634348Y895324D01*
X630739Y898933D02*
X628573Y898933D01*
X652179Y887614D02*
X658134Y881659D01*
X652179Y875704D01*
X646224Y881659D01*
X652179Y887614D01*
X655788Y879313D02*
X648570Y879313D01*
X647487Y882922D02*
X656871Y882922D01*
X653262Y886531D02*
X651096Y886531D01*
X664581Y900016D02*
X670536Y894061D01*
X664581Y888106D01*
X658626Y894061D01*
X664581Y900016D01*
X668190Y891715D02*
X660972Y891715D01*
X659889Y895324D02*
X669273Y895324D01*
X665664Y898933D02*
X663498Y898933D01*
X687104Y887614D02*
X693059Y881659D01*
X687104Y875704D01*
X681149Y881659D01*
X687104Y887614D01*
X690713Y879313D02*
X683495Y879313D01*
X682412Y882922D02*
X691796Y882922D01*
X688187Y886531D02*
X686021Y886531D01*
X699506Y900016D02*
X705461Y894061D01*
X699506Y888106D01*
X693551Y894061D01*
X699506Y900016D01*
X703115Y891715D02*
X695897Y891715D01*
X694814Y895324D02*
X704198Y895324D01*
X700589Y898933D02*
X698423Y898933D01*
X722029Y887614D02*
X727984Y881659D01*
X722029Y875704D01*
X716074Y881659D01*
X722029Y887614D01*
X725638Y879313D02*
X718420Y879313D01*
X717337Y882922D02*
X726721Y882922D01*
X723112Y886531D02*
X720946Y886531D01*
X734431Y900016D02*
X740386Y894061D01*
X734431Y888106D01*
X728476Y894061D01*
X734431Y900016D01*
X738040Y891715D02*
X730822Y891715D01*
X729739Y895324D02*
X739123Y895324D01*
X735514Y898933D02*
X733348Y898933D01*
D12*
G36*
X707660Y1345060D02*
X747280Y1384680D01*
X786900Y1345060D01*
X747280Y1305440D01*
X707660Y1345060D01*
G37*
D13*
G36*
X772983Y1316365D02*
X766315Y1323033D01*
X769307Y1326025D01*
X775975Y1319357D01*
X772983Y1316365D01*
G37*
G36*
X775811Y1319194D02*
X769143Y1325862D01*
X772135Y1328854D01*
X778803Y1322186D01*
X775811Y1319194D01*
G37*
G36*
X778640Y1322022D02*
X771972Y1328690D01*
X774964Y1331682D01*
X781632Y1325014D01*
X778640Y1322022D01*
G37*
G36*
X781468Y1324850D02*
X774800Y1331518D01*
X777792Y1334510D01*
X784460Y1327842D01*
X781468Y1324850D01*
G37*
G36*
X784297Y1327679D02*
X777629Y1334347D01*
X780621Y1337339D01*
X787289Y1330671D01*
X784297Y1327679D01*
G37*
G36*
X787125Y1330507D02*
X780457Y1337175D01*
X783449Y1340167D01*
X790117Y1333499D01*
X787125Y1330507D01*
G37*
G36*
X789953Y1333336D02*
X783285Y1340004D01*
X786277Y1342996D01*
X792945Y1336328D01*
X789953Y1333336D01*
G37*
G36*
X792782Y1336164D02*
X786114Y1342832D01*
X789106Y1345824D01*
X795774Y1339156D01*
X792782Y1336164D01*
G37*
G36*
X770154Y1313537D02*
X763486Y1320205D01*
X766478Y1323197D01*
X773146Y1316529D01*
X770154Y1313537D01*
G37*
G36*
X767326Y1310708D02*
X760658Y1317376D01*
X763650Y1320368D01*
X770318Y1313700D01*
X767326Y1310708D01*
G37*
G36*
X764498Y1307880D02*
X757830Y1314548D01*
X760822Y1317540D01*
X767490Y1310872D01*
X764498Y1307880D01*
G37*
G36*
X761669Y1305051D02*
X755001Y1311719D01*
X757993Y1314711D01*
X764661Y1308043D01*
X761669Y1305051D01*
G37*
G36*
X758841Y1302223D02*
X752173Y1308891D01*
X755165Y1311883D01*
X761833Y1305215D01*
X758841Y1302223D01*
G37*
G36*
X756012Y1299395D02*
X749344Y1306063D01*
X752336Y1309055D01*
X759004Y1302387D01*
X756012Y1299395D01*
G37*
G36*
X753184Y1296566D02*
X746516Y1303234D01*
X749508Y1306226D01*
X756176Y1299558D01*
X753184Y1296566D01*
G37*
G36*
X725253Y1364095D02*
X718585Y1370763D01*
X721577Y1373755D01*
X728245Y1367087D01*
X725253Y1364095D01*
G37*
G36*
X722425Y1361266D02*
X715757Y1367934D01*
X718749Y1370926D01*
X725417Y1364258D01*
X722425Y1361266D01*
G37*
G36*
X719596Y1358438D02*
X712928Y1365106D01*
X715920Y1368098D01*
X722588Y1361430D01*
X719596Y1358438D01*
G37*
G36*
X716768Y1355610D02*
X710100Y1362278D01*
X713092Y1365270D01*
X719760Y1358602D01*
X716768Y1355610D01*
G37*
G36*
X713939Y1352781D02*
X707271Y1359449D01*
X710263Y1362441D01*
X716931Y1355773D01*
X713939Y1352781D01*
G37*
G36*
X711111Y1349953D02*
X704443Y1356621D01*
X707435Y1359613D01*
X714103Y1352945D01*
X711111Y1349953D01*
G37*
G36*
X708283Y1347124D02*
X701615Y1353792D01*
X704607Y1356784D01*
X711275Y1350116D01*
X708283Y1347124D01*
G37*
G36*
X705454Y1344296D02*
X698786Y1350964D01*
X701778Y1353956D01*
X708446Y1347288D01*
X705454Y1344296D01*
G37*
G36*
X728082Y1366923D02*
X721414Y1373591D01*
X724406Y1376583D01*
X731074Y1369915D01*
X728082Y1366923D01*
G37*
G36*
X730910Y1369752D02*
X724242Y1376420D01*
X727234Y1379412D01*
X733902Y1372744D01*
X730910Y1369752D01*
G37*
G36*
X733738Y1372580D02*
X727070Y1379248D01*
X730062Y1382240D01*
X736730Y1375572D01*
X733738Y1372580D01*
G37*
G36*
X736567Y1375409D02*
X729899Y1382077D01*
X732891Y1385069D01*
X739559Y1378401D01*
X736567Y1375409D01*
G37*
G36*
X739395Y1378237D02*
X732727Y1384905D01*
X735719Y1387897D01*
X742387Y1381229D01*
X739395Y1378237D01*
G37*
G36*
X742224Y1381065D02*
X735556Y1387733D01*
X738548Y1390725D01*
X745216Y1384057D01*
X742224Y1381065D01*
G37*
G36*
X745052Y1383894D02*
X738384Y1390562D01*
X741376Y1393554D01*
X748044Y1386886D01*
X745052Y1383894D01*
G37*
G36*
X766315Y1367087D02*
X772983Y1373755D01*
X775975Y1370763D01*
X769307Y1364095D01*
X766315Y1367087D01*
G37*
G36*
X763486Y1369915D02*
X770154Y1376583D01*
X773146Y1373591D01*
X766478Y1366923D01*
X763486Y1369915D01*
G37*
G36*
X760658Y1372744D02*
X767326Y1379412D01*
X770318Y1376420D01*
X763650Y1369752D01*
X760658Y1372744D01*
G37*
G36*
X757830Y1375572D02*
X764498Y1382240D01*
X767490Y1379248D01*
X760822Y1372580D01*
X757830Y1375572D01*
G37*
G36*
X755001Y1378401D02*
X761669Y1385069D01*
X764661Y1382077D01*
X757993Y1375409D01*
X755001Y1378401D01*
G37*
G36*
X752173Y1381229D02*
X758841Y1387897D01*
X761833Y1384905D01*
X755165Y1378237D01*
X752173Y1381229D01*
G37*
G36*
X749344Y1384057D02*
X756012Y1390725D01*
X759004Y1387733D01*
X752336Y1381065D01*
X749344Y1384057D01*
G37*
G36*
X746516Y1386886D02*
X753184Y1393554D01*
X756176Y1390562D01*
X749508Y1383894D01*
X746516Y1386886D01*
G37*
G36*
X769143Y1364258D02*
X775811Y1370926D01*
X778803Y1367934D01*
X772135Y1361266D01*
X769143Y1364258D01*
G37*
G36*
X771972Y1361430D02*
X778640Y1368098D01*
X781632Y1365106D01*
X774964Y1358438D01*
X771972Y1361430D01*
G37*
G36*
X774800Y1358602D02*
X781468Y1365270D01*
X784460Y1362278D01*
X777792Y1355610D01*
X774800Y1358602D01*
G37*
G36*
X777629Y1355773D02*
X784297Y1362441D01*
X787289Y1359449D01*
X780621Y1352781D01*
X777629Y1355773D01*
G37*
G36*
X780457Y1352945D02*
X787125Y1359613D01*
X790117Y1356621D01*
X783449Y1349953D01*
X780457Y1352945D01*
G37*
G36*
X783285Y1350116D02*
X789953Y1356784D01*
X792945Y1353792D01*
X786277Y1347124D01*
X783285Y1350116D01*
G37*
G36*
X786114Y1347288D02*
X792782Y1353956D01*
X795774Y1350964D01*
X789106Y1344296D01*
X786114Y1347288D01*
G37*
G36*
X718585Y1319357D02*
X725253Y1326025D01*
X728245Y1323033D01*
X721577Y1316365D01*
X718585Y1319357D01*
G37*
G36*
X721414Y1316529D02*
X728082Y1323197D01*
X731074Y1320205D01*
X724406Y1313537D01*
X721414Y1316529D01*
G37*
G36*
X724242Y1313700D02*
X730910Y1320368D01*
X733902Y1317376D01*
X727234Y1310708D01*
X724242Y1313700D01*
G37*
G36*
X727070Y1310872D02*
X733738Y1317540D01*
X736730Y1314548D01*
X730062Y1307880D01*
X727070Y1310872D01*
G37*
G36*
X729899Y1308043D02*
X736567Y1314711D01*
X739559Y1311719D01*
X732891Y1305051D01*
X729899Y1308043D01*
G37*
G36*
X732727Y1305215D02*
X739395Y1311883D01*
X742387Y1308891D01*
X735719Y1302223D01*
X732727Y1305215D01*
G37*
G36*
X735556Y1302387D02*
X742224Y1309055D01*
X745216Y1306063D01*
X738548Y1299395D01*
X735556Y1302387D01*
G37*
G36*
X738384Y1299558D02*
X745052Y1306226D01*
X748044Y1303234D01*
X741376Y1296566D01*
X738384Y1299558D01*
G37*
G36*
X715757Y1322186D02*
X722425Y1328854D01*
X725417Y1325862D01*
X718749Y1319194D01*
X715757Y1322186D01*
G37*
G36*
X712928Y1325014D02*
X719596Y1331682D01*
X722588Y1328690D01*
X715920Y1322022D01*
X712928Y1325014D01*
G37*
G36*
X710100Y1327842D02*
X716768Y1334510D01*
X719760Y1331518D01*
X713092Y1324850D01*
X710100Y1327842D01*
G37*
G36*
X707271Y1330671D02*
X713939Y1337339D01*
X716931Y1334347D01*
X710263Y1327679D01*
X707271Y1330671D01*
G37*
G36*
X704443Y1333499D02*
X711111Y1340167D01*
X714103Y1337175D01*
X707435Y1330507D01*
X704443Y1333499D01*
G37*
G36*
X701615Y1336328D02*
X708283Y1342996D01*
X711275Y1340004D01*
X704607Y1333336D01*
X701615Y1336328D01*
G37*
G36*
X698786Y1339156D02*
X705454Y1345824D01*
X708446Y1342832D01*
X701778Y1336164D01*
X698786Y1339156D01*
G37*
D11*
X772531Y1236864D02*
X766576Y1230909D01*
X772531Y1236864D02*
X778486Y1230909D01*
X772531Y1224954D01*
X766576Y1230909D01*
X768922Y1228563D02*
X776140Y1228563D01*
X777223Y1232172D02*
X767839Y1232172D01*
X771448Y1235781D02*
X773614Y1235781D01*
X760129Y1249266D02*
X754174Y1243311D01*
X760129Y1249266D02*
X766084Y1243311D01*
X760129Y1237356D01*
X754174Y1243311D01*
X756520Y1240965D02*
X763738Y1240965D01*
X764821Y1244574D02*
X755437Y1244574D01*
X759046Y1248183D02*
X761212Y1248183D01*
X801501Y1230909D02*
X807456Y1236864D01*
X813411Y1230909D01*
X807456Y1224954D01*
X801501Y1230909D01*
X803847Y1228563D02*
X811065Y1228563D01*
X812148Y1232172D02*
X802764Y1232172D01*
X806373Y1235781D02*
X808539Y1235781D01*
X795054Y1249266D02*
X789099Y1243311D01*
X795054Y1249266D02*
X801009Y1243311D01*
X795054Y1237356D01*
X789099Y1243311D01*
X791445Y1240965D02*
X798663Y1240965D01*
X799746Y1244574D02*
X790362Y1244574D01*
X793971Y1248183D02*
X796137Y1248183D01*
X836426Y1230909D02*
X842381Y1236864D01*
X848336Y1230909D01*
X842381Y1224954D01*
X836426Y1230909D01*
X838772Y1228563D02*
X845990Y1228563D01*
X847073Y1232172D02*
X837689Y1232172D01*
X841298Y1235781D02*
X843464Y1235781D01*
X829979Y1249266D02*
X824024Y1243311D01*
X829979Y1249266D02*
X835934Y1243311D01*
X829979Y1237356D01*
X824024Y1243311D01*
X826370Y1240965D02*
X833588Y1240965D01*
X834671Y1244574D02*
X825287Y1244574D01*
X828896Y1248183D02*
X831062Y1248183D01*
X871351Y1230909D02*
X877306Y1236864D01*
X883261Y1230909D01*
X877306Y1224954D01*
X871351Y1230909D01*
X873697Y1228563D02*
X880915Y1228563D01*
X881998Y1232172D02*
X872614Y1232172D01*
X876223Y1235781D02*
X878389Y1235781D01*
X864904Y1249266D02*
X858949Y1243311D01*
X864904Y1249266D02*
X870859Y1243311D01*
X864904Y1237356D01*
X858949Y1243311D01*
X861295Y1240965D02*
X868513Y1240965D01*
X869596Y1244574D02*
X860212Y1244574D01*
X863821Y1248183D02*
X865987Y1248183D01*
X906276Y1230909D02*
X912231Y1236864D01*
X918186Y1230909D01*
X912231Y1224954D01*
X906276Y1230909D01*
X908622Y1228563D02*
X915840Y1228563D01*
X916923Y1232172D02*
X907539Y1232172D01*
X911148Y1235781D02*
X913314Y1235781D01*
X899829Y1249266D02*
X893874Y1243311D01*
X899829Y1249266D02*
X905784Y1243311D01*
X899829Y1237356D01*
X893874Y1243311D01*
X896220Y1240965D02*
X903438Y1240965D01*
X904521Y1244574D02*
X895137Y1244574D01*
X898746Y1248183D02*
X900912Y1248183D01*
X941201Y1230909D02*
X947156Y1236864D01*
X953111Y1230909D01*
X947156Y1224954D01*
X941201Y1230909D01*
X943547Y1228563D02*
X950765Y1228563D01*
X951848Y1232172D02*
X942464Y1232172D01*
X946073Y1235781D02*
X948239Y1235781D01*
X934754Y1249266D02*
X928799Y1243311D01*
X934754Y1249266D02*
X940709Y1243311D01*
X934754Y1237356D01*
X928799Y1243311D01*
X931145Y1240965D02*
X938363Y1240965D01*
X939446Y1244574D02*
X930062Y1244574D01*
X933671Y1248183D02*
X935837Y1248183D01*
X976126Y1230909D02*
X982081Y1236864D01*
X988036Y1230909D01*
X982081Y1224954D01*
X976126Y1230909D01*
X978472Y1228563D02*
X985690Y1228563D01*
X986773Y1232172D02*
X977389Y1232172D01*
X980998Y1235781D02*
X983164Y1235781D01*
X969679Y1249266D02*
X963724Y1243311D01*
X969679Y1249266D02*
X975634Y1243311D01*
X969679Y1237356D01*
X963724Y1243311D01*
X966070Y1240965D02*
X973288Y1240965D01*
X974371Y1244574D02*
X964987Y1244574D01*
X968596Y1248183D02*
X970762Y1248183D01*
X1011051Y1230909D02*
X1017006Y1236864D01*
X1022961Y1230909D01*
X1017006Y1224954D01*
X1011051Y1230909D01*
X1013397Y1228563D02*
X1020615Y1228563D01*
X1021698Y1232172D02*
X1012314Y1232172D01*
X1015923Y1235781D02*
X1018089Y1235781D01*
X1004604Y1249266D02*
X998649Y1243311D01*
X1004604Y1249266D02*
X1010559Y1243311D01*
X1004604Y1237356D01*
X998649Y1243311D01*
X1000995Y1240965D02*
X1008213Y1240965D01*
X1009296Y1244574D02*
X999912Y1244574D01*
X1003521Y1248183D02*
X1005687Y1248183D01*
X1045976Y1230909D02*
X1051931Y1236864D01*
X1057886Y1230909D01*
X1051931Y1224954D01*
X1045976Y1230909D01*
X1048322Y1228563D02*
X1055540Y1228563D01*
X1056623Y1232172D02*
X1047239Y1232172D01*
X1050848Y1235781D02*
X1053014Y1235781D01*
X1039529Y1249266D02*
X1033574Y1243311D01*
X1039529Y1249266D02*
X1045484Y1243311D01*
X1039529Y1237356D01*
X1033574Y1243311D01*
X1035920Y1240965D02*
X1043138Y1240965D01*
X1044221Y1244574D02*
X1034837Y1244574D01*
X1038446Y1248183D02*
X1040612Y1248183D01*
X772531Y1201939D02*
X766576Y1195984D01*
X772531Y1201939D02*
X778486Y1195984D01*
X772531Y1190029D01*
X766576Y1195984D01*
X768922Y1193638D02*
X776140Y1193638D01*
X777223Y1197247D02*
X767839Y1197247D01*
X771448Y1200856D02*
X773614Y1200856D01*
X760129Y1214341D02*
X754174Y1208386D01*
X760129Y1214341D02*
X766084Y1208386D01*
X760129Y1202431D01*
X754174Y1208386D01*
X756520Y1206040D02*
X763738Y1206040D01*
X764821Y1209649D02*
X755437Y1209649D01*
X759046Y1213258D02*
X761212Y1213258D01*
X801501Y1195984D02*
X807456Y1201939D01*
X813411Y1195984D01*
X807456Y1190029D01*
X801501Y1195984D01*
X803847Y1193638D02*
X811065Y1193638D01*
X812148Y1197247D02*
X802764Y1197247D01*
X806373Y1200856D02*
X808539Y1200856D01*
X795054Y1214341D02*
X789099Y1208386D01*
X795054Y1214341D02*
X801009Y1208386D01*
X795054Y1202431D01*
X789099Y1208386D01*
X791445Y1206040D02*
X798663Y1206040D01*
X799746Y1209649D02*
X790362Y1209649D01*
X793971Y1213258D02*
X796137Y1213258D01*
X836426Y1195984D02*
X842381Y1201939D01*
X848336Y1195984D01*
X842381Y1190029D01*
X836426Y1195984D01*
X838772Y1193638D02*
X845990Y1193638D01*
X847073Y1197247D02*
X837689Y1197247D01*
X841298Y1200856D02*
X843464Y1200856D01*
X829979Y1214341D02*
X824024Y1208386D01*
X829979Y1214341D02*
X835934Y1208386D01*
X829979Y1202431D01*
X824024Y1208386D01*
X826370Y1206040D02*
X833588Y1206040D01*
X834671Y1209649D02*
X825287Y1209649D01*
X828896Y1213258D02*
X831062Y1213258D01*
X871351Y1195984D02*
X877306Y1201939D01*
X883261Y1195984D01*
X877306Y1190029D01*
X871351Y1195984D01*
X873697Y1193638D02*
X880915Y1193638D01*
X881998Y1197247D02*
X872614Y1197247D01*
X876223Y1200856D02*
X878389Y1200856D01*
X864904Y1214341D02*
X858949Y1208386D01*
X864904Y1214341D02*
X870859Y1208386D01*
X864904Y1202431D01*
X858949Y1208386D01*
X861295Y1206040D02*
X868513Y1206040D01*
X869596Y1209649D02*
X860212Y1209649D01*
X863821Y1213258D02*
X865987Y1213258D01*
X906276Y1195984D02*
X912231Y1201939D01*
X918186Y1195984D01*
X912231Y1190029D01*
X906276Y1195984D01*
X908622Y1193638D02*
X915840Y1193638D01*
X916923Y1197247D02*
X907539Y1197247D01*
X911148Y1200856D02*
X913314Y1200856D01*
X899829Y1214341D02*
X893874Y1208386D01*
X899829Y1214341D02*
X905784Y1208386D01*
X899829Y1202431D01*
X893874Y1208386D01*
X896220Y1206040D02*
X903438Y1206040D01*
X904521Y1209649D02*
X895137Y1209649D01*
X898746Y1213258D02*
X900912Y1213258D01*
X941201Y1195984D02*
X947156Y1201939D01*
X953111Y1195984D01*
X947156Y1190029D01*
X941201Y1195984D01*
X943547Y1193638D02*
X950765Y1193638D01*
X951848Y1197247D02*
X942464Y1197247D01*
X946073Y1200856D02*
X948239Y1200856D01*
X934754Y1214341D02*
X928799Y1208386D01*
X934754Y1214341D02*
X940709Y1208386D01*
X934754Y1202431D01*
X928799Y1208386D01*
X931145Y1206040D02*
X938363Y1206040D01*
X939446Y1209649D02*
X930062Y1209649D01*
X933671Y1213258D02*
X935837Y1213258D01*
X976126Y1195984D02*
X982081Y1201939D01*
X988036Y1195984D01*
X982081Y1190029D01*
X976126Y1195984D01*
X978472Y1193638D02*
X985690Y1193638D01*
X986773Y1197247D02*
X977389Y1197247D01*
X980998Y1200856D02*
X983164Y1200856D01*
X969679Y1214341D02*
X963724Y1208386D01*
X969679Y1214341D02*
X975634Y1208386D01*
X969679Y1202431D01*
X963724Y1208386D01*
X966070Y1206040D02*
X973288Y1206040D01*
X974371Y1209649D02*
X964987Y1209649D01*
X968596Y1213258D02*
X970762Y1213258D01*
X1011051Y1195984D02*
X1017006Y1201939D01*
X1022961Y1195984D01*
X1017006Y1190029D01*
X1011051Y1195984D01*
X1013397Y1193638D02*
X1020615Y1193638D01*
X1021698Y1197247D02*
X1012314Y1197247D01*
X1015923Y1200856D02*
X1018089Y1200856D01*
X1004604Y1214341D02*
X998649Y1208386D01*
X1004604Y1214341D02*
X1010559Y1208386D01*
X1004604Y1202431D01*
X998649Y1208386D01*
X1000995Y1206040D02*
X1008213Y1206040D01*
X1009296Y1209649D02*
X999912Y1209649D01*
X1003521Y1213258D02*
X1005687Y1213258D01*
X1045976Y1195984D02*
X1051931Y1201939D01*
X1057886Y1195984D01*
X1051931Y1190029D01*
X1045976Y1195984D01*
X1048322Y1193638D02*
X1055540Y1193638D01*
X1056623Y1197247D02*
X1047239Y1197247D01*
X1050848Y1200856D02*
X1053014Y1200856D01*
X1039529Y1214341D02*
X1033574Y1208386D01*
X1039529Y1214341D02*
X1045484Y1208386D01*
X1039529Y1202431D01*
X1033574Y1208386D01*
X1035920Y1206040D02*
X1043138Y1206040D01*
X1044221Y1209649D02*
X1034837Y1209649D01*
X1038446Y1213258D02*
X1040612Y1213258D01*
X772531Y1167014D02*
X766576Y1161059D01*
X772531Y1167014D02*
X778486Y1161059D01*
X772531Y1155104D01*
X766576Y1161059D01*
X768922Y1158713D02*
X776140Y1158713D01*
X777223Y1162322D02*
X767839Y1162322D01*
X771448Y1165931D02*
X773614Y1165931D01*
X760129Y1179416D02*
X754174Y1173461D01*
X760129Y1179416D02*
X766084Y1173461D01*
X760129Y1167506D01*
X754174Y1173461D01*
X756520Y1171115D02*
X763738Y1171115D01*
X764821Y1174724D02*
X755437Y1174724D01*
X759046Y1178333D02*
X761212Y1178333D01*
X801501Y1161059D02*
X807456Y1167014D01*
X813411Y1161059D01*
X807456Y1155104D01*
X801501Y1161059D01*
X803847Y1158713D02*
X811065Y1158713D01*
X812148Y1162322D02*
X802764Y1162322D01*
X806373Y1165931D02*
X808539Y1165931D01*
X795054Y1179416D02*
X789099Y1173461D01*
X795054Y1179416D02*
X801009Y1173461D01*
X795054Y1167506D01*
X789099Y1173461D01*
X791445Y1171115D02*
X798663Y1171115D01*
X799746Y1174724D02*
X790362Y1174724D01*
X793971Y1178333D02*
X796137Y1178333D01*
X836426Y1161059D02*
X842381Y1167014D01*
X848336Y1161059D01*
X842381Y1155104D01*
X836426Y1161059D01*
X838772Y1158713D02*
X845990Y1158713D01*
X847073Y1162322D02*
X837689Y1162322D01*
X841298Y1165931D02*
X843464Y1165931D01*
X829979Y1179416D02*
X824024Y1173461D01*
X829979Y1179416D02*
X835934Y1173461D01*
X829979Y1167506D01*
X824024Y1173461D01*
X826370Y1171115D02*
X833588Y1171115D01*
X834671Y1174724D02*
X825287Y1174724D01*
X828896Y1178333D02*
X831062Y1178333D01*
X871351Y1161059D02*
X877306Y1167014D01*
X883261Y1161059D01*
X877306Y1155104D01*
X871351Y1161059D01*
X873697Y1158713D02*
X880915Y1158713D01*
X881998Y1162322D02*
X872614Y1162322D01*
X876223Y1165931D02*
X878389Y1165931D01*
X864904Y1179416D02*
X858949Y1173461D01*
X864904Y1179416D02*
X870859Y1173461D01*
X864904Y1167506D01*
X858949Y1173461D01*
X861295Y1171115D02*
X868513Y1171115D01*
X869596Y1174724D02*
X860212Y1174724D01*
X863821Y1178333D02*
X865987Y1178333D01*
X906276Y1161059D02*
X912231Y1167014D01*
X918186Y1161059D01*
X912231Y1155104D01*
X906276Y1161059D01*
X908622Y1158713D02*
X915840Y1158713D01*
X916923Y1162322D02*
X907539Y1162322D01*
X911148Y1165931D02*
X913314Y1165931D01*
X899829Y1179416D02*
X893874Y1173461D01*
X899829Y1179416D02*
X905784Y1173461D01*
X899829Y1167506D01*
X893874Y1173461D01*
X896220Y1171115D02*
X903438Y1171115D01*
X904521Y1174724D02*
X895137Y1174724D01*
X898746Y1178333D02*
X900912Y1178333D01*
X941201Y1161059D02*
X947156Y1167014D01*
X953111Y1161059D01*
X947156Y1155104D01*
X941201Y1161059D01*
X943547Y1158713D02*
X950765Y1158713D01*
X951848Y1162322D02*
X942464Y1162322D01*
X946073Y1165931D02*
X948239Y1165931D01*
X934754Y1179416D02*
X928799Y1173461D01*
X934754Y1179416D02*
X940709Y1173461D01*
X934754Y1167506D01*
X928799Y1173461D01*
X931145Y1171115D02*
X938363Y1171115D01*
X939446Y1174724D02*
X930062Y1174724D01*
X933671Y1178333D02*
X935837Y1178333D01*
X976126Y1161059D02*
X982081Y1167014D01*
X988036Y1161059D01*
X982081Y1155104D01*
X976126Y1161059D01*
X978472Y1158713D02*
X985690Y1158713D01*
X986773Y1162322D02*
X977389Y1162322D01*
X980998Y1165931D02*
X983164Y1165931D01*
X969679Y1179416D02*
X963724Y1173461D01*
X969679Y1179416D02*
X975634Y1173461D01*
X969679Y1167506D01*
X963724Y1173461D01*
X966070Y1171115D02*
X973288Y1171115D01*
X974371Y1174724D02*
X964987Y1174724D01*
X968596Y1178333D02*
X970762Y1178333D01*
X1011051Y1161059D02*
X1017006Y1167014D01*
X1022961Y1161059D01*
X1017006Y1155104D01*
X1011051Y1161059D01*
X1013397Y1158713D02*
X1020615Y1158713D01*
X1021698Y1162322D02*
X1012314Y1162322D01*
X1015923Y1165931D02*
X1018089Y1165931D01*
X1004604Y1179416D02*
X998649Y1173461D01*
X1004604Y1179416D02*
X1010559Y1173461D01*
X1004604Y1167506D01*
X998649Y1173461D01*
X1000995Y1171115D02*
X1008213Y1171115D01*
X1009296Y1174724D02*
X999912Y1174724D01*
X1003521Y1178333D02*
X1005687Y1178333D01*
X1045976Y1161059D02*
X1051931Y1167014D01*
X1057886Y1161059D01*
X1051931Y1155104D01*
X1045976Y1161059D01*
X1048322Y1158713D02*
X1055540Y1158713D01*
X1056623Y1162322D02*
X1047239Y1162322D01*
X1050848Y1165931D02*
X1053014Y1165931D01*
X1039529Y1179416D02*
X1033574Y1173461D01*
X1039529Y1179416D02*
X1045484Y1173461D01*
X1039529Y1167506D01*
X1033574Y1173461D01*
X1035920Y1171115D02*
X1043138Y1171115D01*
X1044221Y1174724D02*
X1034837Y1174724D01*
X1038446Y1178333D02*
X1040612Y1178333D01*
X772531Y1132089D02*
X766576Y1126134D01*
X772531Y1132089D02*
X778486Y1126134D01*
X772531Y1120179D01*
X766576Y1126134D01*
X768922Y1123788D02*
X776140Y1123788D01*
X777223Y1127397D02*
X767839Y1127397D01*
X771448Y1131006D02*
X773614Y1131006D01*
X760129Y1144491D02*
X754174Y1138536D01*
X760129Y1144491D02*
X766084Y1138536D01*
X760129Y1132581D01*
X754174Y1138536D01*
X756520Y1136190D02*
X763738Y1136190D01*
X764821Y1139799D02*
X755437Y1139799D01*
X759046Y1143408D02*
X761212Y1143408D01*
X801501Y1126134D02*
X807456Y1132089D01*
X813411Y1126134D01*
X807456Y1120179D01*
X801501Y1126134D01*
X803847Y1123788D02*
X811065Y1123788D01*
X812148Y1127397D02*
X802764Y1127397D01*
X806373Y1131006D02*
X808539Y1131006D01*
X795054Y1144491D02*
X789099Y1138536D01*
X795054Y1144491D02*
X801009Y1138536D01*
X795054Y1132581D01*
X789099Y1138536D01*
X791445Y1136190D02*
X798663Y1136190D01*
X799746Y1139799D02*
X790362Y1139799D01*
X793971Y1143408D02*
X796137Y1143408D01*
X836426Y1126134D02*
X842381Y1132089D01*
X848336Y1126134D01*
X842381Y1120179D01*
X836426Y1126134D01*
X838772Y1123788D02*
X845990Y1123788D01*
X847073Y1127397D02*
X837689Y1127397D01*
X841298Y1131006D02*
X843464Y1131006D01*
X829979Y1144491D02*
X824024Y1138536D01*
X829979Y1144491D02*
X835934Y1138536D01*
X829979Y1132581D01*
X824024Y1138536D01*
X826370Y1136190D02*
X833588Y1136190D01*
X834671Y1139799D02*
X825287Y1139799D01*
X828896Y1143408D02*
X831062Y1143408D01*
X871351Y1126134D02*
X877306Y1132089D01*
X883261Y1126134D01*
X877306Y1120179D01*
X871351Y1126134D01*
X873697Y1123788D02*
X880915Y1123788D01*
X881998Y1127397D02*
X872614Y1127397D01*
X876223Y1131006D02*
X878389Y1131006D01*
X864904Y1144491D02*
X858949Y1138536D01*
X864904Y1144491D02*
X870859Y1138536D01*
X864904Y1132581D01*
X858949Y1138536D01*
X861295Y1136190D02*
X868513Y1136190D01*
X869596Y1139799D02*
X860212Y1139799D01*
X863821Y1143408D02*
X865987Y1143408D01*
X906276Y1126134D02*
X912231Y1132089D01*
X918186Y1126134D01*
X912231Y1120179D01*
X906276Y1126134D01*
X908622Y1123788D02*
X915840Y1123788D01*
X916923Y1127397D02*
X907539Y1127397D01*
X911148Y1131006D02*
X913314Y1131006D01*
X899829Y1144491D02*
X893874Y1138536D01*
X899829Y1144491D02*
X905784Y1138536D01*
X899829Y1132581D01*
X893874Y1138536D01*
X896220Y1136190D02*
X903438Y1136190D01*
X904521Y1139799D02*
X895137Y1139799D01*
X898746Y1143408D02*
X900912Y1143408D01*
X941201Y1126134D02*
X947156Y1132089D01*
X953111Y1126134D01*
X947156Y1120179D01*
X941201Y1126134D01*
X943547Y1123788D02*
X950765Y1123788D01*
X951848Y1127397D02*
X942464Y1127397D01*
X946073Y1131006D02*
X948239Y1131006D01*
X934754Y1144491D02*
X928799Y1138536D01*
X934754Y1144491D02*
X940709Y1138536D01*
X934754Y1132581D01*
X928799Y1138536D01*
X931145Y1136190D02*
X938363Y1136190D01*
X939446Y1139799D02*
X930062Y1139799D01*
X933671Y1143408D02*
X935837Y1143408D01*
X976126Y1126134D02*
X982081Y1132089D01*
X988036Y1126134D01*
X982081Y1120179D01*
X976126Y1126134D01*
X978472Y1123788D02*
X985690Y1123788D01*
X986773Y1127397D02*
X977389Y1127397D01*
X980998Y1131006D02*
X983164Y1131006D01*
X969679Y1144491D02*
X963724Y1138536D01*
X969679Y1144491D02*
X975634Y1138536D01*
X969679Y1132581D01*
X963724Y1138536D01*
X966070Y1136190D02*
X973288Y1136190D01*
X974371Y1139799D02*
X964987Y1139799D01*
X968596Y1143408D02*
X970762Y1143408D01*
X1011051Y1126134D02*
X1017006Y1132089D01*
X1022961Y1126134D01*
X1017006Y1120179D01*
X1011051Y1126134D01*
X1013397Y1123788D02*
X1020615Y1123788D01*
X1021698Y1127397D02*
X1012314Y1127397D01*
X1015923Y1131006D02*
X1018089Y1131006D01*
X1004604Y1144491D02*
X998649Y1138536D01*
X1004604Y1144491D02*
X1010559Y1138536D01*
X1004604Y1132581D01*
X998649Y1138536D01*
X1000995Y1136190D02*
X1008213Y1136190D01*
X1009296Y1139799D02*
X999912Y1139799D01*
X1003521Y1143408D02*
X1005687Y1143408D01*
X1045976Y1126134D02*
X1051931Y1132089D01*
X1057886Y1126134D01*
X1051931Y1120179D01*
X1045976Y1126134D01*
X1048322Y1123788D02*
X1055540Y1123788D01*
X1056623Y1127397D02*
X1047239Y1127397D01*
X1050848Y1131006D02*
X1053014Y1131006D01*
X1039529Y1144491D02*
X1033574Y1138536D01*
X1039529Y1144491D02*
X1045484Y1138536D01*
X1039529Y1132581D01*
X1033574Y1138536D01*
X1035920Y1136190D02*
X1043138Y1136190D01*
X1044221Y1139799D02*
X1034837Y1139799D01*
X1038446Y1143408D02*
X1040612Y1143408D01*
X772531Y1097164D02*
X766576Y1091209D01*
X772531Y1097164D02*
X778486Y1091209D01*
X772531Y1085254D01*
X766576Y1091209D01*
X768922Y1088863D02*
X776140Y1088863D01*
X777223Y1092472D02*
X767839Y1092472D01*
X771448Y1096081D02*
X773614Y1096081D01*
X760129Y1109566D02*
X754174Y1103611D01*
X760129Y1109566D02*
X766084Y1103611D01*
X760129Y1097656D01*
X754174Y1103611D01*
X756520Y1101265D02*
X763738Y1101265D01*
X764821Y1104874D02*
X755437Y1104874D01*
X759046Y1108483D02*
X761212Y1108483D01*
X801501Y1091209D02*
X807456Y1097164D01*
X813411Y1091209D01*
X807456Y1085254D01*
X801501Y1091209D01*
X803847Y1088863D02*
X811065Y1088863D01*
X812148Y1092472D02*
X802764Y1092472D01*
X806373Y1096081D02*
X808539Y1096081D01*
X795054Y1109566D02*
X789099Y1103611D01*
X795054Y1109566D02*
X801009Y1103611D01*
X795054Y1097656D01*
X789099Y1103611D01*
X791445Y1101265D02*
X798663Y1101265D01*
X799746Y1104874D02*
X790362Y1104874D01*
X793971Y1108483D02*
X796137Y1108483D01*
X836426Y1091209D02*
X842381Y1097164D01*
X848336Y1091209D01*
X842381Y1085254D01*
X836426Y1091209D01*
X838772Y1088863D02*
X845990Y1088863D01*
X847073Y1092472D02*
X837689Y1092472D01*
X841298Y1096081D02*
X843464Y1096081D01*
X829979Y1109566D02*
X824024Y1103611D01*
X829979Y1109566D02*
X835934Y1103611D01*
X829979Y1097656D01*
X824024Y1103611D01*
X826370Y1101265D02*
X833588Y1101265D01*
X834671Y1104874D02*
X825287Y1104874D01*
X828896Y1108483D02*
X831062Y1108483D01*
X871351Y1091209D02*
X877306Y1097164D01*
X883261Y1091209D01*
X877306Y1085254D01*
X871351Y1091209D01*
X873697Y1088863D02*
X880915Y1088863D01*
X881998Y1092472D02*
X872614Y1092472D01*
X876223Y1096081D02*
X878389Y1096081D01*
X864904Y1109566D02*
X858949Y1103611D01*
X864904Y1109566D02*
X870859Y1103611D01*
X864904Y1097656D01*
X858949Y1103611D01*
X861295Y1101265D02*
X868513Y1101265D01*
X869596Y1104874D02*
X860212Y1104874D01*
X863821Y1108483D02*
X865987Y1108483D01*
X906276Y1091209D02*
X912231Y1097164D01*
X918186Y1091209D01*
X912231Y1085254D01*
X906276Y1091209D01*
X908622Y1088863D02*
X915840Y1088863D01*
X916923Y1092472D02*
X907539Y1092472D01*
X911148Y1096081D02*
X913314Y1096081D01*
X899829Y1109566D02*
X893874Y1103611D01*
X899829Y1109566D02*
X905784Y1103611D01*
X899829Y1097656D01*
X893874Y1103611D01*
X896220Y1101265D02*
X903438Y1101265D01*
X904521Y1104874D02*
X895137Y1104874D01*
X898746Y1108483D02*
X900912Y1108483D01*
X941201Y1091209D02*
X947156Y1097164D01*
X953111Y1091209D01*
X947156Y1085254D01*
X941201Y1091209D01*
X943547Y1088863D02*
X950765Y1088863D01*
X951848Y1092472D02*
X942464Y1092472D01*
X946073Y1096081D02*
X948239Y1096081D01*
X934754Y1109566D02*
X928799Y1103611D01*
X934754Y1109566D02*
X940709Y1103611D01*
X934754Y1097656D01*
X928799Y1103611D01*
X931145Y1101265D02*
X938363Y1101265D01*
X939446Y1104874D02*
X930062Y1104874D01*
X933671Y1108483D02*
X935837Y1108483D01*
X976126Y1091209D02*
X982081Y1097164D01*
X988036Y1091209D01*
X982081Y1085254D01*
X976126Y1091209D01*
X978472Y1088863D02*
X985690Y1088863D01*
X986773Y1092472D02*
X977389Y1092472D01*
X980998Y1096081D02*
X983164Y1096081D01*
X969679Y1109566D02*
X963724Y1103611D01*
X969679Y1109566D02*
X975634Y1103611D01*
X969679Y1097656D01*
X963724Y1103611D01*
X966070Y1101265D02*
X973288Y1101265D01*
X974371Y1104874D02*
X964987Y1104874D01*
X968596Y1108483D02*
X970762Y1108483D01*
X1011051Y1091209D02*
X1017006Y1097164D01*
X1022961Y1091209D01*
X1017006Y1085254D01*
X1011051Y1091209D01*
X1013397Y1088863D02*
X1020615Y1088863D01*
X1021698Y1092472D02*
X1012314Y1092472D01*
X1015923Y1096081D02*
X1018089Y1096081D01*
X1004604Y1109566D02*
X998649Y1103611D01*
X1004604Y1109566D02*
X1010559Y1103611D01*
X1004604Y1097656D01*
X998649Y1103611D01*
X1000995Y1101265D02*
X1008213Y1101265D01*
X1009296Y1104874D02*
X999912Y1104874D01*
X1003521Y1108483D02*
X1005687Y1108483D01*
X1045976Y1091209D02*
X1051931Y1097164D01*
X1057886Y1091209D01*
X1051931Y1085254D01*
X1045976Y1091209D01*
X1048322Y1088863D02*
X1055540Y1088863D01*
X1056623Y1092472D02*
X1047239Y1092472D01*
X1050848Y1096081D02*
X1053014Y1096081D01*
X1039529Y1109566D02*
X1033574Y1103611D01*
X1039529Y1109566D02*
X1045484Y1103611D01*
X1039529Y1097656D01*
X1033574Y1103611D01*
X1035920Y1101265D02*
X1043138Y1101265D01*
X1044221Y1104874D02*
X1034837Y1104874D01*
X1038446Y1108483D02*
X1040612Y1108483D01*
X772531Y1062239D02*
X766576Y1056284D01*
X772531Y1062239D02*
X778486Y1056284D01*
X772531Y1050329D01*
X766576Y1056284D01*
X768922Y1053938D02*
X776140Y1053938D01*
X777223Y1057547D02*
X767839Y1057547D01*
X771448Y1061156D02*
X773614Y1061156D01*
X760129Y1074641D02*
X754174Y1068686D01*
X760129Y1074641D02*
X766084Y1068686D01*
X760129Y1062731D01*
X754174Y1068686D01*
X756520Y1066340D02*
X763738Y1066340D01*
X764821Y1069949D02*
X755437Y1069949D01*
X759046Y1073558D02*
X761212Y1073558D01*
X801501Y1056284D02*
X807456Y1062239D01*
X813411Y1056284D01*
X807456Y1050329D01*
X801501Y1056284D01*
X803847Y1053938D02*
X811065Y1053938D01*
X812148Y1057547D02*
X802764Y1057547D01*
X806373Y1061156D02*
X808539Y1061156D01*
X795054Y1074641D02*
X789099Y1068686D01*
X795054Y1074641D02*
X801009Y1068686D01*
X795054Y1062731D01*
X789099Y1068686D01*
X791445Y1066340D02*
X798663Y1066340D01*
X799746Y1069949D02*
X790362Y1069949D01*
X793971Y1073558D02*
X796137Y1073558D01*
X836426Y1056284D02*
X842381Y1062239D01*
X848336Y1056284D01*
X842381Y1050329D01*
X836426Y1056284D01*
X838772Y1053938D02*
X845990Y1053938D01*
X847073Y1057547D02*
X837689Y1057547D01*
X841298Y1061156D02*
X843464Y1061156D01*
X829979Y1074641D02*
X824024Y1068686D01*
X829979Y1074641D02*
X835934Y1068686D01*
X829979Y1062731D01*
X824024Y1068686D01*
X826370Y1066340D02*
X833588Y1066340D01*
X834671Y1069949D02*
X825287Y1069949D01*
X828896Y1073558D02*
X831062Y1073558D01*
X871351Y1056284D02*
X877306Y1062239D01*
X883261Y1056284D01*
X877306Y1050329D01*
X871351Y1056284D01*
X873697Y1053938D02*
X880915Y1053938D01*
X881998Y1057547D02*
X872614Y1057547D01*
X876223Y1061156D02*
X878389Y1061156D01*
X864904Y1074641D02*
X858949Y1068686D01*
X864904Y1074641D02*
X870859Y1068686D01*
X864904Y1062731D01*
X858949Y1068686D01*
X861295Y1066340D02*
X868513Y1066340D01*
X869596Y1069949D02*
X860212Y1069949D01*
X863821Y1073558D02*
X865987Y1073558D01*
X906276Y1056284D02*
X912231Y1062239D01*
X918186Y1056284D01*
X912231Y1050329D01*
X906276Y1056284D01*
X908622Y1053938D02*
X915840Y1053938D01*
X916923Y1057547D02*
X907539Y1057547D01*
X911148Y1061156D02*
X913314Y1061156D01*
X899829Y1074641D02*
X893874Y1068686D01*
X899829Y1074641D02*
X905784Y1068686D01*
X899829Y1062731D01*
X893874Y1068686D01*
X896220Y1066340D02*
X903438Y1066340D01*
X904521Y1069949D02*
X895137Y1069949D01*
X898746Y1073558D02*
X900912Y1073558D01*
X941201Y1056284D02*
X947156Y1062239D01*
X953111Y1056284D01*
X947156Y1050329D01*
X941201Y1056284D01*
X943547Y1053938D02*
X950765Y1053938D01*
X951848Y1057547D02*
X942464Y1057547D01*
X946073Y1061156D02*
X948239Y1061156D01*
X934754Y1074641D02*
X928799Y1068686D01*
X934754Y1074641D02*
X940709Y1068686D01*
X934754Y1062731D01*
X928799Y1068686D01*
X931145Y1066340D02*
X938363Y1066340D01*
X939446Y1069949D02*
X930062Y1069949D01*
X933671Y1073558D02*
X935837Y1073558D01*
X976126Y1056284D02*
X982081Y1062239D01*
X988036Y1056284D01*
X982081Y1050329D01*
X976126Y1056284D01*
X978472Y1053938D02*
X985690Y1053938D01*
X986773Y1057547D02*
X977389Y1057547D01*
X980998Y1061156D02*
X983164Y1061156D01*
X969679Y1074641D02*
X963724Y1068686D01*
X969679Y1074641D02*
X975634Y1068686D01*
X969679Y1062731D01*
X963724Y1068686D01*
X966070Y1066340D02*
X973288Y1066340D01*
X974371Y1069949D02*
X964987Y1069949D01*
X968596Y1073558D02*
X970762Y1073558D01*
X1011051Y1056284D02*
X1017006Y1062239D01*
X1022961Y1056284D01*
X1017006Y1050329D01*
X1011051Y1056284D01*
X1013397Y1053938D02*
X1020615Y1053938D01*
X1021698Y1057547D02*
X1012314Y1057547D01*
X1015923Y1061156D02*
X1018089Y1061156D01*
X1004604Y1074641D02*
X998649Y1068686D01*
X1004604Y1074641D02*
X1010559Y1068686D01*
X1004604Y1062731D01*
X998649Y1068686D01*
X1000995Y1066340D02*
X1008213Y1066340D01*
X1009296Y1069949D02*
X999912Y1069949D01*
X1003521Y1073558D02*
X1005687Y1073558D01*
X1045976Y1056284D02*
X1051931Y1062239D01*
X1057886Y1056284D01*
X1051931Y1050329D01*
X1045976Y1056284D01*
X1048322Y1053938D02*
X1055540Y1053938D01*
X1056623Y1057547D02*
X1047239Y1057547D01*
X1050848Y1061156D02*
X1053014Y1061156D01*
X1039529Y1074641D02*
X1033574Y1068686D01*
X1039529Y1074641D02*
X1045484Y1068686D01*
X1039529Y1062731D01*
X1033574Y1068686D01*
X1035920Y1066340D02*
X1043138Y1066340D01*
X1044221Y1069949D02*
X1034837Y1069949D01*
X1038446Y1073558D02*
X1040612Y1073558D01*
X772531Y1027314D02*
X766576Y1021359D01*
X772531Y1027314D02*
X778486Y1021359D01*
X772531Y1015404D01*
X766576Y1021359D01*
X768922Y1019013D02*
X776140Y1019013D01*
X777223Y1022622D02*
X767839Y1022622D01*
X771448Y1026231D02*
X773614Y1026231D01*
X760129Y1039716D02*
X754174Y1033761D01*
X760129Y1039716D02*
X766084Y1033761D01*
X760129Y1027806D01*
X754174Y1033761D01*
X756520Y1031415D02*
X763738Y1031415D01*
X764821Y1035024D02*
X755437Y1035024D01*
X759046Y1038633D02*
X761212Y1038633D01*
X801501Y1021359D02*
X807456Y1027314D01*
X813411Y1021359D01*
X807456Y1015404D01*
X801501Y1021359D01*
X803847Y1019013D02*
X811065Y1019013D01*
X812148Y1022622D02*
X802764Y1022622D01*
X806373Y1026231D02*
X808539Y1026231D01*
X795054Y1039716D02*
X789099Y1033761D01*
X795054Y1039716D02*
X801009Y1033761D01*
X795054Y1027806D01*
X789099Y1033761D01*
X791445Y1031415D02*
X798663Y1031415D01*
X799746Y1035024D02*
X790362Y1035024D01*
X793971Y1038633D02*
X796137Y1038633D01*
X836426Y1021359D02*
X842381Y1027314D01*
X848336Y1021359D01*
X842381Y1015404D01*
X836426Y1021359D01*
X838772Y1019013D02*
X845990Y1019013D01*
X847073Y1022622D02*
X837689Y1022622D01*
X841298Y1026231D02*
X843464Y1026231D01*
X829979Y1039716D02*
X824024Y1033761D01*
X829979Y1039716D02*
X835934Y1033761D01*
X829979Y1027806D01*
X824024Y1033761D01*
X826370Y1031415D02*
X833588Y1031415D01*
X834671Y1035024D02*
X825287Y1035024D01*
X828896Y1038633D02*
X831062Y1038633D01*
X871351Y1021359D02*
X877306Y1027314D01*
X883261Y1021359D01*
X877306Y1015404D01*
X871351Y1021359D01*
X873697Y1019013D02*
X880915Y1019013D01*
X881998Y1022622D02*
X872614Y1022622D01*
X876223Y1026231D02*
X878389Y1026231D01*
X864904Y1039716D02*
X858949Y1033761D01*
X864904Y1039716D02*
X870859Y1033761D01*
X864904Y1027806D01*
X858949Y1033761D01*
X861295Y1031415D02*
X868513Y1031415D01*
X869596Y1035024D02*
X860212Y1035024D01*
X863821Y1038633D02*
X865987Y1038633D01*
X906276Y1021359D02*
X912231Y1027314D01*
X918186Y1021359D01*
X912231Y1015404D01*
X906276Y1021359D01*
X908622Y1019013D02*
X915840Y1019013D01*
X916923Y1022622D02*
X907539Y1022622D01*
X911148Y1026231D02*
X913314Y1026231D01*
X899829Y1039716D02*
X893874Y1033761D01*
X899829Y1039716D02*
X905784Y1033761D01*
X899829Y1027806D01*
X893874Y1033761D01*
X896220Y1031415D02*
X903438Y1031415D01*
X904521Y1035024D02*
X895137Y1035024D01*
X898746Y1038633D02*
X900912Y1038633D01*
X941201Y1021359D02*
X947156Y1027314D01*
X953111Y1021359D01*
X947156Y1015404D01*
X941201Y1021359D01*
X943547Y1019013D02*
X950765Y1019013D01*
X951848Y1022622D02*
X942464Y1022622D01*
X946073Y1026231D02*
X948239Y1026231D01*
X934754Y1039716D02*
X928799Y1033761D01*
X934754Y1039716D02*
X940709Y1033761D01*
X934754Y1027806D01*
X928799Y1033761D01*
X931145Y1031415D02*
X938363Y1031415D01*
X939446Y1035024D02*
X930062Y1035024D01*
X933671Y1038633D02*
X935837Y1038633D01*
X976126Y1021359D02*
X982081Y1027314D01*
X988036Y1021359D01*
X982081Y1015404D01*
X976126Y1021359D01*
X978472Y1019013D02*
X985690Y1019013D01*
X986773Y1022622D02*
X977389Y1022622D01*
X980998Y1026231D02*
X983164Y1026231D01*
X969679Y1039716D02*
X963724Y1033761D01*
X969679Y1039716D02*
X975634Y1033761D01*
X969679Y1027806D01*
X963724Y1033761D01*
X966070Y1031415D02*
X973288Y1031415D01*
X974371Y1035024D02*
X964987Y1035024D01*
X968596Y1038633D02*
X970762Y1038633D01*
X1011051Y1021359D02*
X1017006Y1027314D01*
X1022961Y1021359D01*
X1017006Y1015404D01*
X1011051Y1021359D01*
X1013397Y1019013D02*
X1020615Y1019013D01*
X1021698Y1022622D02*
X1012314Y1022622D01*
X1015923Y1026231D02*
X1018089Y1026231D01*
X1004604Y1039716D02*
X998649Y1033761D01*
X1004604Y1039716D02*
X1010559Y1033761D01*
X1004604Y1027806D01*
X998649Y1033761D01*
X1000995Y1031415D02*
X1008213Y1031415D01*
X1009296Y1035024D02*
X999912Y1035024D01*
X1003521Y1038633D02*
X1005687Y1038633D01*
X1045976Y1021359D02*
X1051931Y1027314D01*
X1057886Y1021359D01*
X1051931Y1015404D01*
X1045976Y1021359D01*
X1048322Y1019013D02*
X1055540Y1019013D01*
X1056623Y1022622D02*
X1047239Y1022622D01*
X1050848Y1026231D02*
X1053014Y1026231D01*
X1039529Y1039716D02*
X1033574Y1033761D01*
X1039529Y1039716D02*
X1045484Y1033761D01*
X1039529Y1027806D01*
X1033574Y1033761D01*
X1035920Y1031415D02*
X1043138Y1031415D01*
X1044221Y1035024D02*
X1034837Y1035024D01*
X1038446Y1038633D02*
X1040612Y1038633D01*
X772531Y992389D02*
X766576Y986434D01*
X772531Y992389D02*
X778486Y986434D01*
X772531Y980479D01*
X766576Y986434D01*
X768922Y984088D02*
X776140Y984088D01*
X777223Y987697D02*
X767839Y987697D01*
X771448Y991306D02*
X773614Y991306D01*
X760129Y1004791D02*
X754174Y998836D01*
X760129Y1004791D02*
X766084Y998836D01*
X760129Y992881D01*
X754174Y998836D01*
X756520Y996490D02*
X763738Y996490D01*
X764821Y1000099D02*
X755437Y1000099D01*
X759046Y1003708D02*
X761212Y1003708D01*
X801501Y986434D02*
X807456Y992389D01*
X813411Y986434D01*
X807456Y980479D01*
X801501Y986434D01*
X803847Y984088D02*
X811065Y984088D01*
X812148Y987697D02*
X802764Y987697D01*
X806373Y991306D02*
X808539Y991306D01*
X795054Y1004791D02*
X789099Y998836D01*
X795054Y1004791D02*
X801009Y998836D01*
X795054Y992881D01*
X789099Y998836D01*
X791445Y996490D02*
X798663Y996490D01*
X799746Y1000099D02*
X790362Y1000099D01*
X793971Y1003708D02*
X796137Y1003708D01*
X836426Y986434D02*
X842381Y992389D01*
X848336Y986434D01*
X842381Y980479D01*
X836426Y986434D01*
X838772Y984088D02*
X845990Y984088D01*
X847073Y987697D02*
X837689Y987697D01*
X841298Y991306D02*
X843464Y991306D01*
X829979Y1004791D02*
X824024Y998836D01*
X829979Y1004791D02*
X835934Y998836D01*
X829979Y992881D01*
X824024Y998836D01*
X826370Y996490D02*
X833588Y996490D01*
X834671Y1000099D02*
X825287Y1000099D01*
X828896Y1003708D02*
X831062Y1003708D01*
X871351Y986434D02*
X877306Y992389D01*
X883261Y986434D01*
X877306Y980479D01*
X871351Y986434D01*
X873697Y984088D02*
X880915Y984088D01*
X881998Y987697D02*
X872614Y987697D01*
X876223Y991306D02*
X878389Y991306D01*
X864904Y1004791D02*
X858949Y998836D01*
X864904Y1004791D02*
X870859Y998836D01*
X864904Y992881D01*
X858949Y998836D01*
X861295Y996490D02*
X868513Y996490D01*
X869596Y1000099D02*
X860212Y1000099D01*
X863821Y1003708D02*
X865987Y1003708D01*
X906276Y986434D02*
X912231Y992389D01*
X918186Y986434D01*
X912231Y980479D01*
X906276Y986434D01*
X908622Y984088D02*
X915840Y984088D01*
X916923Y987697D02*
X907539Y987697D01*
X911148Y991306D02*
X913314Y991306D01*
X899829Y1004791D02*
X893874Y998836D01*
X899829Y1004791D02*
X905784Y998836D01*
X899829Y992881D01*
X893874Y998836D01*
X896220Y996490D02*
X903438Y996490D01*
X904521Y1000099D02*
X895137Y1000099D01*
X898746Y1003708D02*
X900912Y1003708D01*
X941201Y986434D02*
X947156Y992389D01*
X953111Y986434D01*
X947156Y980479D01*
X941201Y986434D01*
X943547Y984088D02*
X950765Y984088D01*
X951848Y987697D02*
X942464Y987697D01*
X946073Y991306D02*
X948239Y991306D01*
X934754Y1004791D02*
X928799Y998836D01*
X934754Y1004791D02*
X940709Y998836D01*
X934754Y992881D01*
X928799Y998836D01*
X931145Y996490D02*
X938363Y996490D01*
X939446Y1000099D02*
X930062Y1000099D01*
X933671Y1003708D02*
X935837Y1003708D01*
X976126Y986434D02*
X982081Y992389D01*
X988036Y986434D01*
X982081Y980479D01*
X976126Y986434D01*
X978472Y984088D02*
X985690Y984088D01*
X986773Y987697D02*
X977389Y987697D01*
X980998Y991306D02*
X983164Y991306D01*
X969679Y1004791D02*
X963724Y998836D01*
X969679Y1004791D02*
X975634Y998836D01*
X969679Y992881D01*
X963724Y998836D01*
X966070Y996490D02*
X973288Y996490D01*
X974371Y1000099D02*
X964987Y1000099D01*
X968596Y1003708D02*
X970762Y1003708D01*
X1011051Y986434D02*
X1017006Y992389D01*
X1022961Y986434D01*
X1017006Y980479D01*
X1011051Y986434D01*
X1013397Y984088D02*
X1020615Y984088D01*
X1021698Y987697D02*
X1012314Y987697D01*
X1015923Y991306D02*
X1018089Y991306D01*
X1004604Y1004791D02*
X998649Y998836D01*
X1004604Y1004791D02*
X1010559Y998836D01*
X1004604Y992881D01*
X998649Y998836D01*
X1000995Y996490D02*
X1008213Y996490D01*
X1009296Y1000099D02*
X999912Y1000099D01*
X1003521Y1003708D02*
X1005687Y1003708D01*
X1045976Y986434D02*
X1051931Y992389D01*
X1057886Y986434D01*
X1051931Y980479D01*
X1045976Y986434D01*
X1048322Y984088D02*
X1055540Y984088D01*
X1056623Y987697D02*
X1047239Y987697D01*
X1050848Y991306D02*
X1053014Y991306D01*
X1039529Y1004791D02*
X1033574Y998836D01*
X1039529Y1004791D02*
X1045484Y998836D01*
X1039529Y992881D01*
X1033574Y998836D01*
X1035920Y996490D02*
X1043138Y996490D01*
X1044221Y1000099D02*
X1034837Y1000099D01*
X1038446Y1003708D02*
X1040612Y1003708D01*
X772531Y957464D02*
X766576Y951509D01*
X772531Y957464D02*
X778486Y951509D01*
X772531Y945554D01*
X766576Y951509D01*
X768922Y949163D02*
X776140Y949163D01*
X777223Y952772D02*
X767839Y952772D01*
X771448Y956381D02*
X773614Y956381D01*
X760129Y969866D02*
X754174Y963911D01*
X760129Y969866D02*
X766084Y963911D01*
X760129Y957956D01*
X754174Y963911D01*
X756520Y961565D02*
X763738Y961565D01*
X764821Y965174D02*
X755437Y965174D01*
X759046Y968783D02*
X761212Y968783D01*
X801501Y951509D02*
X807456Y957464D01*
X813411Y951509D01*
X807456Y945554D01*
X801501Y951509D01*
X803847Y949163D02*
X811065Y949163D01*
X812148Y952772D02*
X802764Y952772D01*
X806373Y956381D02*
X808539Y956381D01*
X795054Y969866D02*
X789099Y963911D01*
X795054Y969866D02*
X801009Y963911D01*
X795054Y957956D01*
X789099Y963911D01*
X791445Y961565D02*
X798663Y961565D01*
X799746Y965174D02*
X790362Y965174D01*
X793971Y968783D02*
X796137Y968783D01*
X836426Y951509D02*
X842381Y957464D01*
X848336Y951509D01*
X842381Y945554D01*
X836426Y951509D01*
X838772Y949163D02*
X845990Y949163D01*
X847073Y952772D02*
X837689Y952772D01*
X841298Y956381D02*
X843464Y956381D01*
X829979Y969866D02*
X824024Y963911D01*
X829979Y969866D02*
X835934Y963911D01*
X829979Y957956D01*
X824024Y963911D01*
X826370Y961565D02*
X833588Y961565D01*
X834671Y965174D02*
X825287Y965174D01*
X828896Y968783D02*
X831062Y968783D01*
X871351Y951509D02*
X877306Y957464D01*
X883261Y951509D01*
X877306Y945554D01*
X871351Y951509D01*
X873697Y949163D02*
X880915Y949163D01*
X881998Y952772D02*
X872614Y952772D01*
X876223Y956381D02*
X878389Y956381D01*
X864904Y969866D02*
X858949Y963911D01*
X864904Y969866D02*
X870859Y963911D01*
X864904Y957956D01*
X858949Y963911D01*
X861295Y961565D02*
X868513Y961565D01*
X869596Y965174D02*
X860212Y965174D01*
X863821Y968783D02*
X865987Y968783D01*
X906276Y951509D02*
X912231Y957464D01*
X918186Y951509D01*
X912231Y945554D01*
X906276Y951509D01*
X908622Y949163D02*
X915840Y949163D01*
X916923Y952772D02*
X907539Y952772D01*
X911148Y956381D02*
X913314Y956381D01*
X899829Y969866D02*
X893874Y963911D01*
X899829Y969866D02*
X905784Y963911D01*
X899829Y957956D01*
X893874Y963911D01*
X896220Y961565D02*
X903438Y961565D01*
X904521Y965174D02*
X895137Y965174D01*
X898746Y968783D02*
X900912Y968783D01*
X941201Y951509D02*
X947156Y957464D01*
X953111Y951509D01*
X947156Y945554D01*
X941201Y951509D01*
X943547Y949163D02*
X950765Y949163D01*
X951848Y952772D02*
X942464Y952772D01*
X946073Y956381D02*
X948239Y956381D01*
X934754Y969866D02*
X928799Y963911D01*
X934754Y969866D02*
X940709Y963911D01*
X934754Y957956D01*
X928799Y963911D01*
X931145Y961565D02*
X938363Y961565D01*
X939446Y965174D02*
X930062Y965174D01*
X933671Y968783D02*
X935837Y968783D01*
X976126Y951509D02*
X982081Y957464D01*
X988036Y951509D01*
X982081Y945554D01*
X976126Y951509D01*
X978472Y949163D02*
X985690Y949163D01*
X986773Y952772D02*
X977389Y952772D01*
X980998Y956381D02*
X983164Y956381D01*
X969679Y969866D02*
X963724Y963911D01*
X969679Y969866D02*
X975634Y963911D01*
X969679Y957956D01*
X963724Y963911D01*
X966070Y961565D02*
X973288Y961565D01*
X974371Y965174D02*
X964987Y965174D01*
X968596Y968783D02*
X970762Y968783D01*
X1011051Y951509D02*
X1017006Y957464D01*
X1022961Y951509D01*
X1017006Y945554D01*
X1011051Y951509D01*
X1013397Y949163D02*
X1020615Y949163D01*
X1021698Y952772D02*
X1012314Y952772D01*
X1015923Y956381D02*
X1018089Y956381D01*
X1004604Y969866D02*
X998649Y963911D01*
X1004604Y969866D02*
X1010559Y963911D01*
X1004604Y957956D01*
X998649Y963911D01*
X1000995Y961565D02*
X1008213Y961565D01*
X1009296Y965174D02*
X999912Y965174D01*
X1003521Y968783D02*
X1005687Y968783D01*
X1045976Y951509D02*
X1051931Y957464D01*
X1057886Y951509D01*
X1051931Y945554D01*
X1045976Y951509D01*
X1048322Y949163D02*
X1055540Y949163D01*
X1056623Y952772D02*
X1047239Y952772D01*
X1050848Y956381D02*
X1053014Y956381D01*
X1039529Y969866D02*
X1033574Y963911D01*
X1039529Y969866D02*
X1045484Y963911D01*
X1039529Y957956D01*
X1033574Y963911D01*
X1035920Y961565D02*
X1043138Y961565D01*
X1044221Y965174D02*
X1034837Y965174D01*
X1038446Y968783D02*
X1040612Y968783D01*
X772531Y922539D02*
X766576Y916584D01*
X772531Y922539D02*
X778486Y916584D01*
X772531Y910629D01*
X766576Y916584D01*
X768922Y914238D02*
X776140Y914238D01*
X777223Y917847D02*
X767839Y917847D01*
X771448Y921456D02*
X773614Y921456D01*
X760129Y934941D02*
X754174Y928986D01*
X760129Y934941D02*
X766084Y928986D01*
X760129Y923031D01*
X754174Y928986D01*
X756520Y926640D02*
X763738Y926640D01*
X764821Y930249D02*
X755437Y930249D01*
X759046Y933858D02*
X761212Y933858D01*
X801501Y916584D02*
X807456Y922539D01*
X813411Y916584D01*
X807456Y910629D01*
X801501Y916584D01*
X803847Y914238D02*
X811065Y914238D01*
X812148Y917847D02*
X802764Y917847D01*
X806373Y921456D02*
X808539Y921456D01*
X795054Y934941D02*
X789099Y928986D01*
X795054Y934941D02*
X801009Y928986D01*
X795054Y923031D01*
X789099Y928986D01*
X791445Y926640D02*
X798663Y926640D01*
X799746Y930249D02*
X790362Y930249D01*
X793971Y933858D02*
X796137Y933858D01*
X836426Y916584D02*
X842381Y922539D01*
X848336Y916584D01*
X842381Y910629D01*
X836426Y916584D01*
X838772Y914238D02*
X845990Y914238D01*
X847073Y917847D02*
X837689Y917847D01*
X841298Y921456D02*
X843464Y921456D01*
X829979Y934941D02*
X824024Y928986D01*
X829979Y934941D02*
X835934Y928986D01*
X829979Y923031D01*
X824024Y928986D01*
X826370Y926640D02*
X833588Y926640D01*
X834671Y930249D02*
X825287Y930249D01*
X828896Y933858D02*
X831062Y933858D01*
X871351Y916584D02*
X877306Y922539D01*
X883261Y916584D01*
X877306Y910629D01*
X871351Y916584D01*
X873697Y914238D02*
X880915Y914238D01*
X881998Y917847D02*
X872614Y917847D01*
X876223Y921456D02*
X878389Y921456D01*
X864904Y934941D02*
X858949Y928986D01*
X864904Y934941D02*
X870859Y928986D01*
X864904Y923031D01*
X858949Y928986D01*
X861295Y926640D02*
X868513Y926640D01*
X869596Y930249D02*
X860212Y930249D01*
X863821Y933858D02*
X865987Y933858D01*
X906276Y916584D02*
X912231Y922539D01*
X918186Y916584D01*
X912231Y910629D01*
X906276Y916584D01*
X908622Y914238D02*
X915840Y914238D01*
X916923Y917847D02*
X907539Y917847D01*
X911148Y921456D02*
X913314Y921456D01*
X899829Y934941D02*
X893874Y928986D01*
X899829Y934941D02*
X905784Y928986D01*
X899829Y923031D01*
X893874Y928986D01*
X896220Y926640D02*
X903438Y926640D01*
X904521Y930249D02*
X895137Y930249D01*
X898746Y933858D02*
X900912Y933858D01*
X941201Y916584D02*
X947156Y922539D01*
X953111Y916584D01*
X947156Y910629D01*
X941201Y916584D01*
X943547Y914238D02*
X950765Y914238D01*
X951848Y917847D02*
X942464Y917847D01*
X946073Y921456D02*
X948239Y921456D01*
X934754Y934941D02*
X928799Y928986D01*
X934754Y934941D02*
X940709Y928986D01*
X934754Y923031D01*
X928799Y928986D01*
X931145Y926640D02*
X938363Y926640D01*
X939446Y930249D02*
X930062Y930249D01*
X933671Y933858D02*
X935837Y933858D01*
X976126Y916584D02*
X982081Y922539D01*
X988036Y916584D01*
X982081Y910629D01*
X976126Y916584D01*
X978472Y914238D02*
X985690Y914238D01*
X986773Y917847D02*
X977389Y917847D01*
X980998Y921456D02*
X983164Y921456D01*
X969679Y934941D02*
X963724Y928986D01*
X969679Y934941D02*
X975634Y928986D01*
X969679Y923031D01*
X963724Y928986D01*
X966070Y926640D02*
X973288Y926640D01*
X974371Y930249D02*
X964987Y930249D01*
X968596Y933858D02*
X970762Y933858D01*
X1011051Y916584D02*
X1017006Y922539D01*
X1022961Y916584D01*
X1017006Y910629D01*
X1011051Y916584D01*
X1013397Y914238D02*
X1020615Y914238D01*
X1021698Y917847D02*
X1012314Y917847D01*
X1015923Y921456D02*
X1018089Y921456D01*
X1004604Y934941D02*
X998649Y928986D01*
X1004604Y934941D02*
X1010559Y928986D01*
X1004604Y923031D01*
X998649Y928986D01*
X1000995Y926640D02*
X1008213Y926640D01*
X1009296Y930249D02*
X999912Y930249D01*
X1003521Y933858D02*
X1005687Y933858D01*
X1045976Y916584D02*
X1051931Y922539D01*
X1057886Y916584D01*
X1051931Y910629D01*
X1045976Y916584D01*
X1048322Y914238D02*
X1055540Y914238D01*
X1056623Y917847D02*
X1047239Y917847D01*
X1050848Y921456D02*
X1053014Y921456D01*
X1039529Y934941D02*
X1033574Y928986D01*
X1039529Y934941D02*
X1045484Y928986D01*
X1039529Y923031D01*
X1033574Y928986D01*
X1035920Y926640D02*
X1043138Y926640D01*
X1044221Y930249D02*
X1034837Y930249D01*
X1038446Y933858D02*
X1040612Y933858D01*
X772531Y887614D02*
X766576Y881659D01*
X772531Y887614D02*
X778486Y881659D01*
X772531Y875704D01*
X766576Y881659D01*
X768922Y879313D02*
X776140Y879313D01*
X777223Y882922D02*
X767839Y882922D01*
X771448Y886531D02*
X773614Y886531D01*
X760129Y900016D02*
X754174Y894061D01*
X760129Y900016D02*
X766084Y894061D01*
X760129Y888106D01*
X754174Y894061D01*
X756520Y891715D02*
X763738Y891715D01*
X764821Y895324D02*
X755437Y895324D01*
X759046Y898933D02*
X761212Y898933D01*
X801501Y881659D02*
X807456Y887614D01*
X813411Y881659D01*
X807456Y875704D01*
X801501Y881659D01*
X803847Y879313D02*
X811065Y879313D01*
X812148Y882922D02*
X802764Y882922D01*
X806373Y886531D02*
X808539Y886531D01*
X795054Y900016D02*
X789099Y894061D01*
X795054Y900016D02*
X801009Y894061D01*
X795054Y888106D01*
X789099Y894061D01*
X791445Y891715D02*
X798663Y891715D01*
X799746Y895324D02*
X790362Y895324D01*
X793971Y898933D02*
X796137Y898933D01*
X836426Y881659D02*
X842381Y887614D01*
X848336Y881659D01*
X842381Y875704D01*
X836426Y881659D01*
X838772Y879313D02*
X845990Y879313D01*
X847073Y882922D02*
X837689Y882922D01*
X841298Y886531D02*
X843464Y886531D01*
X829979Y900016D02*
X824024Y894061D01*
X829979Y900016D02*
X835934Y894061D01*
X829979Y888106D01*
X824024Y894061D01*
X826370Y891715D02*
X833588Y891715D01*
X834671Y895324D02*
X825287Y895324D01*
X828896Y898933D02*
X831062Y898933D01*
X871351Y881659D02*
X877306Y887614D01*
X883261Y881659D01*
X877306Y875704D01*
X871351Y881659D01*
X873697Y879313D02*
X880915Y879313D01*
X881998Y882922D02*
X872614Y882922D01*
X876223Y886531D02*
X878389Y886531D01*
X864904Y900016D02*
X858949Y894061D01*
X864904Y900016D02*
X870859Y894061D01*
X864904Y888106D01*
X858949Y894061D01*
X861295Y891715D02*
X868513Y891715D01*
X869596Y895324D02*
X860212Y895324D01*
X863821Y898933D02*
X865987Y898933D01*
X906276Y881659D02*
X912231Y887614D01*
X918186Y881659D01*
X912231Y875704D01*
X906276Y881659D01*
X908622Y879313D02*
X915840Y879313D01*
X916923Y882922D02*
X907539Y882922D01*
X911148Y886531D02*
X913314Y886531D01*
X899829Y900016D02*
X893874Y894061D01*
X899829Y900016D02*
X905784Y894061D01*
X899829Y888106D01*
X893874Y894061D01*
X896220Y891715D02*
X903438Y891715D01*
X904521Y895324D02*
X895137Y895324D01*
X898746Y898933D02*
X900912Y898933D01*
X941201Y881659D02*
X947156Y887614D01*
X953111Y881659D01*
X947156Y875704D01*
X941201Y881659D01*
X943547Y879313D02*
X950765Y879313D01*
X951848Y882922D02*
X942464Y882922D01*
X946073Y886531D02*
X948239Y886531D01*
X934754Y900016D02*
X928799Y894061D01*
X934754Y900016D02*
X940709Y894061D01*
X934754Y888106D01*
X928799Y894061D01*
X931145Y891715D02*
X938363Y891715D01*
X939446Y895324D02*
X930062Y895324D01*
X933671Y898933D02*
X935837Y898933D01*
X976126Y881659D02*
X982081Y887614D01*
X988036Y881659D01*
X982081Y875704D01*
X976126Y881659D01*
X978472Y879313D02*
X985690Y879313D01*
X986773Y882922D02*
X977389Y882922D01*
X980998Y886531D02*
X983164Y886531D01*
X969679Y900016D02*
X963724Y894061D01*
X969679Y900016D02*
X975634Y894061D01*
X969679Y888106D01*
X963724Y894061D01*
X966070Y891715D02*
X973288Y891715D01*
X974371Y895324D02*
X964987Y895324D01*
X968596Y898933D02*
X970762Y898933D01*
X1011051Y881659D02*
X1017006Y887614D01*
X1022961Y881659D01*
X1017006Y875704D01*
X1011051Y881659D01*
X1013397Y879313D02*
X1020615Y879313D01*
X1021698Y882922D02*
X1012314Y882922D01*
X1015923Y886531D02*
X1018089Y886531D01*
X1004604Y900016D02*
X998649Y894061D01*
X1004604Y900016D02*
X1010559Y894061D01*
X1004604Y888106D01*
X998649Y894061D01*
X1000995Y891715D02*
X1008213Y891715D01*
X1009296Y895324D02*
X999912Y895324D01*
X1003521Y898933D02*
X1005687Y898933D01*
X1045976Y881659D02*
X1051931Y887614D01*
X1057886Y881659D01*
X1051931Y875704D01*
X1045976Y881659D01*
X1048322Y879313D02*
X1055540Y879313D01*
X1056623Y882922D02*
X1047239Y882922D01*
X1050848Y886531D02*
X1053014Y886531D01*
X1039529Y900016D02*
X1033574Y894061D01*
X1039529Y900016D02*
X1045484Y894061D01*
X1039529Y888106D01*
X1033574Y894061D01*
X1035920Y891715D02*
X1043138Y891715D01*
X1044221Y895324D02*
X1034837Y895324D01*
X1038446Y898933D02*
X1040612Y898933D01*
X772531Y852689D02*
X766576Y846734D01*
X772531Y852689D02*
X778486Y846734D01*
X772531Y840779D01*
X766576Y846734D01*
X768922Y844388D02*
X776140Y844388D01*
X777223Y847997D02*
X767839Y847997D01*
X771448Y851606D02*
X773614Y851606D01*
X760129Y865091D02*
X754174Y859136D01*
X760129Y865091D02*
X766084Y859136D01*
X760129Y853181D01*
X754174Y859136D01*
X756520Y856790D02*
X763738Y856790D01*
X764821Y860399D02*
X755437Y860399D01*
X759046Y864008D02*
X761212Y864008D01*
X801501Y846734D02*
X807456Y852689D01*
X813411Y846734D01*
X807456Y840779D01*
X801501Y846734D01*
X803847Y844388D02*
X811065Y844388D01*
X812148Y847997D02*
X802764Y847997D01*
X806373Y851606D02*
X808539Y851606D01*
X795054Y865091D02*
X789099Y859136D01*
X795054Y865091D02*
X801009Y859136D01*
X795054Y853181D01*
X789099Y859136D01*
X791445Y856790D02*
X798663Y856790D01*
X799746Y860399D02*
X790362Y860399D01*
X793971Y864008D02*
X796137Y864008D01*
X836426Y846734D02*
X842381Y852689D01*
X848336Y846734D01*
X842381Y840779D01*
X836426Y846734D01*
X838772Y844388D02*
X845990Y844388D01*
X847073Y847997D02*
X837689Y847997D01*
X841298Y851606D02*
X843464Y851606D01*
X829979Y865091D02*
X824024Y859136D01*
X829979Y865091D02*
X835934Y859136D01*
X829979Y853181D01*
X824024Y859136D01*
X826370Y856790D02*
X833588Y856790D01*
X834671Y860399D02*
X825287Y860399D01*
X828896Y864008D02*
X831062Y864008D01*
X871351Y846734D02*
X877306Y852689D01*
X883261Y846734D01*
X877306Y840779D01*
X871351Y846734D01*
X873697Y844388D02*
X880915Y844388D01*
X881998Y847997D02*
X872614Y847997D01*
X876223Y851606D02*
X878389Y851606D01*
X864904Y865091D02*
X858949Y859136D01*
X864904Y865091D02*
X870859Y859136D01*
X864904Y853181D01*
X858949Y859136D01*
X861295Y856790D02*
X868513Y856790D01*
X869596Y860399D02*
X860212Y860399D01*
X863821Y864008D02*
X865987Y864008D01*
X906276Y846734D02*
X912231Y852689D01*
X918186Y846734D01*
X912231Y840779D01*
X906276Y846734D01*
X908622Y844388D02*
X915840Y844388D01*
X916923Y847997D02*
X907539Y847997D01*
X911148Y851606D02*
X913314Y851606D01*
X899829Y865091D02*
X893874Y859136D01*
X899829Y865091D02*
X905784Y859136D01*
X899829Y853181D01*
X893874Y859136D01*
X896220Y856790D02*
X903438Y856790D01*
X904521Y860399D02*
X895137Y860399D01*
X898746Y864008D02*
X900912Y864008D01*
X941201Y846734D02*
X947156Y852689D01*
X953111Y846734D01*
X947156Y840779D01*
X941201Y846734D01*
X943547Y844388D02*
X950765Y844388D01*
X951848Y847997D02*
X942464Y847997D01*
X946073Y851606D02*
X948239Y851606D01*
X934754Y865091D02*
X928799Y859136D01*
X934754Y865091D02*
X940709Y859136D01*
X934754Y853181D01*
X928799Y859136D01*
X931145Y856790D02*
X938363Y856790D01*
X939446Y860399D02*
X930062Y860399D01*
X933671Y864008D02*
X935837Y864008D01*
X976126Y846734D02*
X982081Y852689D01*
X988036Y846734D01*
X982081Y840779D01*
X976126Y846734D01*
X978472Y844388D02*
X985690Y844388D01*
X986773Y847997D02*
X977389Y847997D01*
X980998Y851606D02*
X983164Y851606D01*
X969679Y865091D02*
X963724Y859136D01*
X969679Y865091D02*
X975634Y859136D01*
X969679Y853181D01*
X963724Y859136D01*
X966070Y856790D02*
X973288Y856790D01*
X974371Y860399D02*
X964987Y860399D01*
X968596Y864008D02*
X970762Y864008D01*
X1011051Y846734D02*
X1017006Y852689D01*
X1022961Y846734D01*
X1017006Y840779D01*
X1011051Y846734D01*
X1013397Y844388D02*
X1020615Y844388D01*
X1021698Y847997D02*
X1012314Y847997D01*
X1015923Y851606D02*
X1018089Y851606D01*
X1004604Y865091D02*
X998649Y859136D01*
X1004604Y865091D02*
X1010559Y859136D01*
X1004604Y853181D01*
X998649Y859136D01*
X1000995Y856790D02*
X1008213Y856790D01*
X1009296Y860399D02*
X999912Y860399D01*
X1003521Y864008D02*
X1005687Y864008D01*
X1045976Y846734D02*
X1051931Y852689D01*
X1057886Y846734D01*
X1051931Y840779D01*
X1045976Y846734D01*
X1048322Y844388D02*
X1055540Y844388D01*
X1056623Y847997D02*
X1047239Y847997D01*
X1050848Y851606D02*
X1053014Y851606D01*
X1039529Y865091D02*
X1033574Y859136D01*
X1039529Y865091D02*
X1045484Y859136D01*
X1039529Y853181D01*
X1033574Y859136D01*
X1035920Y856790D02*
X1043138Y856790D01*
X1044221Y860399D02*
X1034837Y860399D01*
X1038446Y864008D02*
X1040612Y864008D01*
X772531Y817764D02*
X766576Y811809D01*
X772531Y817764D02*
X778486Y811809D01*
X772531Y805854D01*
X766576Y811809D01*
X768922Y809463D02*
X776140Y809463D01*
X777223Y813072D02*
X767839Y813072D01*
X771448Y816681D02*
X773614Y816681D01*
X760129Y830166D02*
X754174Y824211D01*
X760129Y830166D02*
X766084Y824211D01*
X760129Y818256D01*
X754174Y824211D01*
X756520Y821865D02*
X763738Y821865D01*
X764821Y825474D02*
X755437Y825474D01*
X759046Y829083D02*
X761212Y829083D01*
X801501Y811809D02*
X807456Y817764D01*
X813411Y811809D01*
X807456Y805854D01*
X801501Y811809D01*
X803847Y809463D02*
X811065Y809463D01*
X812148Y813072D02*
X802764Y813072D01*
X806373Y816681D02*
X808539Y816681D01*
X795054Y830166D02*
X789099Y824211D01*
X795054Y830166D02*
X801009Y824211D01*
X795054Y818256D01*
X789099Y824211D01*
X791445Y821865D02*
X798663Y821865D01*
X799746Y825474D02*
X790362Y825474D01*
X793971Y829083D02*
X796137Y829083D01*
X836426Y811809D02*
X842381Y817764D01*
X848336Y811809D01*
X842381Y805854D01*
X836426Y811809D01*
X838772Y809463D02*
X845990Y809463D01*
X847073Y813072D02*
X837689Y813072D01*
X841298Y816681D02*
X843464Y816681D01*
X829979Y830166D02*
X824024Y824211D01*
X829979Y830166D02*
X835934Y824211D01*
X829979Y818256D01*
X824024Y824211D01*
X826370Y821865D02*
X833588Y821865D01*
X834671Y825474D02*
X825287Y825474D01*
X828896Y829083D02*
X831062Y829083D01*
X871351Y811809D02*
X877306Y817764D01*
X883261Y811809D01*
X877306Y805854D01*
X871351Y811809D01*
X873697Y809463D02*
X880915Y809463D01*
X881998Y813072D02*
X872614Y813072D01*
X876223Y816681D02*
X878389Y816681D01*
X864904Y830166D02*
X858949Y824211D01*
X864904Y830166D02*
X870859Y824211D01*
X864904Y818256D01*
X858949Y824211D01*
X861295Y821865D02*
X868513Y821865D01*
X869596Y825474D02*
X860212Y825474D01*
X863821Y829083D02*
X865987Y829083D01*
X906276Y811809D02*
X912231Y817764D01*
X918186Y811809D01*
X912231Y805854D01*
X906276Y811809D01*
X908622Y809463D02*
X915840Y809463D01*
X916923Y813072D02*
X907539Y813072D01*
X911148Y816681D02*
X913314Y816681D01*
X899829Y830166D02*
X893874Y824211D01*
X899829Y830166D02*
X905784Y824211D01*
X899829Y818256D01*
X893874Y824211D01*
X896220Y821865D02*
X903438Y821865D01*
X904521Y825474D02*
X895137Y825474D01*
X898746Y829083D02*
X900912Y829083D01*
X941201Y811809D02*
X947156Y817764D01*
X953111Y811809D01*
X947156Y805854D01*
X941201Y811809D01*
X943547Y809463D02*
X950765Y809463D01*
X951848Y813072D02*
X942464Y813072D01*
X946073Y816681D02*
X948239Y816681D01*
X934754Y830166D02*
X928799Y824211D01*
X934754Y830166D02*
X940709Y824211D01*
X934754Y818256D01*
X928799Y824211D01*
X931145Y821865D02*
X938363Y821865D01*
X939446Y825474D02*
X930062Y825474D01*
X933671Y829083D02*
X935837Y829083D01*
X976126Y811809D02*
X982081Y817764D01*
X988036Y811809D01*
X982081Y805854D01*
X976126Y811809D01*
X978472Y809463D02*
X985690Y809463D01*
X986773Y813072D02*
X977389Y813072D01*
X980998Y816681D02*
X983164Y816681D01*
X969679Y830166D02*
X963724Y824211D01*
X969679Y830166D02*
X975634Y824211D01*
X969679Y818256D01*
X963724Y824211D01*
X966070Y821865D02*
X973288Y821865D01*
X974371Y825474D02*
X964987Y825474D01*
X968596Y829083D02*
X970762Y829083D01*
X1011051Y811809D02*
X1017006Y817764D01*
X1022961Y811809D01*
X1017006Y805854D01*
X1011051Y811809D01*
X1013397Y809463D02*
X1020615Y809463D01*
X1021698Y813072D02*
X1012314Y813072D01*
X1015923Y816681D02*
X1018089Y816681D01*
X1004604Y830166D02*
X998649Y824211D01*
X1004604Y830166D02*
X1010559Y824211D01*
X1004604Y818256D01*
X998649Y824211D01*
X1000995Y821865D02*
X1008213Y821865D01*
X1009296Y825474D02*
X999912Y825474D01*
X1003521Y829083D02*
X1005687Y829083D01*
X1045976Y811809D02*
X1051931Y817764D01*
X1057886Y811809D01*
X1051931Y805854D01*
X1045976Y811809D01*
X1048322Y809463D02*
X1055540Y809463D01*
X1056623Y813072D02*
X1047239Y813072D01*
X1050848Y816681D02*
X1053014Y816681D01*
X1039529Y830166D02*
X1033574Y824211D01*
X1039529Y830166D02*
X1045484Y824211D01*
X1039529Y818256D01*
X1033574Y824211D01*
X1035920Y821865D02*
X1043138Y821865D01*
X1044221Y825474D02*
X1034837Y825474D01*
X1038446Y829083D02*
X1040612Y829083D01*
X772531Y782839D02*
X766576Y776884D01*
X772531Y782839D02*
X778486Y776884D01*
X772531Y770929D01*
X766576Y776884D01*
X768922Y774538D02*
X776140Y774538D01*
X777223Y778147D02*
X767839Y778147D01*
X771448Y781756D02*
X773614Y781756D01*
X760129Y795241D02*
X754174Y789286D01*
X760129Y795241D02*
X766084Y789286D01*
X760129Y783331D01*
X754174Y789286D01*
X756520Y786940D02*
X763738Y786940D01*
X764821Y790549D02*
X755437Y790549D01*
X759046Y794158D02*
X761212Y794158D01*
X801501Y776884D02*
X807456Y782839D01*
X813411Y776884D01*
X807456Y770929D01*
X801501Y776884D01*
X803847Y774538D02*
X811065Y774538D01*
X812148Y778147D02*
X802764Y778147D01*
X806373Y781756D02*
X808539Y781756D01*
X795054Y795241D02*
X789099Y789286D01*
X795054Y795241D02*
X801009Y789286D01*
X795054Y783331D01*
X789099Y789286D01*
X791445Y786940D02*
X798663Y786940D01*
X799746Y790549D02*
X790362Y790549D01*
X793971Y794158D02*
X796137Y794158D01*
X836426Y776884D02*
X842381Y782839D01*
X848336Y776884D01*
X842381Y770929D01*
X836426Y776884D01*
X838772Y774538D02*
X845990Y774538D01*
X847073Y778147D02*
X837689Y778147D01*
X841298Y781756D02*
X843464Y781756D01*
X829979Y795241D02*
X824024Y789286D01*
X829979Y795241D02*
X835934Y789286D01*
X829979Y783331D01*
X824024Y789286D01*
X826370Y786940D02*
X833588Y786940D01*
X834671Y790549D02*
X825287Y790549D01*
X828896Y794158D02*
X831062Y794158D01*
X871351Y776884D02*
X877306Y782839D01*
X883261Y776884D01*
X877306Y770929D01*
X871351Y776884D01*
X873697Y774538D02*
X880915Y774538D01*
X881998Y778147D02*
X872614Y778147D01*
X876223Y781756D02*
X878389Y781756D01*
X864904Y795241D02*
X858949Y789286D01*
X864904Y795241D02*
X870859Y789286D01*
X864904Y783331D01*
X858949Y789286D01*
X861295Y786940D02*
X868513Y786940D01*
X869596Y790549D02*
X860212Y790549D01*
X863821Y794158D02*
X865987Y794158D01*
X906276Y776884D02*
X912231Y782839D01*
X918186Y776884D01*
X912231Y770929D01*
X906276Y776884D01*
X908622Y774538D02*
X915840Y774538D01*
X916923Y778147D02*
X907539Y778147D01*
X911148Y781756D02*
X913314Y781756D01*
X899829Y795241D02*
X893874Y789286D01*
X899829Y795241D02*
X905784Y789286D01*
X899829Y783331D01*
X893874Y789286D01*
X896220Y786940D02*
X903438Y786940D01*
X904521Y790549D02*
X895137Y790549D01*
X898746Y794158D02*
X900912Y794158D01*
X941201Y776884D02*
X947156Y782839D01*
X953111Y776884D01*
X947156Y770929D01*
X941201Y776884D01*
X943547Y774538D02*
X950765Y774538D01*
X951848Y778147D02*
X942464Y778147D01*
X946073Y781756D02*
X948239Y781756D01*
X934754Y795241D02*
X928799Y789286D01*
X934754Y795241D02*
X940709Y789286D01*
X934754Y783331D01*
X928799Y789286D01*
X931145Y786940D02*
X938363Y786940D01*
X939446Y790549D02*
X930062Y790549D01*
X933671Y794158D02*
X935837Y794158D01*
X976126Y776884D02*
X982081Y782839D01*
X988036Y776884D01*
X982081Y770929D01*
X976126Y776884D01*
X978472Y774538D02*
X985690Y774538D01*
X986773Y778147D02*
X977389Y778147D01*
X980998Y781756D02*
X983164Y781756D01*
X969679Y795241D02*
X963724Y789286D01*
X969679Y795241D02*
X975634Y789286D01*
X969679Y783331D01*
X963724Y789286D01*
X966070Y786940D02*
X973288Y786940D01*
X974371Y790549D02*
X964987Y790549D01*
X968596Y794158D02*
X970762Y794158D01*
X1011051Y776884D02*
X1017006Y782839D01*
X1022961Y776884D01*
X1017006Y770929D01*
X1011051Y776884D01*
X1013397Y774538D02*
X1020615Y774538D01*
X1021698Y778147D02*
X1012314Y778147D01*
X1015923Y781756D02*
X1018089Y781756D01*
X1004604Y795241D02*
X998649Y789286D01*
X1004604Y795241D02*
X1010559Y789286D01*
X1004604Y783331D01*
X998649Y789286D01*
X1000995Y786940D02*
X1008213Y786940D01*
X1009296Y790549D02*
X999912Y790549D01*
X1003521Y794158D02*
X1005687Y794158D01*
X1045976Y776884D02*
X1051931Y782839D01*
X1057886Y776884D01*
X1051931Y770929D01*
X1045976Y776884D01*
X1048322Y774538D02*
X1055540Y774538D01*
X1056623Y778147D02*
X1047239Y778147D01*
X1050848Y781756D02*
X1053014Y781756D01*
X1039529Y795241D02*
X1033574Y789286D01*
X1039529Y795241D02*
X1045484Y789286D01*
X1039529Y783331D01*
X1033574Y789286D01*
X1035920Y786940D02*
X1043138Y786940D01*
X1044221Y790549D02*
X1034837Y790549D01*
X1038446Y794158D02*
X1040612Y794158D01*
X772531Y747914D02*
X766576Y741959D01*
X772531Y747914D02*
X778486Y741959D01*
X772531Y736004D01*
X766576Y741959D01*
X768922Y739613D02*
X776140Y739613D01*
X777223Y743222D02*
X767839Y743222D01*
X771448Y746831D02*
X773614Y746831D01*
X760129Y760316D02*
X754174Y754361D01*
X760129Y760316D02*
X766084Y754361D01*
X760129Y748406D01*
X754174Y754361D01*
X756520Y752015D02*
X763738Y752015D01*
X764821Y755624D02*
X755437Y755624D01*
X759046Y759233D02*
X761212Y759233D01*
X801501Y741959D02*
X807456Y747914D01*
X813411Y741959D01*
X807456Y736004D01*
X801501Y741959D01*
X803847Y739613D02*
X811065Y739613D01*
X812148Y743222D02*
X802764Y743222D01*
X806373Y746831D02*
X808539Y746831D01*
X795054Y760316D02*
X789099Y754361D01*
X795054Y760316D02*
X801009Y754361D01*
X795054Y748406D01*
X789099Y754361D01*
X791445Y752015D02*
X798663Y752015D01*
X799746Y755624D02*
X790362Y755624D01*
X793971Y759233D02*
X796137Y759233D01*
X836426Y741959D02*
X842381Y747914D01*
X848336Y741959D01*
X842381Y736004D01*
X836426Y741959D01*
X838772Y739613D02*
X845990Y739613D01*
X847073Y743222D02*
X837689Y743222D01*
X841298Y746831D02*
X843464Y746831D01*
X829979Y760316D02*
X824024Y754361D01*
X829979Y760316D02*
X835934Y754361D01*
X829979Y748406D01*
X824024Y754361D01*
X826370Y752015D02*
X833588Y752015D01*
X834671Y755624D02*
X825287Y755624D01*
X828896Y759233D02*
X831062Y759233D01*
X871351Y741959D02*
X877306Y747914D01*
X883261Y741959D01*
X877306Y736004D01*
X871351Y741959D01*
X873697Y739613D02*
X880915Y739613D01*
X881998Y743222D02*
X872614Y743222D01*
X876223Y746831D02*
X878389Y746831D01*
X864904Y760316D02*
X858949Y754361D01*
X864904Y760316D02*
X870859Y754361D01*
X864904Y748406D01*
X858949Y754361D01*
X861295Y752015D02*
X868513Y752015D01*
X869596Y755624D02*
X860212Y755624D01*
X863821Y759233D02*
X865987Y759233D01*
X906276Y741959D02*
X912231Y747914D01*
X918186Y741959D01*
X912231Y736004D01*
X906276Y741959D01*
X908622Y739613D02*
X915840Y739613D01*
X916923Y743222D02*
X907539Y743222D01*
X911148Y746831D02*
X913314Y746831D01*
X899829Y760316D02*
X893874Y754361D01*
X899829Y760316D02*
X905784Y754361D01*
X899829Y748406D01*
X893874Y754361D01*
X896220Y752015D02*
X903438Y752015D01*
X904521Y755624D02*
X895137Y755624D01*
X898746Y759233D02*
X900912Y759233D01*
X941201Y741959D02*
X947156Y747914D01*
X953111Y741959D01*
X947156Y736004D01*
X941201Y741959D01*
X943547Y739613D02*
X950765Y739613D01*
X951848Y743222D02*
X942464Y743222D01*
X946073Y746831D02*
X948239Y746831D01*
X934754Y760316D02*
X928799Y754361D01*
X934754Y760316D02*
X940709Y754361D01*
X934754Y748406D01*
X928799Y754361D01*
X931145Y752015D02*
X938363Y752015D01*
X939446Y755624D02*
X930062Y755624D01*
X933671Y759233D02*
X935837Y759233D01*
X976126Y741959D02*
X982081Y747914D01*
X988036Y741959D01*
X982081Y736004D01*
X976126Y741959D01*
X978472Y739613D02*
X985690Y739613D01*
X986773Y743222D02*
X977389Y743222D01*
X980998Y746831D02*
X983164Y746831D01*
X969679Y760316D02*
X963724Y754361D01*
X969679Y760316D02*
X975634Y754361D01*
X969679Y748406D01*
X963724Y754361D01*
X966070Y752015D02*
X973288Y752015D01*
X974371Y755624D02*
X964987Y755624D01*
X968596Y759233D02*
X970762Y759233D01*
X1011051Y741959D02*
X1017006Y747914D01*
X1022961Y741959D01*
X1017006Y736004D01*
X1011051Y741959D01*
X1013397Y739613D02*
X1020615Y739613D01*
X1021698Y743222D02*
X1012314Y743222D01*
X1015923Y746831D02*
X1018089Y746831D01*
X1004604Y760316D02*
X998649Y754361D01*
X1004604Y760316D02*
X1010559Y754361D01*
X1004604Y748406D01*
X998649Y754361D01*
X1000995Y752015D02*
X1008213Y752015D01*
X1009296Y755624D02*
X999912Y755624D01*
X1003521Y759233D02*
X1005687Y759233D01*
X1045976Y741959D02*
X1051931Y747914D01*
X1057886Y741959D01*
X1051931Y736004D01*
X1045976Y741959D01*
X1048322Y739613D02*
X1055540Y739613D01*
X1056623Y743222D02*
X1047239Y743222D01*
X1050848Y746831D02*
X1053014Y746831D01*
X1039529Y760316D02*
X1033574Y754361D01*
X1039529Y760316D02*
X1045484Y754361D01*
X1039529Y748406D01*
X1033574Y754361D01*
X1035920Y752015D02*
X1043138Y752015D01*
X1044221Y755624D02*
X1034837Y755624D01*
X1038446Y759233D02*
X1040612Y759233D01*
X772531Y712989D02*
X766576Y707034D01*
X772531Y712989D02*
X778486Y707034D01*
X772531Y701079D01*
X766576Y707034D01*
X768922Y704688D02*
X776140Y704688D01*
X777223Y708297D02*
X767839Y708297D01*
X771448Y711906D02*
X773614Y711906D01*
X760129Y725391D02*
X754174Y719436D01*
X760129Y725391D02*
X766084Y719436D01*
X760129Y713481D01*
X754174Y719436D01*
X756520Y717090D02*
X763738Y717090D01*
X764821Y720699D02*
X755437Y720699D01*
X759046Y724308D02*
X761212Y724308D01*
X801501Y707034D02*
X807456Y712989D01*
X813411Y707034D01*
X807456Y701079D01*
X801501Y707034D01*
X803847Y704688D02*
X811065Y704688D01*
X812148Y708297D02*
X802764Y708297D01*
X806373Y711906D02*
X808539Y711906D01*
X795054Y725391D02*
X789099Y719436D01*
X795054Y725391D02*
X801009Y719436D01*
X795054Y713481D01*
X789099Y719436D01*
X791445Y717090D02*
X798663Y717090D01*
X799746Y720699D02*
X790362Y720699D01*
X793971Y724308D02*
X796137Y724308D01*
X836426Y707034D02*
X842381Y712989D01*
X848336Y707034D01*
X842381Y701079D01*
X836426Y707034D01*
X838772Y704688D02*
X845990Y704688D01*
X847073Y708297D02*
X837689Y708297D01*
X841298Y711906D02*
X843464Y711906D01*
X829979Y725391D02*
X824024Y719436D01*
X829979Y725391D02*
X835934Y719436D01*
X829979Y713481D01*
X824024Y719436D01*
X826370Y717090D02*
X833588Y717090D01*
X834671Y720699D02*
X825287Y720699D01*
X828896Y724308D02*
X831062Y724308D01*
X871351Y707034D02*
X877306Y712989D01*
X883261Y707034D01*
X877306Y701079D01*
X871351Y707034D01*
X873697Y704688D02*
X880915Y704688D01*
X881998Y708297D02*
X872614Y708297D01*
X876223Y711906D02*
X878389Y711906D01*
X864904Y725391D02*
X858949Y719436D01*
X864904Y725391D02*
X870859Y719436D01*
X864904Y713481D01*
X858949Y719436D01*
X861295Y717090D02*
X868513Y717090D01*
X869596Y720699D02*
X860212Y720699D01*
X863821Y724308D02*
X865987Y724308D01*
X906276Y707034D02*
X912231Y712989D01*
X918186Y707034D01*
X912231Y701079D01*
X906276Y707034D01*
X908622Y704688D02*
X915840Y704688D01*
X916923Y708297D02*
X907539Y708297D01*
X911148Y711906D02*
X913314Y711906D01*
X899829Y725391D02*
X893874Y719436D01*
X899829Y725391D02*
X905784Y719436D01*
X899829Y713481D01*
X893874Y719436D01*
X896220Y717090D02*
X903438Y717090D01*
X904521Y720699D02*
X895137Y720699D01*
X898746Y724308D02*
X900912Y724308D01*
X941201Y707034D02*
X947156Y712989D01*
X953111Y707034D01*
X947156Y701079D01*
X941201Y707034D01*
X943547Y704688D02*
X950765Y704688D01*
X951848Y708297D02*
X942464Y708297D01*
X946073Y711906D02*
X948239Y711906D01*
X934754Y725391D02*
X928799Y719436D01*
X934754Y725391D02*
X940709Y719436D01*
X934754Y713481D01*
X928799Y719436D01*
X931145Y717090D02*
X938363Y717090D01*
X939446Y720699D02*
X930062Y720699D01*
X933671Y724308D02*
X935837Y724308D01*
X976126Y707034D02*
X982081Y712989D01*
X988036Y707034D01*
X982081Y701079D01*
X976126Y707034D01*
X978472Y704688D02*
X985690Y704688D01*
X986773Y708297D02*
X977389Y708297D01*
X980998Y711906D02*
X983164Y711906D01*
X969679Y725391D02*
X963724Y719436D01*
X969679Y725391D02*
X975634Y719436D01*
X969679Y713481D01*
X963724Y719436D01*
X966070Y717090D02*
X973288Y717090D01*
X974371Y720699D02*
X964987Y720699D01*
X968596Y724308D02*
X970762Y724308D01*
X1011051Y707034D02*
X1017006Y712989D01*
X1022961Y707034D01*
X1017006Y701079D01*
X1011051Y707034D01*
X1013397Y704688D02*
X1020615Y704688D01*
X1021698Y708297D02*
X1012314Y708297D01*
X1015923Y711906D02*
X1018089Y711906D01*
X1004604Y725391D02*
X998649Y719436D01*
X1004604Y725391D02*
X1010559Y719436D01*
X1004604Y713481D01*
X998649Y719436D01*
X1000995Y717090D02*
X1008213Y717090D01*
X1009296Y720699D02*
X999912Y720699D01*
X1003521Y724308D02*
X1005687Y724308D01*
X1045976Y707034D02*
X1051931Y712989D01*
X1057886Y707034D01*
X1051931Y701079D01*
X1045976Y707034D01*
X1048322Y704688D02*
X1055540Y704688D01*
X1056623Y708297D02*
X1047239Y708297D01*
X1050848Y711906D02*
X1053014Y711906D01*
X1039529Y725391D02*
X1033574Y719436D01*
X1039529Y725391D02*
X1045484Y719436D01*
X1039529Y713481D01*
X1033574Y719436D01*
X1035920Y717090D02*
X1043138Y717090D01*
X1044221Y720699D02*
X1034837Y720699D01*
X1038446Y724308D02*
X1040612Y724308D01*
X772531Y678064D02*
X766576Y672109D01*
X772531Y678064D02*
X778486Y672109D01*
X772531Y666154D01*
X766576Y672109D01*
X768922Y669763D02*
X776140Y669763D01*
X777223Y673372D02*
X767839Y673372D01*
X771448Y676981D02*
X773614Y676981D01*
X760129Y690466D02*
X754174Y684511D01*
X760129Y690466D02*
X766084Y684511D01*
X760129Y678556D01*
X754174Y684511D01*
X756520Y682165D02*
X763738Y682165D01*
X764821Y685774D02*
X755437Y685774D01*
X759046Y689383D02*
X761212Y689383D01*
X801501Y672109D02*
X807456Y678064D01*
X813411Y672109D01*
X807456Y666154D01*
X801501Y672109D01*
X803847Y669763D02*
X811065Y669763D01*
X812148Y673372D02*
X802764Y673372D01*
X806373Y676981D02*
X808539Y676981D01*
X795054Y690466D02*
X789099Y684511D01*
X795054Y690466D02*
X801009Y684511D01*
X795054Y678556D01*
X789099Y684511D01*
X791445Y682165D02*
X798663Y682165D01*
X799746Y685774D02*
X790362Y685774D01*
X793971Y689383D02*
X796137Y689383D01*
X836426Y672109D02*
X842381Y678064D01*
X848336Y672109D01*
X842381Y666154D01*
X836426Y672109D01*
X838772Y669763D02*
X845990Y669763D01*
X847073Y673372D02*
X837689Y673372D01*
X841298Y676981D02*
X843464Y676981D01*
X829979Y690466D02*
X824024Y684511D01*
X829979Y690466D02*
X835934Y684511D01*
X829979Y678556D01*
X824024Y684511D01*
X826370Y682165D02*
X833588Y682165D01*
X834671Y685774D02*
X825287Y685774D01*
X828896Y689383D02*
X831062Y689383D01*
X871351Y672109D02*
X877306Y678064D01*
X883261Y672109D01*
X877306Y666154D01*
X871351Y672109D01*
X873697Y669763D02*
X880915Y669763D01*
X881998Y673372D02*
X872614Y673372D01*
X876223Y676981D02*
X878389Y676981D01*
X864904Y690466D02*
X858949Y684511D01*
X864904Y690466D02*
X870859Y684511D01*
X864904Y678556D01*
X858949Y684511D01*
X861295Y682165D02*
X868513Y682165D01*
X869596Y685774D02*
X860212Y685774D01*
X863821Y689383D02*
X865987Y689383D01*
X906276Y672109D02*
X912231Y678064D01*
X918186Y672109D01*
X912231Y666154D01*
X906276Y672109D01*
X908622Y669763D02*
X915840Y669763D01*
X916923Y673372D02*
X907539Y673372D01*
X911148Y676981D02*
X913314Y676981D01*
X899829Y690466D02*
X893874Y684511D01*
X899829Y690466D02*
X905784Y684511D01*
X899829Y678556D01*
X893874Y684511D01*
X896220Y682165D02*
X903438Y682165D01*
X904521Y685774D02*
X895137Y685774D01*
X898746Y689383D02*
X900912Y689383D01*
X941201Y672109D02*
X947156Y678064D01*
X953111Y672109D01*
X947156Y666154D01*
X941201Y672109D01*
X943547Y669763D02*
X950765Y669763D01*
X951848Y673372D02*
X942464Y673372D01*
X946073Y676981D02*
X948239Y676981D01*
X934754Y690466D02*
X928799Y684511D01*
X934754Y690466D02*
X940709Y684511D01*
X934754Y678556D01*
X928799Y684511D01*
X931145Y682165D02*
X938363Y682165D01*
X939446Y685774D02*
X930062Y685774D01*
X933671Y689383D02*
X935837Y689383D01*
X976126Y672109D02*
X982081Y678064D01*
X988036Y672109D01*
X982081Y666154D01*
X976126Y672109D01*
X978472Y669763D02*
X985690Y669763D01*
X986773Y673372D02*
X977389Y673372D01*
X980998Y676981D02*
X983164Y676981D01*
X969679Y690466D02*
X963724Y684511D01*
X969679Y690466D02*
X975634Y684511D01*
X969679Y678556D01*
X963724Y684511D01*
X966070Y682165D02*
X973288Y682165D01*
X974371Y685774D02*
X964987Y685774D01*
X968596Y689383D02*
X970762Y689383D01*
X1011051Y672109D02*
X1017006Y678064D01*
X1022961Y672109D01*
X1017006Y666154D01*
X1011051Y672109D01*
X1013397Y669763D02*
X1020615Y669763D01*
X1021698Y673372D02*
X1012314Y673372D01*
X1015923Y676981D02*
X1018089Y676981D01*
X1004604Y690466D02*
X998649Y684511D01*
X1004604Y690466D02*
X1010559Y684511D01*
X1004604Y678556D01*
X998649Y684511D01*
X1000995Y682165D02*
X1008213Y682165D01*
X1009296Y685774D02*
X999912Y685774D01*
X1003521Y689383D02*
X1005687Y689383D01*
X1045976Y672109D02*
X1051931Y678064D01*
X1057886Y672109D01*
X1051931Y666154D01*
X1045976Y672109D01*
X1048322Y669763D02*
X1055540Y669763D01*
X1056623Y673372D02*
X1047239Y673372D01*
X1050848Y676981D02*
X1053014Y676981D01*
X1039529Y690466D02*
X1033574Y684511D01*
X1039529Y690466D02*
X1045484Y684511D01*
X1039529Y678556D01*
X1033574Y684511D01*
X1035920Y682165D02*
X1043138Y682165D01*
X1044221Y685774D02*
X1034837Y685774D01*
X1038446Y689383D02*
X1040612Y689383D01*
X772531Y643139D02*
X766576Y637184D01*
X772531Y643139D02*
X778486Y637184D01*
X772531Y631229D01*
X766576Y637184D01*
X768922Y634838D02*
X776140Y634838D01*
X777223Y638447D02*
X767839Y638447D01*
X771448Y642056D02*
X773614Y642056D01*
X760129Y655541D02*
X754174Y649586D01*
X760129Y655541D02*
X766084Y649586D01*
X760129Y643631D01*
X754174Y649586D01*
X756520Y647240D02*
X763738Y647240D01*
X764821Y650849D02*
X755437Y650849D01*
X759046Y654458D02*
X761212Y654458D01*
X801501Y637184D02*
X807456Y643139D01*
X813411Y637184D01*
X807456Y631229D01*
X801501Y637184D01*
X803847Y634838D02*
X811065Y634838D01*
X812148Y638447D02*
X802764Y638447D01*
X806373Y642056D02*
X808539Y642056D01*
X795054Y655541D02*
X789099Y649586D01*
X795054Y655541D02*
X801009Y649586D01*
X795054Y643631D01*
X789099Y649586D01*
X791445Y647240D02*
X798663Y647240D01*
X799746Y650849D02*
X790362Y650849D01*
X793971Y654458D02*
X796137Y654458D01*
X836426Y637184D02*
X842381Y643139D01*
X848336Y637184D01*
X842381Y631229D01*
X836426Y637184D01*
X838772Y634838D02*
X845990Y634838D01*
X847073Y638447D02*
X837689Y638447D01*
X841298Y642056D02*
X843464Y642056D01*
X829979Y655541D02*
X824024Y649586D01*
X829979Y655541D02*
X835934Y649586D01*
X829979Y643631D01*
X824024Y649586D01*
X826370Y647240D02*
X833588Y647240D01*
X834671Y650849D02*
X825287Y650849D01*
X828896Y654458D02*
X831062Y654458D01*
X871351Y637184D02*
X877306Y643139D01*
X883261Y637184D01*
X877306Y631229D01*
X871351Y637184D01*
X873697Y634838D02*
X880915Y634838D01*
X881998Y638447D02*
X872614Y638447D01*
X876223Y642056D02*
X878389Y642056D01*
X864904Y655541D02*
X858949Y649586D01*
X864904Y655541D02*
X870859Y649586D01*
X864904Y643631D01*
X858949Y649586D01*
X861295Y647240D02*
X868513Y647240D01*
X869596Y650849D02*
X860212Y650849D01*
X863821Y654458D02*
X865987Y654458D01*
X906276Y637184D02*
X912231Y643139D01*
X918186Y637184D01*
X912231Y631229D01*
X906276Y637184D01*
X908622Y634838D02*
X915840Y634838D01*
X916923Y638447D02*
X907539Y638447D01*
X911148Y642056D02*
X913314Y642056D01*
X899829Y655541D02*
X893874Y649586D01*
X899829Y655541D02*
X905784Y649586D01*
X899829Y643631D01*
X893874Y649586D01*
X896220Y647240D02*
X903438Y647240D01*
X904521Y650849D02*
X895137Y650849D01*
X898746Y654458D02*
X900912Y654458D01*
X941201Y637184D02*
X947156Y643139D01*
X953111Y637184D01*
X947156Y631229D01*
X941201Y637184D01*
X943547Y634838D02*
X950765Y634838D01*
X951848Y638447D02*
X942464Y638447D01*
X946073Y642056D02*
X948239Y642056D01*
X934754Y655541D02*
X928799Y649586D01*
X934754Y655541D02*
X940709Y649586D01*
X934754Y643631D01*
X928799Y649586D01*
X931145Y647240D02*
X938363Y647240D01*
X939446Y650849D02*
X930062Y650849D01*
X933671Y654458D02*
X935837Y654458D01*
X976126Y637184D02*
X982081Y643139D01*
X988036Y637184D01*
X982081Y631229D01*
X976126Y637184D01*
X978472Y634838D02*
X985690Y634838D01*
X986773Y638447D02*
X977389Y638447D01*
X980998Y642056D02*
X983164Y642056D01*
X969679Y655541D02*
X963724Y649586D01*
X969679Y655541D02*
X975634Y649586D01*
X969679Y643631D01*
X963724Y649586D01*
X966070Y647240D02*
X973288Y647240D01*
X974371Y650849D02*
X964987Y650849D01*
X968596Y654458D02*
X970762Y654458D01*
X1011051Y637184D02*
X1017006Y643139D01*
X1022961Y637184D01*
X1017006Y631229D01*
X1011051Y637184D01*
X1013397Y634838D02*
X1020615Y634838D01*
X1021698Y638447D02*
X1012314Y638447D01*
X1015923Y642056D02*
X1018089Y642056D01*
X1004604Y655541D02*
X998649Y649586D01*
X1004604Y655541D02*
X1010559Y649586D01*
X1004604Y643631D01*
X998649Y649586D01*
X1000995Y647240D02*
X1008213Y647240D01*
X1009296Y650849D02*
X999912Y650849D01*
X1003521Y654458D02*
X1005687Y654458D01*
X1045976Y637184D02*
X1051931Y643139D01*
X1057886Y637184D01*
X1051931Y631229D01*
X1045976Y637184D01*
X1048322Y634838D02*
X1055540Y634838D01*
X1056623Y638447D02*
X1047239Y638447D01*
X1050848Y642056D02*
X1053014Y642056D01*
X1039529Y655541D02*
X1033574Y649586D01*
X1039529Y655541D02*
X1045484Y649586D01*
X1039529Y643631D01*
X1033574Y649586D01*
X1035920Y647240D02*
X1043138Y647240D01*
X1044221Y650849D02*
X1034837Y650849D01*
X1038446Y654458D02*
X1040612Y654458D01*
D14*
X1099680Y643385D03*
X1080680Y643385D03*
X1099680Y678310D03*
X1080680Y678310D03*
X1099680Y713235D03*
X1080680Y713235D03*
X1099680Y748160D03*
X1080680Y748160D03*
X1099680Y783085D03*
X1080680Y783085D03*
X1099680Y818010D03*
X1080680Y818010D03*
X1099680Y852935D03*
X1080680Y852935D03*
X1099680Y887860D03*
X1080680Y887860D03*
X1099680Y922785D03*
X1080680Y922785D03*
X1099680Y957710D03*
X1080680Y957710D03*
X1099680Y992635D03*
X1080680Y992635D03*
X1099680Y1027560D03*
X1080680Y1027560D03*
X1099680Y1062485D03*
X1080680Y1062485D03*
X1099680Y1097410D03*
X1080680Y1097410D03*
X1099680Y1132335D03*
X1080680Y1132335D03*
X1099680Y1167260D03*
X1080680Y1167260D03*
X1099680Y1202185D03*
X1080680Y1202185D03*
X1099680Y1237110D03*
X1080680Y1237110D03*
X394880Y1237110D03*
X413880Y1237110D03*
X394880Y1202185D03*
X413880Y1202185D03*
X394880Y1167260D03*
X413880Y1167260D03*
X394880Y1132335D03*
X413880Y1132335D03*
X394880Y1097410D03*
X413880Y1097410D03*
X394880Y1062485D03*
X413880Y1062485D03*
X394880Y1027560D03*
X413880Y1027560D03*
X394880Y992635D03*
X413880Y992635D03*
X394880Y957710D03*
X413880Y957710D03*
X394880Y922785D03*
X413880Y922785D03*
X394880Y887860D03*
X413880Y887860D03*
X394880Y852935D03*
X413880Y852935D03*
X394880Y818010D03*
X413880Y818010D03*
X394880Y783085D03*
X413880Y783085D03*
X394880Y748160D03*
X413880Y748160D03*
X394880Y713235D03*
X413880Y713235D03*
X394880Y678310D03*
X413880Y678310D03*
X394880Y643385D03*
X413880Y643385D03*
D15*
X1204480Y727860D03*
X1204480Y1276460D03*
D16*
X1275380Y1276460D03*
D17*
X287580Y1275260D03*
X287580Y726660D03*
D16*
X216680Y726660D03*
D18*
X1357775Y936822D03*
X1357775Y946322D03*
X1357775Y955822D03*
X1331773Y955822D03*
X1331773Y936822D03*
X1331773Y946322D03*
D14*
X1343550Y909819D03*
X1362550Y909819D03*
X1328305Y885575D03*
X1309305Y885575D03*
X1309985Y861975D03*
X1328985Y861975D03*
D19*
G36*
X1376816Y1032279D02*
X1361237Y1016700D01*
X1342124Y1035813D01*
X1357703Y1051392D01*
X1376816Y1032279D01*
G37*
G36*
X1333683Y990560D02*
X1318104Y974981D01*
X1298991Y994094D01*
X1314570Y1009673D01*
X1333683Y990560D01*
G37*
D20*
X1311744Y925227D03*
X1311744Y944227D03*
D21*
X1355525Y831188D03*
X1332665Y831188D03*
X1309805Y831188D03*
D22*
X1332919Y768196D03*
D23*
X599680Y1362240D03*
X579680Y1362240D03*
X625400Y1362240D03*
X645400Y1362240D03*
X935280Y1382560D03*
X955280Y1382560D03*
X935280Y1363510D03*
X955280Y1363510D03*
X999730Y1382560D03*
X979730Y1382560D03*
X999730Y1363510D03*
X979730Y1363510D03*
D24*
X1398730Y932860D03*
X1398730Y962860D03*
D25*
X1381230Y955360D03*
X1381230Y970360D03*
X1381230Y925360D03*
D26*
X1398730Y903410D03*
X1398730Y992310D03*
D27*
X831430Y200610D03*
X831430Y220610D03*
X831430Y240610D03*
X831430Y260610D03*
X831430Y280610D03*
X831430Y300610D03*
X831430Y320610D03*
X831430Y340610D03*
X667430Y200610D03*
X667430Y220610D03*
X667430Y260610D03*
X667430Y240610D03*
X667430Y280610D03*
X667430Y300610D03*
X667430Y320610D03*
X667430Y340610D03*
D28*
X716430Y361610D03*
X736430Y361610D03*
X756430Y361610D03*
X776430Y361610D03*
X796430Y361610D03*
X696430Y361610D03*
D29*
X512892Y352637D02*
X498571Y347424D01*
X507259Y323556D02*
X521579Y328768D01*
X530267Y304900D02*
X515946Y299688D01*
X524633Y275820D02*
X538954Y281032D01*
X547641Y257164D02*
X533321Y251952D01*
X542008Y228083D02*
X556329Y233296D01*
D14*
X440490Y399210D03*
X459490Y399210D03*
X472970Y376815D03*
X491970Y376815D03*
D30*
X240430Y1350810D03*
X215030Y1350810D03*
X215030Y1325410D03*
X240430Y1325410D03*
D31*
X632580Y1475638D03*
X609030Y1466123D03*
X618545Y1442572D03*
X642095Y1452088D03*
D32*
X887830Y1466123D03*
X864280Y1475638D03*
X854765Y1452088D03*
X878315Y1442572D03*
D30*
X1294530Y1350810D03*
X1269130Y1350810D03*
X1269130Y1325410D03*
X1294530Y1325410D03*
X155640Y1030580D03*
X130240Y1030580D03*
X130240Y1005180D03*
X155640Y1005180D03*
D20*
X910655Y1365568D03*
X910655Y1384568D03*
D33*
G36*
X474527Y526400D02*
X489434Y541307D01*
X498055Y532686D01*
X483148Y517779D01*
X474527Y526400D01*
G37*
G36*
X445289Y555639D02*
X460196Y570546D01*
X468817Y561925D01*
X453910Y547018D01*
X445289Y555639D01*
G37*
G36*
X493754Y604104D02*
X508661Y619011D01*
X517282Y610390D01*
X502375Y595483D01*
X493754Y604104D01*
G37*
G36*
X522993Y574866D02*
X537900Y589773D01*
X546521Y581152D01*
X531614Y566245D01*
X522993Y574866D01*
G37*
G36*
X517473Y495900D02*
X502566Y480993D01*
X493945Y489614D01*
X508852Y504521D01*
X517473Y495900D01*
G37*
G36*
X546711Y466661D02*
X531804Y451754D01*
X523183Y460375D01*
X538090Y475282D01*
X546711Y466661D01*
G37*
G36*
X498246Y418196D02*
X483339Y403289D01*
X474718Y411910D01*
X489625Y426817D01*
X498246Y418196D01*
G37*
G36*
X469007Y447434D02*
X454100Y432527D01*
X445479Y441148D01*
X460386Y456055D01*
X469007Y447434D01*
G37*
G36*
X480750Y489677D02*
X465843Y504584D01*
X474464Y513205D01*
X489371Y498298D01*
X480750Y489677D01*
G37*
G36*
X451511Y460439D02*
X436604Y475346D01*
X445225Y483967D01*
X460132Y469060D01*
X451511Y460439D01*
G37*
G36*
X403046Y508904D02*
X388139Y523811D01*
X396760Y532432D01*
X411667Y517525D01*
X403046Y508904D01*
G37*
G36*
X432284Y538143D02*
X417377Y553050D01*
X425998Y561671D01*
X440905Y546764D01*
X432284Y538143D01*
G37*
G36*
X511250Y532623D02*
X526157Y517716D01*
X517536Y509095D01*
X502629Y524002D01*
X511250Y532623D01*
G37*
G36*
X540489Y561861D02*
X555396Y546954D01*
X546775Y538333D01*
X531868Y553240D01*
X540489Y561861D01*
G37*
G36*
X588954Y513396D02*
X603861Y498489D01*
X595240Y489868D01*
X580333Y504775D01*
X588954Y513396D01*
G37*
G36*
X559716Y484157D02*
X574623Y469250D01*
X566002Y460629D01*
X551095Y475536D01*
X559716Y484157D01*
G37*
X1007830Y509660D03*
X1007830Y551010D03*
X1076370Y551010D03*
X1076370Y509660D03*
X893530Y509660D03*
X893530Y551010D03*
X962070Y551010D03*
X962070Y509660D03*
D14*
G36*
X602218Y459275D02*
X591589Y448646D01*
X579546Y460689D01*
X590175Y471318D01*
X602218Y459275D01*
G37*
G36*
X615654Y472711D02*
X605025Y462082D01*
X592982Y474125D01*
X603611Y484754D01*
X615654Y472711D01*
G37*
G36*
X392300Y503068D02*
X402929Y492439D01*
X390886Y480396D01*
X380257Y491025D01*
X392300Y503068D01*
G37*
G36*
X378864Y516504D02*
X389493Y505875D01*
X377450Y493832D01*
X366821Y504461D01*
X378864Y516504D01*
G37*
G36*
X422462Y460206D02*
X433091Y449577D01*
X421048Y437534D01*
X410419Y448163D01*
X422462Y460206D01*
G37*
G36*
X409027Y473641D02*
X419656Y463012D01*
X407613Y450969D01*
X396984Y461598D01*
X409027Y473641D01*
G37*
D20*
X837313Y1381075D03*
X837313Y1362075D03*
D34*
X1310000Y720000D03*
X1378000Y810000D03*
X1348605Y728061D03*
D35*
X472205Y1001560D03*
X773830Y1001560D03*
X1029100Y1380020D03*
X767480Y1251750D03*
X507130Y896785D03*
X808755Y896785D03*
X1041800Y1380020D03*
X811930Y1245682D03*
X542055Y966635D03*
X849395Y962190D03*
X1054500Y1380020D03*
X850030Y1241872D03*
X576980Y861860D03*
X878605Y861860D03*
X1067200Y1380020D03*
X889400Y1235804D03*
X583330Y792010D03*
X913530Y792010D03*
X418230Y1380020D03*
X595955Y1224636D03*
X948455Y722160D03*
X618255Y722160D03*
X430930Y1380020D03*
X630880Y1224636D03*
X653180Y687235D03*
X983380Y687235D03*
X443630Y1380020D03*
X665805Y1224636D03*
X983380Y826935D03*
X688105Y826935D03*
X456330Y1380020D03*
X700730Y1224636D03*
X1053230Y931710D03*
X723030Y931710D03*
X467760Y1380020D03*
X735655Y1223810D03*
X429780Y1218060D03*
X709180Y1218060D03*
X674255Y1218060D03*
X639330Y1218060D03*
X604405Y1218060D03*
X569480Y1218060D03*
X534555Y1218060D03*
X499630Y1218060D03*
X464705Y1218060D03*
X429780Y1183135D03*
X709180Y1183135D03*
X674255Y1183135D03*
X639330Y1183135D03*
X604405Y1183135D03*
X569480Y1183135D03*
X534555Y1183135D03*
X499630Y1183135D03*
X464705Y1183135D03*
X429780Y1148210D03*
X709180Y1148210D03*
X674255Y1148210D03*
X639330Y1148210D03*
X604405Y1148210D03*
X569480Y1148210D03*
X534555Y1148210D03*
X499630Y1148210D03*
X464705Y1148210D03*
X429780Y1113285D03*
X709180Y1113285D03*
X674255Y1113285D03*
X639330Y1113285D03*
X604405Y1113285D03*
X569480Y1113285D03*
X534555Y1113285D03*
X499630Y1113285D03*
X464705Y1113285D03*
X429780Y1078360D03*
X709180Y1078360D03*
X674255Y1078360D03*
X639330Y1078360D03*
X604405Y1078360D03*
X569480Y1078360D03*
X534555Y1078360D03*
X499630Y1078360D03*
X464705Y1078360D03*
X429780Y1043435D03*
X709180Y1043435D03*
X674255Y1043435D03*
X639330Y1043435D03*
X604405Y1043435D03*
X569480Y1043435D03*
X534555Y1043435D03*
X499630Y1043435D03*
X464705Y1043435D03*
X429780Y1008510D03*
X674255Y1008510D03*
X639330Y1008510D03*
X604405Y1008510D03*
X569480Y1008510D03*
X534555Y1008510D03*
X499630Y1008510D03*
X464705Y1008510D03*
X709180Y1008510D03*
X429780Y973585D03*
X709180Y973585D03*
X674255Y973585D03*
X639330Y973585D03*
X604405Y973585D03*
X569480Y973585D03*
X534555Y973585D03*
X499630Y973585D03*
X464705Y973585D03*
X429780Y938660D03*
X709180Y938660D03*
X674255Y938660D03*
X639330Y938660D03*
X604405Y938660D03*
X569480Y938660D03*
X534555Y938660D03*
X499630Y938660D03*
X464705Y938660D03*
X429780Y903735D03*
X709180Y903735D03*
X674255Y903735D03*
X639330Y903735D03*
X604405Y903735D03*
X569480Y903735D03*
X534555Y903735D03*
X499630Y903735D03*
X464705Y903735D03*
X429780Y868810D03*
X709180Y868810D03*
X674255Y868810D03*
X639330Y868810D03*
X604405Y868810D03*
X569480Y868810D03*
X534555Y868810D03*
X499630Y868810D03*
X464705Y868810D03*
X429780Y833885D03*
X709180Y833885D03*
X674255Y833885D03*
X639330Y833885D03*
X604405Y833885D03*
X569480Y833885D03*
X534555Y833885D03*
X499630Y833885D03*
X464705Y833885D03*
X429780Y798960D03*
X709180Y798960D03*
X674255Y798960D03*
X639330Y798960D03*
X604405Y798960D03*
X569480Y798960D03*
X534555Y798960D03*
X499630Y798960D03*
X464705Y798960D03*
X429780Y764035D03*
X709180Y764035D03*
X674255Y764035D03*
X639330Y764035D03*
X604405Y764035D03*
X569480Y764035D03*
X534555Y764035D03*
X499630Y764035D03*
X464705Y764035D03*
X429780Y729110D03*
X709180Y729110D03*
X674255Y729110D03*
X639330Y729110D03*
X604405Y729110D03*
X569480Y729110D03*
X534555Y729110D03*
X499630Y729110D03*
X464705Y729110D03*
X429780Y694185D03*
X709180Y694185D03*
X674255Y694185D03*
X639330Y694185D03*
X604405Y694185D03*
X569480Y694185D03*
X534555Y694185D03*
X499630Y694185D03*
X464705Y694185D03*
X429780Y659260D03*
X709180Y659260D03*
X674255Y659260D03*
X639330Y659260D03*
X604405Y659260D03*
X569480Y659260D03*
X534555Y659260D03*
X499630Y659260D03*
X464705Y659260D03*
X785380Y1218060D03*
X1064780Y1218060D03*
X1029855Y1218060D03*
X994930Y1218060D03*
X820305Y1218060D03*
X855230Y1218060D03*
X890155Y1218060D03*
X925080Y1218060D03*
X960005Y1218060D03*
X785380Y1183135D03*
X1064780Y1183135D03*
X1029855Y1183135D03*
X994930Y1183135D03*
X960005Y1183135D03*
X925080Y1183135D03*
X890155Y1183135D03*
X855230Y1183135D03*
X820305Y1183135D03*
X785380Y1148210D03*
X1064780Y1148210D03*
X1029855Y1148210D03*
X994930Y1148210D03*
X960005Y1148210D03*
X925080Y1148210D03*
X890155Y1148210D03*
X855230Y1148210D03*
X820305Y1148210D03*
X785380Y1113285D03*
X1064780Y1113285D03*
X1029855Y1113285D03*
X994930Y1113285D03*
X960005Y1113285D03*
X925080Y1113285D03*
X890155Y1113285D03*
X855230Y1113285D03*
X820305Y1113285D03*
X785380Y1078360D03*
X1064780Y1078360D03*
X1029855Y1078360D03*
X994930Y1078360D03*
X960005Y1078360D03*
X925080Y1078360D03*
X890155Y1078360D03*
X855230Y1078360D03*
X820305Y1078360D03*
X785380Y1043435D03*
X1064780Y1043435D03*
X1029855Y1043435D03*
X994930Y1043435D03*
X960005Y1043435D03*
X925080Y1043435D03*
X890155Y1043435D03*
X855230Y1043435D03*
X820305Y1043435D03*
X785380Y1008510D03*
X1064780Y1008510D03*
X1029855Y1008510D03*
X994930Y1008510D03*
X960005Y1008510D03*
X925080Y1008510D03*
X890155Y1008510D03*
X855230Y1008510D03*
X820305Y1008510D03*
X785380Y973585D03*
X1064780Y973585D03*
X1029855Y973585D03*
X994930Y973585D03*
X960005Y973585D03*
X925080Y973585D03*
X890155Y973585D03*
X855230Y973585D03*
X820305Y973585D03*
X785380Y938660D03*
X1064780Y938660D03*
X1029855Y938660D03*
X994930Y938660D03*
X960005Y938660D03*
X925080Y938660D03*
X890155Y938660D03*
X855230Y938660D03*
X820305Y938660D03*
X785380Y903735D03*
X1064780Y903735D03*
X1029855Y903735D03*
X994930Y903735D03*
X960005Y903735D03*
X925080Y903735D03*
X890155Y903735D03*
X855230Y903735D03*
X820305Y903735D03*
X785380Y868810D03*
X1064780Y868810D03*
X1029855Y868810D03*
X994930Y868810D03*
X960005Y868810D03*
X925080Y868810D03*
X890155Y868810D03*
X855230Y868810D03*
X820305Y868810D03*
X785380Y833885D03*
X1064780Y833885D03*
X1029855Y833885D03*
X994930Y833885D03*
X960005Y833885D03*
X925080Y833885D03*
X890155Y833885D03*
X855230Y833885D03*
X820305Y833885D03*
X785380Y798960D03*
X1064780Y798960D03*
X1029855Y798960D03*
X994930Y798960D03*
X960005Y798960D03*
X925080Y798960D03*
X890155Y798960D03*
X855230Y798960D03*
X820305Y798960D03*
X785380Y764035D03*
X1064780Y764035D03*
X820305Y764035D03*
X855230Y764035D03*
X890155Y764035D03*
X925080Y764035D03*
X960005Y764035D03*
X994930Y764035D03*
X1029855Y764035D03*
X785380Y729110D03*
X1064780Y729110D03*
X1029855Y729110D03*
X994930Y729110D03*
X960005Y729110D03*
X925080Y729110D03*
X890155Y729110D03*
X855230Y729110D03*
X820305Y729110D03*
X785380Y694185D03*
X1064780Y694185D03*
X820305Y694185D03*
X855230Y694185D03*
X890155Y694185D03*
X925080Y694185D03*
X960005Y694185D03*
X994930Y694185D03*
X1029855Y694185D03*
X785380Y659260D03*
X1064780Y659260D03*
X1029855Y659260D03*
X820305Y659260D03*
X855230Y659260D03*
X890155Y659260D03*
X925080Y659260D03*
X960005Y659260D03*
X994930Y659260D03*
X1377080Y827570D03*
X1311040Y962190D03*
X1290720Y861860D03*
X897655Y1384783D03*
X564280Y1362240D03*
X667450Y365100D03*
X1042100Y551010D03*
X927800Y551010D03*
X481285Y583015D03*
X453374Y525674D03*
X481476Y468524D03*
X575375Y454000D03*
X747160Y1395034D03*
X612540Y1372400D03*
X664610Y1476540D03*
X832250Y1477810D03*
X894463Y1362050D03*
X891288Y1425550D03*
X867687Y1352525D03*
X854140Y1378560D03*
X448375Y387325D03*
X638875Y241275D03*
D36*
X1396000Y1016000D03*
M02*
