<svg xmlns="http://www.w3.org/2000/svg" viewBox="0 0 95.12 94.25"><defs><style>.cls-1,.cls-2{fill:none;stroke:#231f20;stroke-miterlimit:10;}.cls-1{stroke-width:0.5px;}</style></defs><title>TidePodOutline</title><g id="Layer_1" data-name="Layer 1"><path class="cls-1" d="M-24.05,20.06" transform="translate(-3.55 -2.48)"/><path class="cls-2" d="M93.63,49.61a6.7,6.7,0,0,0-.15-2.37c-.29-2,2.5-3.41,2.72-9.61s-1.91-5.07-3-10,4.56-15.29,4.56-15.29,1.4-3.71-.88-6.43S78.7,7.58,78.7,7.58,66.65,3.3,56.5,3s-10,2.53-19.34,3.9-9.09-.28-21.66-2S4.67,7.67,4.67,7.67c-1.25,4.47-.22,15.27-.22,15.27s2.79,9.84,1.69,16.57,0,10.09,0,10.09S5,53,6.14,59.69,4.44,76.27,4.44,76.27s-1,10.81.22,15.27c0,0-1.74,4.53,10.83,2.79s12.32-3.38,21.66-2,9.19,4.2,19.34,3.9,22.2-4.58,22.2-4.58S94.58,96,96.86,93.3s.88-6.43.88-6.43S92.08,76.5,93.18,71.58s3.23-3.78,3-10-3-7.64-2.72-9.61a6.7,6.7,0,0,0,.15-2.37" transform="translate(-3.55 -2.48)"/></g><g id="Layer_3" data-name="Layer 3"><path class="cls-1" d="M68.38,26.38" transform="translate(-3.55 -2.48)"/></g></svg>