M48
;GenerationSoftware,Autodesk,EAGLE,9.0.0*%
;CreationDate,2018-05-04T09:23:20Z*%
FMAT,2
ICI,OFF
METRIC,TZ,000.000
T7C0.350
T6C0.900
T5C1.000
T4C1.016
T3C1.190
T2C2.380
T1C6.350
%
G90
M71
T1
X75050Y147017
T2
X127538Y127646
X21668Y72666
T3
X120448Y72786
X120448Y127646
X28758Y127526
X28758Y72666
T4
X52311Y30229
X53179Y27843
X54048Y25456
X54917Y23069
X50573Y35003
X51442Y32616
T5
X15564Y100518
X139600Y101600
X13024Y103058
X13024Y100518
X24043Y135081
X21503Y135081
X21503Y132541
X24043Y132541
X63258Y147564
X60903Y146612
X61854Y144257
X64210Y145209
X88783Y146612
X86428Y147564
X85476Y145209
X87832Y144257
X129453Y135081
X126913Y135081
X126913Y132541
X129453Y132541
X15564Y103058
T6
X139873Y93286
X139873Y96286
T7
X42978Y121806
X70918Y121806
X67426Y121806
X63933Y121806
X60440Y121806
X56948Y121806
X53455Y121806
X49963Y121806
X46470Y121806
X42978Y118313
X70918Y118313
X67426Y118313
X63933Y118313
X60440Y118313
X56948Y118313
X53455Y118313
X49963Y118313
X46470Y118313
X42978Y114821
X70918Y114821
X67426Y114821
X63933Y114821
X60440Y114821
X56948Y114821
X53455Y114821
X49963Y114821
X46470Y114821
X42978Y111328
X70918Y111328
X67426Y111328
X63933Y111328
X60440Y111328
X56948Y111328
X53455Y111328
X49963Y111328
X46470Y111328
X42978Y107836
X70918Y107836
X67426Y107836
X63933Y107836
X60440Y107836
X56948Y107836
X53455Y107836
X49963Y107836
X46470Y107836
X42978Y104343
X70918Y104343
X67426Y104343
X63933Y104343
X60440Y104343
X56948Y104343
X53455Y104343
X49963Y104343
X46470Y104343
X42978Y100851
X67426Y100851
X63933Y100851
X60440Y100851
X56948Y100851
X53455Y100851
X49963Y100851
X46470Y100851
X70918Y100851
X42978Y97358
X70918Y97358
X67426Y97358
X63933Y97358
X60440Y97358
X56948Y97358
X53455Y97358
X49963Y97358
X46470Y97358
X42978Y93866
X70918Y93866
X67426Y93866
X63933Y93866
X60440Y93866
X56948Y93866
X53455Y93866
X49963Y93866
X46470Y93866
X42978Y90373
X70918Y90373
X67426Y90373
X63933Y90373
X60440Y90373
X56948Y90373
X53455Y90373
X49963Y90373
X46470Y90373
X42978Y86881
X70918Y86881
X67426Y86881
X63933Y86881
X60440Y86881
X56948Y86881
X53455Y86881
X49963Y86881
X46470Y86881
X42978Y83389
X70918Y83389
X67426Y83389
X63933Y83389
X60440Y83389
X56948Y83389
X53455Y83389
X49963Y83389
X46470Y83389
X42978Y79896
X70918Y79896
X67426Y79896
X63933Y79896
X60440Y79896
X56948Y79896
X53455Y79896
X49963Y79896
X46470Y79896
X42978Y76404
X70918Y76404
X67426Y76404
X63933Y76404
X60440Y76404
X56948Y76404
X53455Y76404
X49963Y76404
X46470Y76404
X42978Y72911
X70918Y72911
X67426Y72911
X63933Y72911
X60440Y72911
X56948Y72911
X53455Y72911
X49963Y72911
X46470Y72911
X42978Y69419
X70918Y69419
X67426Y69419
X63933Y69419
X60440Y69419
X56948Y69419
X53455Y69419
X49963Y69419
X46470Y69419
X42978Y65926
X70918Y65926
X67426Y65926
X63933Y65926
X60440Y65926
X56948Y65926
X53455Y65926
X49963Y65926
X46470Y65926
X78538Y121806
X106478Y121806
X102985Y121806
X99493Y121806
X82031Y121806
X85523Y121806
X89015Y121806
X92508Y121806
X96000Y121806
X78538Y118313
X106478Y118313
X102985Y118313
X99493Y118313
X96000Y118313
X92508Y118313
X89015Y118313
X85523Y118313
X82031Y118313
X78538Y114821
X106478Y114821
X102985Y114821
X99493Y114821
X96000Y114821
X92508Y114821
X89015Y114821
X85523Y114821
X82031Y114821
X78538Y111328
X106478Y111328
X102985Y111328
X99493Y111328
X96000Y111328
X92508Y111328
X89015Y111328
X85523Y111328
X82031Y111328
X78538Y107836
X106478Y107836
X102985Y107836
X99493Y107836
X96000Y107836
X92508Y107836
X89015Y107836
X85523Y107836
X82031Y107836
X78538Y104343
X106478Y104343
X102985Y104343
X99493Y104343
X96000Y104343
X92508Y104343
X89015Y104343
X85523Y104343
X82031Y104343
X78538Y100851
X106478Y100851
X102985Y100851
X99493Y100851
X96000Y100851
X92508Y100851
X89015Y100851
X85523Y100851
X82031Y100851
X78538Y97358
X106478Y97358
X102985Y97358
X99493Y97358
X96000Y97358
X92508Y97358
X89015Y97358
X85523Y97358
X82031Y97358
X78538Y93866
X106478Y93866
X102985Y93866
X99493Y93866
X96000Y93866
X92508Y93866
X89015Y93866
X85523Y93866
X82031Y93866
X78538Y90373
X106478Y90373
X102985Y90373
X99493Y90373
X96000Y90373
X92508Y90373
X89015Y90373
X85523Y90373
X82031Y90373
X78538Y86881
X106478Y86881
X102985Y86881
X99493Y86881
X96000Y86881
X92508Y86881
X89015Y86881
X85523Y86881
X82031Y86881
X78538Y83389
X106478Y83389
X102985Y83389
X99493Y83389
X96000Y83389
X92508Y83389
X89015Y83389
X85523Y83389
X82031Y83389
X78538Y79896
X106478Y79896
X47220Y100156
X99493Y79896
X96000Y79896
X92508Y79896
X89015Y79896
X85523Y79896
X82031Y79896
X78538Y76404
X106478Y76404
X82031Y76404
X85523Y76404
X89015Y76404
X92508Y76404
X96000Y76404
X99493Y76404
X102985Y76404
X78538Y72911
X106478Y72911
X102985Y72911
X99493Y72911
X96000Y72911
X92508Y72911
X89015Y72911
X85523Y72911
X82031Y72911
X78538Y69419
X106478Y69419
X82031Y69419
X85523Y69419
X89015Y69419
X92508Y69419
X96000Y69419
X99493Y69419
X102985Y69419
X78538Y65926
X106478Y65926
X102985Y65926
X82031Y65926
X85523Y65926
X89015Y65926
X92508Y65926
X96000Y65926
X99493Y65926
X137708Y82757
X131104Y96219
X129072Y86186
X89765Y138478
X56428Y136224
X66745Y36510
X104210Y55101
X102985Y79896
X48129Y58301
X45337Y52567
X48148Y46852
X57537Y45400
X74716Y139503
X61254Y137240
X66461Y147654
X83225Y147781
X89446Y136205
X89129Y142555
X86769Y135253
X85414Y137856
X44837Y38733
X63887Y24127
X77383Y100156
X102910Y138002
X76748Y125175
X50713Y89678
X80876Y89678
X104180Y138002
X81193Y124568
X54205Y96663
X84940Y96219
X105450Y138002
X85003Y124187
X57698Y86186
X87860Y86186
X106720Y138002
X88940Y123580
X58333Y79201
X91353Y79201
X41823Y138002
X59595Y122464
X94845Y72216
X61825Y72216
X43093Y138002
X63088Y122464
X65318Y68724
X98338Y68724
X44363Y138002
X66580Y122464
X98338Y82694
X68811Y82694
X45633Y138002
X70073Y122464
X105323Y93171
X72303Y93171
X46776Y138002
X73565Y122381
X92780Y55101
M30